Ubuntu-ExtraBoldItalic.ufo
<glyph name="exclam" format="2">
  <advance width="305"/>
  <unicode hex="0021"/>
  <outline>
    <contour>
      <point x="147" y="221" type="curve"/>
      <point x="261" y="221" type="line"/>
      <point x="297" y="317"/>
      <point x="326" y="406"/>
      <point x="353" y="514" type="curve"/>
      <point x="396" y="693" type="line"/>
      <point x="237" y="693" type="line"/>
      <point x="194" y="514" type="line" smooth="yes"/>
      <point x="169" y="406"/>
      <point x="158" y="317"/>
    </contour>
    <contour>
      <point x="167" y="-13" type="curve" smooth="yes"/>
      <point x="218" y="-13"/>
      <point x="267" y="29"/>
      <point x="267" y="90" type="curve" smooth="yes"/>
      <point x="267" y="145"/>
      <point x="232" y="171"/>
      <point x="185" y="171" type="curve" smooth="yes"/>
      <point x="134" y="171"/>
      <point x="85" y="129"/>
      <point x="85" y="68" type="curve" smooth="yes"/>
      <point x="85" y="13"/>
      <point x="120" y="-13"/>
    </contour>
  </outline>
</glyph>
<glyph name="numbersign" format="2">
  <advance width="670"/>
  <unicode hex="0023"/>
  <outline>
    <contour>
      <point x="14" y="0" type="line"/>
      <point x="142" y="0" type="line"/>
      <point x="213" y="170" type="line"/>
      <point x="324" y="170" type="line"/>
      <point x="253" y="0" type="line"/>
      <point x="381" y="0" type="line"/>
      <point x="452" y="170" type="line"/>
      <point x="583" y="170" type="line"/>
      <point x="611" y="285" type="line"/>
      <point x="500" y="285" type="line"/>
      <point x="551" y="408" type="line"/>
      <point x="641" y="408" type="line"/>
      <point x="669" y="523" type="line"/>
      <point x="599" y="523" type="line"/>
      <point x="671" y="693" type="line"/>
      <point x="543" y="693" type="line"/>
      <point x="471" y="523" type="line"/>
      <point x="360" y="523" type="line"/>
      <point x="432" y="693" type="line"/>
      <point x="304" y="693" type="line"/>
      <point x="232" y="523" type="line"/>
      <point x="102" y="523" type="line"/>
      <point x="74" y="408" type="line"/>
      <point x="184" y="408" type="line"/>
      <point x="133" y="285" type="line"/>
      <point x="44" y="285" type="line"/>
      <point x="16" y="170" type="line"/>
      <point x="85" y="170" type="line"/>
    </contour>
    <contour>
      <point x="261" y="285" type="line"/>
      <point x="312" y="408" type="line"/>
      <point x="423" y="408" type="line"/>
      <point x="372" y="285" type="line"/>
    </contour>
  </outline>
</glyph>
<glyph name="dollar" format="2">
  <advance width="564"/>
  <unicode hex="0024"/>
  <outline>
    <contour>
      <point x="124" y="-109" type="line"/>
      <point x="250" y="-109" type="line"/>
      <point x="279" y="11" type="line"/>
      <point x="404" y="24"/>
      <point x="488" y="88"/>
      <point x="488" y="212" type="curve" smooth="yes"/>
      <point x="488" y="313"/>
      <point x="416" y="359"/>
      <point x="340" y="398" type="curve"/>
      <point x="274" y="430"/>
      <point x="256" y="451"/>
      <point x="256" y="487" type="curve" smooth="yes"/>
      <point x="256" y="532"/>
      <point x="304" y="553"/>
      <point x="361" y="553" type="curve" smooth="yes"/>
      <point x="408" y="553"/>
      <point x="461" y="539"/>
      <point x="496" y="512" type="curve"/>
      <point x="556" y="618" type="line"/>
      <point x="529" y="635"/>
      <point x="486" y="655"/>
      <point x="435" y="666" type="curve"/>
      <point x="463" y="776" type="line"/>
      <point x="337" y="776" type="line"/>
      <point x="310" y="669" type="line"/>
      <point x="169" y="653"/>
      <point x="107" y="569"/>
      <point x="107" y="480" type="curve" smooth="yes"/>
      <point x="107" y="411"/>
      <point x="143" y="343"/>
      <point x="228" y="300" type="curve" smooth="yes"/>
      <point x="298" y="265"/>
      <point x="339" y="244"/>
      <point x="339" y="202" type="curve" smooth="yes"/>
      <point x="339" y="138"/>
      <point x="277" y="129"/>
      <point x="220" y="129" type="curve" smooth="yes"/>
      <point x="156" y="129"/>
      <point x="95" y="157"/>
      <point x="67" y="178" type="curve"/>
      <point x="6" y="68" type="line"/>
      <point x="30" y="51"/>
      <point x="82" y="24"/>
      <point x="154" y="13" type="curve"/>
    </contour>
  </outline>
</glyph>
<glyph name="percent" format="2">
  <advance width="880"/>
  <unicode hex="0025"/>
  <outline>
    <contour>
      <point x="99" y="0" type="line"/>
      <point x="243" y="0" type="line"/>
      <point x="801" y="693" type="line"/>
      <point x="657" y="693" type="line"/>
    </contour>
    <contour>
      <point x="631" y="-16" type="curve" smooth="yes"/>
      <point x="736" y="-16"/>
      <point x="835" y="74"/>
      <point x="835" y="225" type="curve" smooth="yes"/>
      <point x="835" y="324"/>
      <point x="773" y="372"/>
      <point x="685" y="372" type="curve" smooth="yes"/>
      <point x="580" y="372"/>
      <point x="481" y="282"/>
      <point x="481" y="131" type="curve" smooth="yes"/>
      <point x="481" y="32"/>
      <point x="543" y="-16"/>
    </contour>
    <contour>
      <point x="642" y="80" type="curve" smooth="yes"/>
      <point x="614" y="80"/>
      <point x="591" y="99"/>
      <point x="591" y="135" type="curve" smooth="yes"/>
      <point x="591" y="223"/>
      <point x="634" y="277"/>
      <point x="677" y="277" type="curve" smooth="yes"/>
      <point x="705" y="277"/>
      <point x="725" y="257"/>
      <point x="725" y="221" type="curve" smooth="yes"/>
      <point x="725" y="133"/>
      <point x="685" y="80"/>
    </contour>
    <contour>
      <point x="215" y="321" type="curve" smooth="yes"/>
      <point x="320" y="321"/>
      <point x="419" y="411"/>
      <point x="419" y="562" type="curve" smooth="yes"/>
      <point x="419" y="661"/>
      <point x="357" y="709"/>
      <point x="269" y="709" type="curve" smooth="yes"/>
      <point x="164" y="709"/>
      <point x="65" y="619"/>
      <point x="65" y="468" type="curve" smooth="yes"/>
      <point x="65" y="369"/>
      <point x="127" y="321"/>
    </contour>
    <contour>
      <point x="226" y="417" type="curve" smooth="yes"/>
      <point x="198" y="417"/>
      <point x="175" y="436"/>
      <point x="175" y="472" type="curve" smooth="yes"/>
      <point x="175" y="560"/>
      <point x="218" y="614"/>
      <point x="261" y="614" type="curve" smooth="yes"/>
      <point x="289" y="614"/>
      <point x="309" y="594"/>
      <point x="309" y="558" type="curve" smooth="yes"/>
      <point x="309" y="470"/>
      <point x="269" y="417"/>
    </contour>
  </outline>
</glyph>
<glyph name="ampersand" format="2">
  <advance width="673"/>
  <unicode hex="0026"/>
  <outline>
    <contour>
      <point x="294" y="-9" type="curve" smooth="yes"/>
      <point x="375" y="-9"/>
      <point x="448" y="13"/>
      <point x="511" y="56" type="curve"/>
      <point x="522" y="36"/>
      <point x="532" y="17"/>
      <point x="540" y="0" type="curve"/>
      <point x="691" y="0" type="line"/>
      <point x="668" y="48"/>
      <point x="642" y="98"/>
      <point x="607" y="147" type="curve"/>
      <point x="646" y="197"/>
      <point x="679" y="258"/>
      <point x="708" y="331" type="curve"/>
      <point x="577" y="348" type="line"/>
      <point x="563" y="308"/>
      <point x="548" y="274"/>
      <point x="531" y="247" type="curve"/>
      <point x="447" y="359" type="line"/>
      <point x="484" y="376" type="line" smooth="yes"/>
      <point x="580" y="419"/>
      <point x="627" y="503"/>
      <point x="627" y="569" type="curve" smooth="yes"/>
      <point x="627" y="644"/>
      <point x="569" y="709"/>
      <point x="453" y="709" type="curve" smooth="yes"/>
      <point x="314" y="709"/>
      <point x="228" y="625"/>
      <point x="228" y="517" type="curve" smooth="yes"/>
      <point x="228" y="476"/>
      <point x="240" y="432"/>
      <point x="267" y="388" type="curve"/>
      <point x="250" y="380" type="line" smooth="yes"/>
      <point x="134" y="328"/>
      <point x="85" y="257"/>
      <point x="85" y="157" type="curve" smooth="yes"/>
      <point x="85" y="73"/>
      <point x="152" y="-9"/>
    </contour>
    <contour>
      <point x="313" y="107" type="curve" smooth="yes"/>
      <point x="261" y="107"/>
      <point x="233" y="143"/>
      <point x="233" y="186" type="curve" smooth="yes"/>
      <point x="233" y="226"/>
      <point x="257" y="272"/>
      <point x="313" y="297" type="curve" smooth="yes"/>
      <point x="328" y="304" type="line"/>
      <point x="445" y="150" type="line"/>
      <point x="394" y="115"/>
      <point x="348" y="107"/>
    </contour>
    <contour>
      <point x="386" y="442" type="line"/>
      <point x="369" y="471"/>
      <point x="360" y="494"/>
      <point x="360" y="513" type="curve" smooth="yes"/>
      <point x="360" y="573"/>
      <point x="401" y="603"/>
      <point x="441" y="603" type="curve" smooth="yes"/>
      <point x="481" y="603"/>
      <point x="499" y="580"/>
      <point x="499" y="555" type="curve" smooth="yes"/>
      <point x="499" y="508"/>
      <point x="462" y="476"/>
      <point x="398" y="447" type="curve" smooth="yes"/>
    </contour>
  </outline>
</glyph>
<glyph name="quotesingle" format="2">
  <advance width="284"/>
  <unicode hex="0027"/>
  <outline>
    <contour>
      <point x="185" y="466" type="curve"/>
      <point x="284" y="466" type="line"/>
      <point x="315" y="543"/>
      <point x="346" y="622"/>
      <point x="361" y="686" type="curve" smooth="yes"/>
      <point x="379" y="760" type="line"/>
      <point x="232" y="760" type="line"/>
      <point x="214" y="687" type="line" smooth="yes"/>
      <point x="199" y="622"/>
      <point x="190" y="543"/>
    </contour>
  </outline>
</glyph>
<glyph name="parenleft" format="2">
  <advance width="366"/>
  <unicode hex="0028"/>
  <outline>
    <contour>
      <point x="189" y="-185" type="curve"/>
      <point x="299" y="-118" type="line"/>
      <point x="264" y="-34"/>
      <point x="249" y="48"/>
      <point x="249" y="131" type="curve" smooth="yes"/>
      <point x="249" y="347"/>
      <point x="355" y="552"/>
      <point x="506" y="716" type="curve"/>
      <point x="410" y="783" type="line"/>
      <point x="228" y="618"/>
      <point x="103" y="374"/>
      <point x="103" y="135" type="curve" smooth="yes"/>
      <point x="103" y="23"/>
      <point x="129" y="-85"/>
    </contour>
  </outline>
</glyph>
<glyph name="parenright" format="2">
  <advance width="366"/>
  <unicode hex="0029"/>
  <outline>
    <contour>
      <point x="77" y="-184" type="line"/>
      <point x="259" y="-19"/>
      <point x="384" y="225"/>
      <point x="384" y="464" type="curve" smooth="yes"/>
      <point x="384" y="576"/>
      <point x="358" y="684"/>
      <point x="298" y="784" type="curve"/>
      <point x="188" y="717" type="line"/>
      <point x="223" y="633"/>
      <point x="238" y="551"/>
      <point x="238" y="468" type="curve" smooth="yes"/>
      <point x="238" y="253"/>
      <point x="133" y="45"/>
      <point x="-19" y="-117" type="curve"/>
    </contour>
  </outline>
</glyph>
<glyph name="asterisk" format="2">
  <advance width="512"/>
  <unicode hex="002A"/>
  <outline>
    <contour>
      <point x="220" y="292" type="line"/>
      <point x="258" y="341"/>
      <point x="269" y="377"/>
      <point x="286" y="437" type="curve"/>
      <point x="303" y="378"/>
      <point x="314" y="340"/>
      <point x="352" y="292" type="curve"/>
      <point x="458" y="367" type="line"/>
      <point x="416" y="423"/>
      <point x="396" y="436"/>
      <point x="338" y="475" type="curve"/>
      <point x="410" y="475"/>
      <point x="425" y="470"/>
      <point x="497" y="492" type="curve"/>
      <point x="457" y="616" type="line"/>
      <point x="400" y="598"/>
      <point x="364" y="574"/>
      <point x="318" y="536" type="curve"/>
      <point x="342" y="602"/>
      <point x="351" y="623"/>
      <point x="351" y="693" type="curve"/>
      <point x="221" y="693" type="line"/>
      <point x="221" y="624"/>
      <point x="229" y="604"/>
      <point x="254" y="536" type="curve"/>
      <point x="208" y="574"/>
      <point x="172" y="598"/>
      <point x="115" y="616" type="curve"/>
      <point x="75" y="492" type="line"/>
      <point x="147" y="470"/>
      <point x="162" y="475"/>
      <point x="234" y="475" type="curve"/>
      <point x="178" y="437"/>
      <point x="156" y="424"/>
      <point x="114" y="367" type="curve"/>
    </contour>
  </outline>
</glyph>
<glyph name="plus" format="2">
  <advance width="578"/>
  <unicode hex="002B"/>
  <outline>
    <contour>
      <point x="223" y="51" type="line"/>
      <point x="359" y="51" type="line"/>
      <point x="403" y="236" type="line"/>
      <point x="570" y="236" type="line"/>
      <point x="601" y="361" type="line"/>
      <point x="434" y="361" type="line"/>
      <point x="478" y="546" type="line"/>
      <point x="342" y="546" type="line"/>
      <point x="298" y="361" type="line"/>
      <point x="131" y="361" type="line"/>
      <point x="100" y="236" type="line"/>
      <point x="267" y="236" type="line"/>
    </contour>
  </outline>
</glyph>
<glyph name="comma" format="2">
  <advance width="261"/>
  <unicode hex="002C"/>
  <outline>
    <contour>
      <point x="104" y="-163" type="line"/>
      <point x="181" y="-67"/>
      <point x="242" y="36"/>
      <point x="246" y="152" type="curve"/>
      <point x="90" y="152" type="line"/>
      <point x="83" y="48"/>
      <point x="46" y="-46"/>
      <point x="-5" y="-134" type="curve"/>
    </contour>
  </outline>
</glyph>
<glyph name="hyphen" format="2">
  <advance width="343"/>
  <unicode hex="002D"/>
  <outline>
    <contour>
      <point x="73" y="231" type="line"/>
      <point x="363" y="231" type="line"/>
      <point x="396" y="366" type="line"/>
      <point x="106" y="366" type="line"/>
    </contour>
  </outline>
</glyph>
<glyph name="period" format="2">
  <advance width="262"/>
  <unicode hex="002E"/>
  <outline>
    <contour>
      <point x="147" y="-13" type="curve" smooth="yes"/>
      <point x="198" y="-13"/>
      <point x="247" y="29"/>
      <point x="247" y="90" type="curve" smooth="yes"/>
      <point x="247" y="145"/>
      <point x="212" y="171"/>
      <point x="165" y="171" type="curve" smooth="yes"/>
      <point x="114" y="171"/>
      <point x="65" y="129"/>
      <point x="65" y="68" type="curve" smooth="yes"/>
      <point x="65" y="13"/>
      <point x="100" y="-13"/>
    </contour>
  </outline>
</glyph>
<glyph name="slash" format="2">
  <advance width="446"/>
  <unicode hex="002F"/>
  <outline>
    <contour>
      <point x="-85" y="-185" type="line"/>
      <point x="67" y="-185" type="line"/>
      <point x="626" y="783" type="line"/>
      <point x="475" y="783" type="line"/>
    </contour>
  </outline>
</glyph>
<glyph name="zero" format="2">
  <advance width="578"/>
  <unicode hex="0030"/>
  <outline>
    <contour>
      <point x="280" y="-14" type="curve" smooth="yes"/>
      <point x="487" y="-14"/>
      <point x="628" y="200"/>
      <point x="628" y="504" type="curve" smooth="yes"/>
      <point x="628" y="607"/>
      <point x="580" y="709"/>
      <point x="449" y="709" type="curve" smooth="yes"/>
      <point x="242" y="709"/>
      <point x="101" y="495"/>
      <point x="101" y="191" type="curve" smooth="yes"/>
      <point x="101" y="88"/>
      <point x="149" y="-14"/>
    </contour>
    <contour>
      <point x="303" y="114" type="curve" smooth="yes"/>
      <point x="259" y="114"/>
      <point x="238" y="143"/>
      <point x="238" y="212" type="curve" smooth="yes"/>
      <point x="238" y="332"/>
      <point x="296" y="582"/>
      <point x="428" y="582" type="curve" smooth="yes"/>
      <point x="471" y="582"/>
      <point x="491" y="551"/>
      <point x="491" y="483" type="curve" smooth="yes"/>
      <point x="491" y="363"/>
      <point x="433" y="114"/>
    </contour>
  </outline>
</glyph>
<glyph name="one" format="2">
  <advance width="578"/>
  <unicode hex="0031"/>
  <outline>
    <contour>
      <point x="257" y="0" type="line"/>
      <point x="406" y="0" type="line"/>
      <point x="573" y="693" type="line"/>
      <point x="469" y="693" type="line"/>
      <point x="397" y="632"/>
      <point x="290" y="581"/>
      <point x="205" y="549" type="curve"/>
      <point x="223" y="434" type="line"/>
      <point x="272" y="450"/>
      <point x="330" y="472"/>
      <point x="377" y="499" type="curve"/>
    </contour>
  </outline>
</glyph>
<glyph name="two" format="2">
  <advance width="578"/>
  <unicode hex="0032"/>
  <outline>
    <contour>
      <point x="65" y="0" type="curve"/>
      <point x="526" y="0" type="line"/>
      <point x="556" y="124" type="line"/>
      <point x="258" y="124" type="line"/>
      <point x="317" y="199"/>
      <point x="393" y="240"/>
      <point x="465" y="296" type="curve" smooth="yes"/>
      <point x="588" y="393"/>
      <point x="628" y="442"/>
      <point x="628" y="544" type="curve" smooth="yes"/>
      <point x="628" y="635"/>
      <point x="548" y="709"/>
      <point x="440" y="709" type="curve" smooth="yes"/>
      <point x="355" y="709"/>
      <point x="276" y="685"/>
      <point x="196" y="620" type="curve"/>
      <point x="247" y="511" type="line"/>
      <point x="308" y="558"/>
      <point x="357" y="581"/>
      <point x="412" y="581" type="curve" smooth="yes"/>
      <point x="451" y="581"/>
      <point x="478" y="555"/>
      <point x="478" y="520" type="curve" smooth="yes"/>
      <point x="478" y="463"/>
      <point x="433" y="425"/>
      <point x="313" y="332" type="curve" smooth="yes"/>
      <point x="186" y="234"/>
      <point x="89" y="168"/>
    </contour>
  </outline>
</glyph>
<glyph name="three" format="2">
  <advance width="578"/>
  <unicode hex="0033"/>
  <outline>
    <contour>
      <point x="265" y="-14" type="curve" smooth="yes"/>
      <point x="478" y="-14"/>
      <point x="567" y="107"/>
      <point x="567" y="216" type="curve" smooth="yes"/>
      <point x="567" y="281"/>
      <point x="535" y="341"/>
      <point x="479" y="368" type="curve"/>
      <point x="568" y="400"/>
      <point x="613" y="469"/>
      <point x="613" y="539" type="curve" smooth="yes"/>
      <point x="613" y="624"/>
      <point x="543" y="709"/>
      <point x="401" y="709" type="curve" smooth="yes"/>
      <point x="326" y="709"/>
      <point x="257" y="689"/>
      <point x="192" y="652" type="curve"/>
      <point x="230" y="540" type="line"/>
      <point x="283" y="568"/>
      <point x="335" y="583"/>
      <point x="376" y="583" type="curve" smooth="yes"/>
      <point x="428" y="583"/>
      <point x="463" y="562"/>
      <point x="463" y="515" type="curve" smooth="yes"/>
      <point x="463" y="441"/>
      <point x="389" y="423"/>
      <point x="333" y="423" type="curve" smooth="yes"/>
      <point x="261" y="423" type="line"/>
      <point x="232" y="305" type="line"/>
      <point x="296" y="305" type="line" smooth="yes"/>
      <point x="371" y="305"/>
      <point x="419" y="277"/>
      <point x="419" y="222" type="curve" smooth="yes"/>
      <point x="419" y="137"/>
      <point x="350" y="106"/>
      <point x="274" y="106" type="curve" smooth="yes"/>
      <point x="214" y="106"/>
      <point x="153" y="124"/>
      <point x="114" y="151" type="curve"/>
      <point x="60" y="33" type="line"/>
      <point x="121" y="2"/>
      <point x="189" y="-14"/>
    </contour>
  </outline>
</glyph>
<glyph name="four" format="2">
  <advance width="564"/>
  <unicode hex="0034"/>
  <outline>
    <contour>
      <point x="265" y="0" type="line"/>
      <point x="407" y="0" type="line"/>
      <point x="445" y="155" type="line"/>
      <point x="519" y="155" type="line"/>
      <point x="548" y="275" type="line"/>
      <point x="475" y="275" type="line"/>
      <point x="576" y="693" type="line"/>
      <point x="434" y="693" type="line"/>
      <point x="285" y="573"/>
      <point x="115" y="382"/>
      <point x="30" y="265" type="curve"/>
      <point x="5" y="155" type="line"/>
      <point x="302" y="155" type="line"/>
    </contour>
    <contour>
      <point x="173" y="275" type="line"/>
      <point x="237" y="358"/>
      <point x="324" y="451"/>
      <point x="393" y="517" type="curve"/>
      <point x="335" y="275" type="line"/>
    </contour>
  </outline>
</glyph>
<glyph name="five" format="2">
  <advance width="578"/>
  <unicode hex="0035"/>
  <outline>
    <contour>
      <point x="278" y="-14" type="curve" smooth="yes"/>
      <point x="471" y="-14"/>
      <point x="571" y="83"/>
      <point x="571" y="233" type="curve" smooth="yes"/>
      <point x="571" y="337"/>
      <point x="498" y="422"/>
      <point x="339" y="435" type="curve"/>
      <point x="351" y="468"/>
      <point x="368" y="521"/>
      <point x="381" y="569" type="curve"/>
      <point x="628" y="569" type="line"/>
      <point x="658" y="693" type="line"/>
      <point x="288" y="693" type="line"/>
      <point x="257" y="581"/>
      <point x="216" y="451"/>
      <point x="172" y="327" type="curve"/>
      <point x="360" y="327"/>
      <point x="423" y="286"/>
      <point x="423" y="222" type="curve" smooth="yes"/>
      <point x="423" y="146"/>
      <point x="371" y="111"/>
      <point x="275" y="111" type="curve" smooth="yes"/>
      <point x="226" y="111"/>
      <point x="170" y="126"/>
      <point x="123" y="154" type="curve"/>
      <point x="68" y="33" type="line"/>
      <point x="129" y="1"/>
      <point x="221" y="-14"/>
    </contour>
  </outline>
</glyph>
<glyph name="six" format="2">
  <advance width="578"/>
  <unicode hex="0036"/>
  <outline>
    <contour>
      <point x="330" y="-14" type="curve" smooth="yes"/>
      <point x="472" y="-14"/>
      <point x="593" y="81"/>
      <point x="593" y="253" type="curve" smooth="yes"/>
      <point x="593" y="377"/>
      <point x="513" y="439"/>
      <point x="414" y="439" type="curve" smooth="yes"/>
      <point x="374" y="439"/>
      <point x="324" y="431"/>
      <point x="289" y="412" type="curve"/>
      <point x="348" y="549"/>
      <point x="471" y="576"/>
      <point x="636" y="581" type="curve"/>
      <point x="654" y="699" type="line"/>
      <point x="349" y="719"/>
      <point x="110" y="533"/>
      <point x="110" y="230" type="curve" smooth="yes"/>
      <point x="110" y="71"/>
      <point x="206" y="-14"/>
    </contour>
    <contour>
      <point x="342" y="110" type="curve" smooth="yes"/>
      <point x="281" y="110"/>
      <point x="252" y="163"/>
      <point x="252" y="227" type="curve" smooth="yes"/>
      <point x="252" y="254"/>
      <point x="256" y="280"/>
      <point x="265" y="305" type="curve"/>
      <point x="294" y="317"/>
      <point x="330" y="327"/>
      <point x="363" y="327" type="curve" smooth="yes"/>
      <point x="411" y="327"/>
      <point x="451" y="307"/>
      <point x="451" y="243" type="curve" smooth="yes"/>
      <point x="451" y="159"/>
      <point x="406" y="110"/>
    </contour>
  </outline>
</glyph>
<glyph name="seven" format="2">
  <advance width="578"/>
  <unicode hex="0037"/>
  <outline>
    <contour>
      <point x="140" y="0" type="curve"/>
      <point x="291" y="0" type="line"/>
      <point x="357" y="246"/>
      <point x="556" y="500"/>
      <point x="657" y="585" type="curve"/>
      <point x="683" y="693" type="line"/>
      <point x="198" y="693" type="line"/>
      <point x="167" y="567" type="line"/>
      <point x="468" y="567" type="line"/>
      <point x="343" y="436"/>
      <point x="191" y="197"/>
    </contour>
  </outline>
</glyph>
<glyph name="eight" format="2">
  <advance width="564"/>
  <unicode hex="0038"/>
  <outline>
    <contour>
      <point x="244" y="-14" type="curve" smooth="yes"/>
      <point x="416" y="-14"/>
      <point x="510" y="83"/>
      <point x="510" y="203" type="curve" smooth="yes"/>
      <point x="510" y="278"/>
      <point x="473" y="319"/>
      <point x="428" y="351" type="curve"/>
      <point x="548" y="410"/>
      <point x="568" y="485"/>
      <point x="568" y="543" type="curve" smooth="yes"/>
      <point x="568" y="643"/>
      <point x="484" y="709"/>
      <point x="372" y="709" type="curve" smooth="yes"/>
      <point x="204" y="709"/>
      <point x="127" y="597"/>
      <point x="127" y="492" type="curve" smooth="yes"/>
      <point x="127" y="436"/>
      <point x="152" y="399"/>
      <point x="184" y="368" type="curve"/>
      <point x="75" y="301"/>
      <point x="31" y="238"/>
      <point x="31" y="157" type="curve" smooth="yes"/>
      <point x="31" y="29"/>
      <point x="145" y="-14"/>
    </contour>
    <contour>
      <point x="258" y="105" type="curve" smooth="yes"/>
      <point x="211" y="105"/>
      <point x="174" y="128"/>
      <point x="174" y="175" type="curve" smooth="yes"/>
      <point x="174" y="218"/>
      <point x="192" y="267"/>
      <point x="275" y="307" type="curve"/>
      <point x="326" y="280"/>
      <point x="366" y="252"/>
      <point x="366" y="199" type="curve" smooth="yes"/>
      <point x="366" y="140"/>
      <point x="314" y="105"/>
    </contour>
    <contour>
      <point x="332" y="408" type="curve"/>
      <point x="295" y="431"/>
      <point x="264" y="458"/>
      <point x="264" y="501" type="curve" smooth="yes"/>
      <point x="264" y="550"/>
      <point x="299" y="590"/>
      <point x="354" y="590" type="curve" smooth="yes"/>
      <point x="401" y="590"/>
      <point x="429" y="565"/>
      <point x="429" y="522" type="curve" smooth="yes"/>
      <point x="429" y="485"/>
      <point x="409" y="444"/>
    </contour>
  </outline>
</glyph>
<glyph name="nine" format="2">
  <advance width="564"/>
  <unicode hex="0039"/>
  <outline>
    <contour>
      <point x="55" y="-4" type="curve" smooth="yes"/>
      <point x="402" y="-4"/>
      <point x="559" y="231"/>
      <point x="559" y="466" type="curve" smooth="yes"/>
      <point x="559" y="625"/>
      <point x="463" y="710"/>
      <point x="339" y="710" type="curve" smooth="yes"/>
      <point x="197" y="710"/>
      <point x="76" y="615"/>
      <point x="76" y="443" type="curve" smooth="yes"/>
      <point x="76" y="319"/>
      <point x="156" y="257"/>
      <point x="255" y="257" type="curve" smooth="yes"/>
      <point x="295" y="257"/>
      <point x="345" y="265"/>
      <point x="380" y="284" type="curve"/>
      <point x="322" y="149"/>
      <point x="198" y="118"/>
      <point x="33" y="115" type="curve"/>
      <point x="15" y="-3" type="line"/>
      <point x="30" y="-4"/>
      <point x="44" y="-4"/>
    </contour>
    <contour>
      <point x="306" y="369" type="curve" smooth="yes"/>
      <point x="258" y="369"/>
      <point x="218" y="389"/>
      <point x="218" y="453" type="curve" smooth="yes"/>
      <point x="218" y="537"/>
      <point x="263" y="586"/>
      <point x="327" y="586" type="curve" smooth="yes"/>
      <point x="388" y="586"/>
      <point x="417" y="533"/>
      <point x="417" y="469" type="curve" smooth="yes"/>
      <point x="417" y="442"/>
      <point x="413" y="416"/>
      <point x="404" y="391" type="curve"/>
      <point x="375" y="379"/>
      <point x="339" y="369"/>
    </contour>
  </outline>
</glyph>
<glyph name="less" format="2">
  <advance width="578"/>
  <unicode hex="003C"/>
  <outline>
    <contour>
      <point x="485" y="56" type="line"/>
      <point x="548" y="167" type="line"/>
      <point x="264" y="298" type="line"/>
      <point x="610" y="418" type="line"/>
      <point x="600" y="542" type="line"/>
      <point x="126" y="361" type="line"/>
      <point x="99" y="244" type="line"/>
    </contour>
  </outline>
</glyph>
<glyph name="equal" format="2">
  <advance width="578"/>
  <unicode hex="003D"/>
  <outline>
    <contour>
      <point x="132" y="345" type="line"/>
      <point x="602" y="345" type="line"/>
      <point x="632" y="470" type="line"/>
      <point x="162" y="470" type="line"/>
    </contour>
    <contour>
      <point x="79" y="126" type="line"/>
      <point x="549" y="126" type="line"/>
      <point x="579" y="251" type="line"/>
      <point x="109" y="251" type="line"/>
    </contour>
  </outline>
</glyph>
<glyph name="greater" format="2">
  <advance width="578"/>
  <unicode hex="003E"/>
  <outline>
    <contour>
      <point x="83" y="56" type="line"/>
      <point x="557" y="237" type="line"/>
      <point x="584" y="354" type="line"/>
      <point x="198" y="542" type="line"/>
      <point x="135" y="432" type="line"/>
      <point x="419" y="301" type="line"/>
      <point x="73" y="181" type="line"/>
    </contour>
  </outline>
</glyph>
<glyph name="question" format="2">
  <advance width="440"/>
  <unicode hex="003F"/>
  <outline>
    <contour>
      <point x="176" y="221" type="curve"/>
      <point x="308" y="221" type="line"/>
      <point x="312" y="270"/>
      <point x="356" y="306"/>
      <point x="407" y="345" type="curve" smooth="yes"/>
      <point x="476" y="398"/>
      <point x="555" y="448"/>
      <point x="555" y="563" type="curve" smooth="yes"/>
      <point x="555" y="660"/>
      <point x="469" y="709"/>
      <point x="373" y="709" type="curve" smooth="yes"/>
      <point x="305" y="709"/>
      <point x="234" y="689"/>
      <point x="182" y="660" type="curve"/>
      <point x="201" y="543" type="line"/>
      <point x="236" y="562"/>
      <point x="295" y="583"/>
      <point x="344" y="583" type="curve" smooth="yes"/>
      <point x="381" y="583"/>
      <point x="409" y="568"/>
      <point x="409" y="533" type="curve" smooth="yes"/>
      <point x="409" y="495"/>
      <point x="376" y="468"/>
      <point x="297" y="407" type="curve" smooth="yes"/>
      <point x="231" y="356"/>
      <point x="176" y="304"/>
    </contour>
    <contour>
      <point x="210" y="-13" type="curve" smooth="yes"/>
      <point x="261" y="-13"/>
      <point x="310" y="29"/>
      <point x="310" y="90" type="curve" smooth="yes"/>
      <point x="310" y="145"/>
      <point x="275" y="171"/>
      <point x="228" y="171" type="curve" smooth="yes"/>
      <point x="177" y="171"/>
      <point x="128" y="129"/>
      <point x="128" y="68" type="curve" smooth="yes"/>
      <point x="128" y="13"/>
      <point x="163" y="-13"/>
    </contour>
  </outline>
</glyph>
<glyph name="at" format="2">
  <advance width="951"/>
  <unicode hex="0040"/>
  <outline>
    <contour>
      <point x="423" y="-164" type="curve" smooth="yes"/>
      <point x="474" y="-164"/>
      <point x="536" y="-157"/>
      <point x="592" y="-146" type="curve"/>
      <point x="598" y="-47" type="line"/>
      <point x="550" y="-56"/>
      <point x="488" y="-64"/>
      <point x="441" y="-64" type="curve" smooth="yes"/>
      <point x="290" y="-64"/>
      <point x="162" y="-7"/>
      <point x="162" y="181" type="curve" smooth="yes"/>
      <point x="162" y="473"/>
      <point x="367" y="619"/>
      <point x="560" y="619" type="curve" smooth="yes"/>
      <point x="698" y="619"/>
      <point x="809" y="550"/>
      <point x="809" y="381" type="curve" smooth="yes"/>
      <point x="809" y="242"/>
      <point x="758" y="138"/>
      <point x="689" y="138" type="curve" smooth="yes"/>
      <point x="666" y="138"/>
      <point x="650" y="147"/>
      <point x="650" y="170" type="curve" smooth="yes"/>
      <point x="650" y="175"/>
      <point x="649" y="180"/>
      <point x="652" y="187" type="curve"/>
      <point x="723" y="483" type="line"/>
      <point x="687" y="498"/>
      <point x="637" y="515"/>
      <point x="558" y="515" type="curve" smooth="yes"/>
      <point x="351" y="515"/>
      <point x="245" y="349"/>
      <point x="245" y="217" type="curve" smooth="yes"/>
      <point x="245" y="104"/>
      <point x="307" y="28"/>
      <point x="412" y="28" type="curve" smooth="yes"/>
      <point x="463" y="28"/>
      <point x="505" y="40"/>
      <point x="552" y="67" type="curve"/>
      <point x="572" y="42"/>
      <point x="604" y="28"/>
      <point x="639" y="28" type="curve" smooth="yes"/>
      <point x="837" y="28"/>
      <point x="924" y="214"/>
      <point x="924" y="393" type="curve" smooth="yes"/>
      <point x="924" y="616"/>
      <point x="757" y="718"/>
      <point x="574" y="718" type="curve" smooth="yes"/>
      <point x="303" y="718"/>
      <point x="45" y="526"/>
      <point x="45" y="178" type="curve" smooth="yes"/>
      <point x="45" y="-31"/>
      <point x="188" y="-164"/>
    </contour>
    <contour>
      <point x="447" y="137" type="curve" smooth="yes"/>
      <point x="396" y="137"/>
      <point x="377" y="169"/>
      <point x="377" y="229" type="curve" smooth="yes"/>
      <point x="377" y="307"/>
      <point x="425" y="409"/>
      <point x="533" y="409" type="curve" smooth="yes"/>
      <point x="548" y="409"/>
      <point x="561" y="408"/>
      <point x="574" y="405" type="curve"/>
      <point x="525" y="199" type="line" smooth="yes"/>
      <point x="521" y="180"/>
      <point x="518" y="168"/>
      <point x="517" y="157" type="curve"/>
      <point x="491" y="144"/>
      <point x="468" y="137"/>
    </contour>
  </outline>
</glyph>
<glyph name="A" format="2">
  <advance width="724"/>
  <unicode hex="0041"/>
  <outline>
    <contour>
      <point x="20" y="0" type="curve"/>
      <point x="183" y="0" type="line"/>
      <point x="210" y="52"/>
      <point x="240" y="102"/>
      <point x="267" y="151" type="curve"/>
      <point x="527" y="151" type="line"/>
      <point x="531" y="102"/>
      <point x="534" y="52"/>
      <point x="537" y="0" type="curve"/>
      <point x="694" y="0" type="line"/>
      <point x="670" y="214"/>
      <point x="637" y="500"/>
      <point x="594" y="693" type="curve"/>
      <point x="455" y="693" type="line"/>
      <point x="316" y="501"/>
      <point x="193" y="298"/>
    </contour>
    <contour>
      <point x="330" y="273" type="line"/>
      <point x="381" y="364"/>
      <point x="435" y="452"/>
      <point x="491" y="541" type="curve"/>
      <point x="504" y="449"/>
      <point x="510" y="354"/>
      <point x="517" y="273" type="curve"/>
    </contour>
  </outline>
</glyph>
<glyph name="B" format="2">
  <advance width="668"/>
  <unicode hex="0042"/>
  <outline>
    <contour>
      <point x="317" y="-9" type="curve" smooth="yes"/>
      <point x="573" y="-9"/>
      <point x="669" y="110"/>
      <point x="669" y="238" type="curve" smooth="yes"/>
      <point x="669" y="294"/>
      <point x="641" y="342"/>
      <point x="582" y="369" type="curve"/>
      <point x="683" y="414"/>
      <point x="703" y="486"/>
      <point x="703" y="545" type="curve" smooth="yes"/>
      <point x="703" y="630"/>
      <point x="634" y="701"/>
      <point x="474" y="701" type="curve" smooth="yes"/>
      <point x="405" y="701"/>
      <point x="316" y="697"/>
      <point x="240" y="682" type="curve"/>
      <point x="80" y="12" type="line"/>
      <point x="148" y="-3"/>
      <point x="237" y="-9"/>
    </contour>
    <contour>
      <point x="346" y="117" type="curve" smooth="yes"/>
      <point x="318" y="117"/>
      <point x="281" y="119"/>
      <point x="260" y="123" type="curve"/>
      <point x="303" y="303" type="line"/>
      <point x="411" y="303" type="line"/>
      <point x="484" y="303"/>
      <point x="512" y="262"/>
      <point x="512" y="225" type="curve" smooth="yes"/>
      <point x="512" y="137"/>
      <point x="425" y="117"/>
    </contour>
    <contour>
      <point x="332" y="420" type="line"/>
      <point x="368" y="572" type="line"/>
      <point x="384" y="575"/>
      <point x="421" y="577"/>
      <point x="449" y="577" type="curve" smooth="yes"/>
      <point x="500" y="577"/>
      <point x="549" y="560"/>
      <point x="549" y="508" type="curve" smooth="yes"/>
      <point x="549" y="460"/>
      <point x="510" y="420"/>
      <point x="430" y="420" type="curve" smooth="yes"/>
    </contour>
  </outline>
</glyph>
<glyph name="C" format="2">
  <advance width="648"/>
  <unicode hex="0043"/>
  <anchor x="361" y="0" name="bottom"/>
  <anchor x="541" y="687" name="top"/>
  <outline>
    <contour>
      <point x="406" y="-14" type="curve" smooth="yes"/>
      <point x="502" y="-14"/>
      <point x="564" y="3"/>
      <point x="619" y="30" type="curve"/>
      <point x="602" y="157" type="line"/>
      <point x="555" y="136"/>
      <point x="502" y="121"/>
      <point x="438" y="121" type="curve" smooth="yes"/>
      <point x="342" y="121"/>
      <point x="289" y="173"/>
      <point x="289" y="289" type="curve" smooth="yes"/>
      <point x="289" y="444"/>
      <point x="384" y="576"/>
      <point x="536" y="576" type="curve" smooth="yes"/>
      <point x="587" y="576"/>
      <point x="626" y="567"/>
      <point x="682" y="538" type="curve"/>
      <point x="738" y="659" type="line"/>
      <point x="671" y="696"/>
      <point x="610" y="709"/>
      <point x="546" y="709" type="curve" smooth="yes"/>
      <point x="278" y="709"/>
      <point x="128" y="488"/>
      <point x="128" y="280" type="curve" smooth="yes"/>
      <point x="128" y="99"/>
      <point x="240" y="-14"/>
    </contour>
  </outline>
</glyph>
<glyph name="D" format="2">
  <advance width="731"/>
  <unicode hex="0044"/>
  <anchor x="244" y="0" name="bottom"/>
  <anchor x="327" y="347" name="center"/>
  <anchor x="412" y="687" name="top"/>
  <outline>
    <contour>
      <point x="226" y="-9" type="curve" smooth="yes"/>
      <point x="521" y="-9"/>
      <point x="702" y="155"/>
      <point x="702" y="423" type="curve" smooth="yes"/>
      <point x="702" y="588"/>
      <point x="586" y="701"/>
      <point x="388" y="701" type="curve" smooth="yes"/>
      <point x="332" y="701"/>
      <point x="260" y="696"/>
      <point x="184" y="681" type="curve"/>
      <point x="23" y="12" type="line"/>
      <point x="91" y="-3"/>
      <point x="170" y="-9"/>
    </contour>
    <contour>
      <point x="259" y="123" type="curve" smooth="yes"/>
      <point x="232" y="123"/>
      <point x="220" y="124"/>
      <point x="205" y="125" type="curve"/>
      <point x="311" y="567" type="line"/>
      <point x="332" y="569"/>
      <point x="352" y="570"/>
      <point x="372" y="570" type="curve" smooth="yes"/>
      <point x="496" y="570"/>
      <point x="542" y="508"/>
      <point x="542" y="415" type="curve" smooth="yes"/>
      <point x="542" y="233"/>
      <point x="432" y="123"/>
    </contour>
  </outline>
</glyph>
<glyph name="E" format="2">
  <advance width="604"/>
  <unicode hex="0045"/>
  <outline>
    <contour>
      <point x="80" y="0" type="line"/>
      <point x="555" y="0" type="line"/>
      <point x="587" y="129" type="line"/>
      <point x="267" y="129" type="line"/>
      <point x="307" y="299" type="line"/>
      <point x="569" y="299" type="line"/>
      <point x="600" y="425" type="line"/>
      <point x="338" y="425" type="line"/>
      <point x="370" y="565" type="line"/>
      <point x="667" y="565" type="line"/>
      <point x="699" y="693" type="line"/>
      <point x="246" y="693" type="line"/>
    </contour>
  </outline>
</glyph>
<glyph name="F" format="2">
  <advance width="585"/>
  <unicode hex="0046"/>
  <outline>
    <contour>
      <point x="80" y="0" type="line"/>
      <point x="235" y="0" type="line"/>
      <point x="304" y="287" type="line"/>
      <point x="563" y="287" type="line"/>
      <point x="594" y="416" type="line"/>
      <point x="335" y="416" type="line"/>
      <point x="370" y="564" type="line"/>
      <point x="663" y="564" type="line"/>
      <point x="695" y="693" type="line"/>
      <point x="246" y="693" type="line"/>
    </contour>
  </outline>
</glyph>
<glyph name="G" format="2">
  <advance width="698"/>
  <unicode hex="0047"/>
  <outline>
    <contour>
      <point x="413" y="-13" type="curve" smooth="yes"/>
      <point x="522" y="-13"/>
      <point x="592" y="4"/>
      <point x="629" y="19" type="curve"/>
      <point x="713" y="366" type="line"/>
      <point x="557" y="366" type="line"/>
      <point x="499" y="125" type="line"/>
      <point x="482" y="122"/>
      <point x="461" y="120"/>
      <point x="434" y="120" type="curve" smooth="yes"/>
      <point x="338" y="120"/>
      <point x="289" y="173"/>
      <point x="289" y="289" type="curve" smooth="yes"/>
      <point x="289" y="444"/>
      <point x="382" y="576"/>
      <point x="545" y="576" type="curve" smooth="yes"/>
      <point x="596" y="576"/>
      <point x="650" y="561"/>
      <point x="697" y="532" type="curve"/>
      <point x="753" y="653" type="line"/>
      <point x="696" y="690"/>
      <point x="619" y="709"/>
      <point x="555" y="709" type="curve" smooth="yes"/>
      <point x="277" y="709"/>
      <point x="128" y="488"/>
      <point x="128" y="280" type="curve" smooth="yes"/>
      <point x="128" y="99"/>
      <point x="226" y="-13"/>
    </contour>
  </outline>
</glyph>
<glyph name="H" format="2">
  <advance width="724"/>
  <unicode hex="0048"/>
  <anchor x="358" y="0" name="bottom"/>
  <anchor x="431" y="347" name="center"/>
  <anchor x="505" y="685" name="top"/>
  <anchor x="123" y="693" name="topleft"/>
  <outline>
    <contour>
      <point x="80" y="0" type="line"/>
      <point x="235" y="0" type="line"/>
      <point x="306" y="295" type="line"/>
      <point x="552" y="295" type="line"/>
      <point x="481" y="0" type="line"/>
      <point x="637" y="0" type="line"/>
      <point x="804" y="693" type="line"/>
      <point x="648" y="693" type="line"/>
      <point x="584" y="427" type="line"/>
      <point x="338" y="427" type="line"/>
      <point x="402" y="693" type="line"/>
      <point x="246" y="693" type="line"/>
    </contour>
  </outline>
</glyph>
<glyph name="I" format="2">
  <advance width="322"/>
  <unicode hex="0049"/>
  <outline>
    <contour>
      <point x="80" y="0" type="line"/>
      <point x="235" y="0" type="line"/>
      <point x="402" y="693" type="line"/>
      <point x="246" y="693" type="line"/>
    </contour>
  </outline>
</glyph>
<glyph name="J" format="2">
  <advance width="526"/>
  <unicode hex="004A"/>
  <anchor x="200" y="0" name="bottom"/>
  <anchor x="521" y="687" name="top"/>
  <outline>
    <contour>
      <point x="213" y="-14" type="curve" smooth="yes"/>
      <point x="391" y="-14"/>
      <point x="458" y="73"/>
      <point x="490" y="210" type="curve"/>
      <point x="606" y="693" type="line"/>
      <point x="450" y="693" type="line"/>
      <point x="342" y="241" type="line" smooth="yes"/>
      <point x="321" y="153"/>
      <point x="289" y="120"/>
      <point x="214" y="120" type="curve" smooth="yes"/>
      <point x="162" y="120"/>
      <point x="126" y="140"/>
      <point x="94" y="163" type="curve"/>
      <point x="25" y="47" type="line"/>
      <point x="74" y="10"/>
      <point x="141" y="-14"/>
    </contour>
  </outline>
</glyph>
<glyph name="K" format="2">
  <advance width="672"/>
  <unicode hex="004B"/>
  <anchor x="374" y="0" name="bottom"/>
  <anchor x="485" y="687" name="top"/>
  <outline>
    <contour>
      <point x="80" y="0" type="line"/>
      <point x="235" y="0" type="line"/>
      <point x="306" y="290" type="line"/>
      <point x="381" y="215"/>
      <point x="451" y="91"/>
      <point x="488" y="0" type="curve"/>
      <point x="658" y="0" type="line"/>
      <point x="597" y="153"/>
      <point x="517" y="270"/>
      <point x="433" y="362" type="curve"/>
      <point x="564" y="467"/>
      <point x="681" y="581"/>
      <point x="802" y="693" type="curve"/>
      <point x="617" y="693" type="line"/>
      <point x="537" y="614"/>
      <point x="445" y="532"/>
      <point x="341" y="443" type="curve"/>
      <point x="402" y="693" type="line"/>
      <point x="246" y="693" type="line"/>
    </contour>
  </outline>
</glyph>
<glyph name="L" format="2">
  <advance width="574"/>
  <unicode hex="004C"/>
  <outline>
    <contour>
      <point x="80" y="0" type="line"/>
      <point x="542" y="0" type="line"/>
      <point x="574" y="132" type="line"/>
      <point x="267" y="132" type="line"/>
      <point x="402" y="693" type="line"/>
      <point x="246" y="693" type="line"/>
    </contour>
  </outline>
</glyph>
<glyph name="N" format="2">
  <advance width="752"/>
  <unicode hex="004E"/>
  <anchor x="403" y="0" name="bottom"/>
  <anchor x="537" y="687" name="top"/>
  <outline>
    <contour>
      <point x="80" y="0" type="line"/>
      <point x="233" y="0" type="line"/>
      <point x="343" y="459" type="line"/>
      <point x="422" y="320"/>
      <point x="492" y="157"/>
      <point x="548" y="0" type="curve"/>
      <point x="665" y="0" type="line"/>
      <point x="832" y="693" type="line"/>
      <point x="677" y="693" type="line"/>
      <point x="578" y="276" type="line"/>
      <point x="511" y="431"/>
      <point x="426" y="600"/>
      <point x="365" y="693" type="curve"/>
      <point x="246" y="693" type="line"/>
    </contour>
  </outline>
</glyph>
<glyph name="O" format="2">
  <advance width="767"/>
  <unicode hex="004F"/>
  <anchor x="342" y="0" name="bottom"/>
  <anchor x="425" y="347" name="center"/>
  <anchor x="629" y="10" name="ogonek"/>
  <anchor x="504" y="687" name="top"/>
  <anchor x="123" y="693" name="topleft"/>
  <anchor x="850" y="693" name="topright"/>
  <outline>
    <contour>
      <point x="406" y="-14" type="curve" smooth="yes"/>
      <point x="654" y="-14"/>
      <point x="799" y="209"/>
      <point x="799" y="418" type="curve" smooth="yes"/>
      <point x="799" y="599"/>
      <point x="684" y="709"/>
      <point x="521" y="709" type="curve" smooth="yes"/>
      <point x="276" y="709"/>
      <point x="128" y="484"/>
      <point x="128" y="277" type="curve" smooth="yes"/>
      <point x="128" y="96"/>
      <point x="243" y="-14"/>
    </contour>
    <contour>
      <point x="422" y="120" type="curve" smooth="yes"/>
      <point x="327" y="120"/>
      <point x="288" y="188"/>
      <point x="288" y="288" type="curve" smooth="yes"/>
      <point x="288" y="436"/>
      <point x="382" y="575"/>
      <point x="505" y="575" type="curve" smooth="yes"/>
      <point x="600" y="575"/>
      <point x="639" y="507"/>
      <point x="639" y="407" type="curve" smooth="yes"/>
      <point x="639" y="259"/>
      <point x="545" y="120"/>
    </contour>
  </outline>
</glyph>
<glyph name="P" format="2">
  <advance width="649"/>
  <unicode hex="0050"/>
  <outline>
    <contour>
      <point x="80" y="0" type="line"/>
      <point x="235" y="0" type="line"/>
      <point x="291" y="232" type="line"/>
      <point x="330" y="232" type="line" smooth="yes"/>
      <point x="545" y="232"/>
      <point x="709" y="302"/>
      <point x="709" y="503" type="curve" smooth="yes"/>
      <point x="709" y="627"/>
      <point x="605" y="701"/>
      <point x="437" y="701" type="curve" smooth="yes"/>
      <point x="380" y="701"/>
      <point x="315" y="696"/>
      <point x="243" y="683" type="curve"/>
    </contour>
    <contour>
      <point x="323" y="363" type="line"/>
      <point x="371" y="567" type="line"/>
      <point x="387" y="568"/>
      <point x="401" y="570"/>
      <point x="424" y="570" type="curve" smooth="yes"/>
      <point x="504" y="570"/>
      <point x="549" y="547"/>
      <point x="549" y="487" type="curve" smooth="yes"/>
      <point x="549" y="396"/>
      <point x="474" y="363"/>
      <point x="362" y="363" type="curve" smooth="yes"/>
    </contour>
  </outline>
</glyph>
<glyph name="Q" format="2">
  <advance width="766"/>
  <unicode hex="0051"/>
  <outline>
    <contour>
      <point x="615" y="-187" type="curve"/>
      <point x="661" y="-79" type="line"/>
      <point x="568" y="-74"/>
      <point x="484" y="-68"/>
      <point x="484" y="-9" type="curve" smooth="yes"/>
      <point x="484" y="-8"/>
      <point x="484" y="-7"/>
      <point x="484" y="-6" type="curve"/>
      <point x="684" y="34"/>
      <point x="799" y="234"/>
      <point x="799" y="418" type="curve" smooth="yes"/>
      <point x="799" y="599"/>
      <point x="684" y="709"/>
      <point x="521" y="709" type="curve" smooth="yes"/>
      <point x="276" y="709"/>
      <point x="128" y="484"/>
      <point x="128" y="277" type="curve" smooth="yes"/>
      <point x="128" y="121"/>
      <point x="210" y="20"/>
      <point x="337" y="-7" type="curve"/>
      <point x="337" y="-9"/>
      <point x="337" y="-12"/>
      <point x="337" y="-14" type="curve" smooth="yes"/>
      <point x="337" y="-118"/>
      <point x="405" y="-179"/>
    </contour>
    <contour>
      <point x="422" y="120" type="curve" smooth="yes"/>
      <point x="327" y="120"/>
      <point x="288" y="188"/>
      <point x="288" y="288" type="curve" smooth="yes"/>
      <point x="288" y="436"/>
      <point x="382" y="575"/>
      <point x="505" y="575" type="curve" smooth="yes"/>
      <point x="600" y="575"/>
      <point x="639" y="507"/>
      <point x="639" y="407" type="curve" smooth="yes"/>
      <point x="639" y="259"/>
      <point x="545" y="120"/>
    </contour>
  </outline>
</glyph>
<glyph name="R" format="2">
  <advance width="666"/>
  <unicode hex="0052"/>
  <outline>
    <contour>
      <point x="80" y="0" type="line"/>
      <point x="235" y="0" type="line"/>
      <point x="296" y="253" type="line"/>
      <point x="359" y="253" type="line"/>
      <point x="364" y="253"/>
      <point x="369" y="253"/>
      <point x="374" y="253" type="curve"/>
      <point x="412" y="188"/>
      <point x="443" y="91"/>
      <point x="473" y="0" type="curve"/>
      <point x="640" y="0" type="line"/>
      <point x="605" y="108"/>
      <point x="564" y="212"/>
      <point x="527" y="281" type="curve"/>
      <point x="671" y="326"/>
      <point x="706" y="415"/>
      <point x="706" y="502" type="curve" smooth="yes"/>
      <point x="706" y="610"/>
      <point x="621" y="701"/>
      <point x="441" y="701" type="curve" smooth="yes"/>
      <point x="386" y="701"/>
      <point x="315" y="696"/>
      <point x="243" y="683" type="curve"/>
    </contour>
    <contour>
      <point x="326" y="376" type="line"/>
      <point x="371" y="566" type="line"/>
      <point x="387" y="567"/>
      <point x="413" y="569"/>
      <point x="436" y="569" type="curve" smooth="yes"/>
      <point x="527" y="569"/>
      <point x="550" y="528"/>
      <point x="550" y="483" type="curve" smooth="yes"/>
      <point x="550" y="429"/>
      <point x="508" y="376"/>
      <point x="379" y="376" type="curve" smooth="yes"/>
    </contour>
  </outline>
</glyph>
<glyph name="T" format="2">
  <advance width="604"/>
  <unicode hex="0054"/>
  <anchor x="299" y="0" name="bottom"/>
  <anchor x="322" y="347" name="center"/>
  <anchor x="441" y="687" name="top"/>
  <outline>
    <contour>
      <point x="218" y="0" type="line"/>
      <point x="374" y="0" type="line"/>
      <point x="509" y="562" type="line"/>
      <point x="712" y="562" type="line"/>
      <point x="744" y="693" type="line"/>
      <point x="182" y="693" type="line"/>
      <point x="150" y="562" type="line"/>
      <point x="353" y="562" type="line"/>
    </contour>
  </outline>
</glyph>
<glyph name="U" format="2">
  <advance width="693"/>
  <unicode hex="0055"/>
  <anchor x="292" y="0" name="bottom"/>
  <anchor x="503" y="10" name="ogonek"/>
  <anchor x="428" y="687" name="top"/>
  <anchor x="716" y="693" name="topright"/>
  <outline>
    <contour>
      <point x="300" y="-14" type="curve" smooth="yes"/>
      <point x="468" y="-14"/>
      <point x="568" y="64"/>
      <point x="613" y="252" type="curve" smooth="yes"/>
      <point x="718" y="693" type="line"/>
      <point x="562" y="693" type="line"/>
      <point x="460" y="265" type="line"/>
      <point x="437" y="173"/>
      <point x="401" y="121"/>
      <point x="321" y="121" type="curve" smooth="yes"/>
      <point x="243" y="121"/>
      <point x="221" y="158"/>
      <point x="221" y="210" type="curve" smooth="yes"/>
      <point x="221" y="233"/>
      <point x="224" y="258"/>
      <point x="231" y="283" type="curve"/>
      <point x="329" y="693" type="line"/>
      <point x="173" y="693" type="line"/>
      <point x="80" y="305" type="line" smooth="yes"/>
      <point x="71" y="266"/>
      <point x="65" y="229"/>
      <point x="65" y="194" type="curve" smooth="yes"/>
      <point x="65" y="73"/>
      <point x="128" y="-14"/>
    </contour>
  </outline>
</glyph>
<glyph name="V" format="2">
  <advance width="698"/>
  <unicode hex="0056"/>
  <outline>
    <contour>
      <point x="273" y="0" type="curve"/>
      <point x="419" y="0" type="line"/>
      <point x="587" y="245"/>
      <point x="726" y="501"/>
      <point x="828" y="693" type="curve"/>
      <point x="662" y="693" type="line"/>
      <point x="582" y="525"/>
      <point x="468" y="322"/>
      <point x="386" y="184" type="curve"/>
      <point x="367" y="337"/>
      <point x="350" y="540"/>
      <point x="342" y="693" type="curve"/>
      <point x="175" y="693" type="line"/>
      <point x="194" y="494"/>
      <point x="230" y="227"/>
    </contour>
  </outline>
</glyph>
<glyph name="W" format="2">
  <advance width="946"/>
  <unicode hex="0057"/>
  <outline>
    <contour>
      <point x="180" y="0" type="curve"/>
      <point x="326" y="0" type="line"/>
      <point x="409" y="131"/>
      <point x="481" y="267"/>
      <point x="557" y="408" type="curve"/>
      <point x="568" y="264"/>
      <point x="581" y="147"/>
      <point x="602" y="0" type="curve"/>
      <point x="748" y="0" type="line"/>
      <point x="871" y="212"/>
      <point x="977" y="441"/>
      <point x="1081" y="693" type="curve"/>
      <point x="916" y="693" type="line"/>
      <point x="852" y="527"/>
      <point x="774" y="342"/>
      <point x="705" y="206" type="curve"/>
      <point x="692" y="331"/>
      <point x="677" y="510"/>
      <point x="672" y="619" type="curve"/>
      <point x="544" y="619" type="line"/>
      <point x="493" y="509"/>
      <point x="395" y="336"/>
      <point x="321" y="206" type="curve"/>
      <point x="315" y="307"/>
      <point x="322" y="509"/>
      <point x="333" y="693" type="curve"/>
      <point x="176" y="693" type="line"/>
      <point x="162" y="468"/>
      <point x="160" y="225"/>
    </contour>
  </outline>
</glyph>
<glyph name="X" format="2">
  <advance width="679"/>
  <unicode hex="0058"/>
  <outline>
    <contour>
      <point x="20" y="0" type="line"/>
      <point x="198" y="0" type="line"/>
      <point x="399" y="245" type="line"/>
      <point x="434" y="171"/>
      <point x="455" y="114"/>
      <point x="492" y="0" type="curve"/>
      <point x="659" y="0" type="line"/>
      <point x="614" y="139"/>
      <point x="574" y="233"/>
      <point x="518" y="358" type="curve"/>
      <point x="607" y="457"/>
      <point x="707" y="584"/>
      <point x="784" y="693" type="curve"/>
      <point x="613" y="693" type="line"/>
      <point x="566" y="628"/>
      <point x="509" y="551"/>
      <point x="449" y="479" type="curve"/>
      <point x="366" y="693" type="line"/>
      <point x="194" y="693" type="line"/>
      <point x="335" y="377" type="line"/>
    </contour>
  </outline>
</glyph>
<glyph name="Y" format="2">
  <advance width="662"/>
  <unicode hex="0059"/>
  <outline>
    <contour>
      <point x="249" y="0" type="line"/>
      <point x="405" y="0" type="line"/>
      <point x="471" y="274" type="line"/>
      <point x="594" y="416"/>
      <point x="685" y="535"/>
      <point x="797" y="693" type="curve"/>
      <point x="625" y="693" type="line"/>
      <point x="556" y="589"/>
      <point x="496" y="507"/>
      <point x="418" y="408" type="curve"/>
      <point x="387" y="507"/>
      <point x="362" y="597"/>
      <point x="341" y="693" type="curve"/>
      <point x="175" y="693" type="line"/>
      <point x="215" y="545"/>
      <point x="259" y="415"/>
      <point x="315" y="274" type="curve"/>
    </contour>
  </outline>
</glyph>
<glyph name="Z" format="2">
  <advance width="648"/>
  <unicode hex="005A"/>
  <anchor x="301" y="0" name="bottom"/>
  <anchor x="344" y="347" name="center"/>
  <anchor x="480" y="687" name="top"/>
  <outline>
    <contour>
      <point x="50" y="0" type="line"/>
      <point x="587" y="0" type="line"/>
      <point x="619" y="131" type="line"/>
      <point x="271" y="131" type="line"/>
      <point x="405" y="292"/>
      <point x="610" y="494"/>
      <point x="717" y="585" type="curve"/>
      <point x="743" y="693" type="line"/>
      <point x="232" y="693" type="line"/>
      <point x="200" y="562" type="line"/>
      <point x="506" y="562" type="line"/>
      <point x="373" y="437"/>
      <point x="180" y="235"/>
      <point x="73" y="93" type="curve"/>
    </contour>
  </outline>
</glyph>
<glyph name="bracketleft" format="2">
  <advance width="383"/>
  <unicode hex="005B"/>
  <outline>
    <contour>
      <point x="35" y="-185" type="line"/>
      <point x="305" y="-185" type="line"/>
      <point x="334" y="-66" type="line"/>
      <point x="205" y="-66" type="line"/>
      <point x="380" y="664" type="line"/>
      <point x="509" y="664" type="line"/>
      <point x="538" y="783" type="line"/>
      <point x="267" y="783" type="line"/>
    </contour>
  </outline>
</glyph>
<glyph name="backslash" format="2">
  <advance width="416"/>
  <unicode hex="005C"/>
  <outline>
    <contour>
      <point x="258" y="-185" type="line"/>
      <point x="401" y="-185" type="line"/>
      <point x="298" y="783" type="line"/>
      <point x="155" y="783" type="line"/>
    </contour>
  </outline>
</glyph>
<glyph name="bracketright" format="2">
  <advance width="383"/>
  <unicode hex="005D"/>
  <outline>
    <contour>
      <point x="-33" y="-185" type="line"/>
      <point x="237" y="-185" type="line"/>
      <point x="470" y="783" type="line"/>
      <point x="199" y="783" type="line"/>
      <point x="170" y="664" type="line"/>
      <point x="299" y="664" type="line"/>
      <point x="124" y="-66" type="line"/>
      <point x="-4" y="-66" type="line"/>
    </contour>
  </outline>
</glyph>
<glyph name="asciicircum" format="2">
  <advance width="578"/>
  <unicode hex="005E"/>
  <outline>
    <contour>
      <point x="495" y="292" type="line"/>
      <point x="625" y="347" type="line"/>
      <point x="508" y="697" type="line"/>
      <point x="390" y="697" type="line"/>
      <point x="109" y="361" type="line"/>
      <point x="215" y="296" type="line"/>
      <point x="417" y="539" type="line"/>
    </contour>
  </outline>
</glyph>
<glyph name="underscore" format="2">
  <advance width="513"/>
  <unicode hex="005F"/>
  <outline>
    <contour>
      <point x="-25" y="-185" type="line"/>
      <point x="474" y="-185" type="line"/>
      <point x="503" y="-61" type="line"/>
      <point x="3" y="-61" type="line"/>
    </contour>
  </outline>
</glyph>
<glyph name="grave" format="2">
  <advance width="257"/>
  <unicode hex="0060"/>
  <outline>
    <contour>
      <point x="322" y="576" type="line"/>
      <point x="386" y="634" type="line"/>
      <point x="251" y="799" type="line"/>
      <point x="159" y="720" type="line"/>
    </contour>
  </outline>
</glyph>
<glyph name="a" format="2">
  <advance width="598"/>
  <unicode hex="0061"/>
  <anchor x="231" y="0" name="bottom"/>
  <anchor x="417" y="10" name="ogonek"/>
  <anchor x="357" y="526" name="top"/>
  <outline>
    <contour>
      <point x="231" y="-14" type="curve" smooth="yes"/>
      <point x="287" y="-14"/>
      <point x="332" y="8"/>
      <point x="369" y="39" type="curve"/>
      <point x="376" y="20"/>
      <point x="382" y="7"/>
      <point x="390" y="-9" type="curve"/>
      <point x="523" y="10" type="line"/>
      <point x="500" y="69"/>
      <point x="489" y="151"/>
      <point x="508" y="227" type="curve"/>
      <point x="573" y="499" type="line"/>
      <point x="496" y="536"/>
      <point x="393" y="538"/>
      <point x="368" y="538" type="curve" smooth="yes"/>
      <point x="184" y="538"/>
      <point x="45" y="389"/>
      <point x="45" y="204" type="curve" smooth="yes"/>
      <point x="45" y="85"/>
      <point x="97" y="-14"/>
    </contour>
    <contour>
      <point x="268" y="111" type="curve" smooth="yes"/>
      <point x="211" y="111"/>
      <point x="193" y="151"/>
      <point x="193" y="215" type="curve" smooth="yes"/>
      <point x="193" y="318"/>
      <point x="264" y="415"/>
      <point x="355" y="415" type="curve" smooth="yes"/>
      <point x="375" y="415"/>
      <point x="387" y="414"/>
      <point x="404" y="411" type="curve"/>
      <point x="365" y="253" type="line"/>
      <point x="358" y="222"/>
      <point x="352" y="183"/>
      <point x="349" y="150" type="curve"/>
      <point x="321" y="122"/>
      <point x="299" y="111"/>
    </contour>
  </outline>
</glyph>
<glyph name="c" format="2">
  <advance width="490"/>
  <unicode hex="0063"/>
  <anchor x="277" y="0" name="bottom"/>
  <anchor x="403" y="526" name="top"/>
  <outline>
    <contour>
      <point x="334" y="-14" type="curve" smooth="yes"/>
      <point x="397" y="-14"/>
      <point x="440" y="-1"/>
      <point x="477" y="14" type="curve"/>
      <point x="466" y="133" type="line"/>
      <point x="438" y="121"/>
      <point x="401" y="112"/>
      <point x="362" y="112" type="curve" smooth="yes"/>
      <point x="283" y="112"/>
      <point x="259" y="158"/>
      <point x="259" y="226" type="curve" smooth="yes"/>
      <point x="259" y="341"/>
      <point x="321" y="414"/>
      <point x="420" y="414" type="curve" smooth="yes"/>
      <point x="461" y="414"/>
      <point x="487" y="404"/>
      <point x="514" y="393" type="curve"/>
      <point x="565" y="509" type="line"/>
      <point x="526" y="528"/>
      <point x="480" y="540"/>
      <point x="420" y="540" type="curve" smooth="yes"/>
      <point x="227" y="540"/>
      <point x="105" y="391"/>
      <point x="105" y="210" type="curve" smooth="yes"/>
      <point x="105" y="89"/>
      <point x="170" y="-14"/>
    </contour>
  </outline>
</glyph>
<glyph name="e" format="2">
  <advance width="540"/>
  <unicode hex="0065"/>
  <outline>
    <contour>
      <point x="329" y="-14" type="curve" smooth="yes"/>
      <point x="397" y="-14"/>
      <point x="458" y="0"/>
      <point x="495" y="15" type="curve"/>
      <point x="484" y="132" type="line"/>
      <point x="445" y="117"/>
      <point x="400" y="110"/>
      <point x="357" y="110" type="curve" smooth="yes"/>
      <point x="290" y="110"/>
      <point x="261" y="132"/>
      <point x="252" y="187" type="curve"/>
      <point x="252" y="187"/>
      <point x="252" y="187"/>
      <point x="252" y="187" type="curve" smooth="yes"/>
      <point x="444" y="187"/>
      <point x="585" y="243"/>
      <point x="585" y="392" type="curve" smooth="yes"/>
      <point x="585" y="485"/>
      <point x="513" y="540"/>
      <point x="420" y="540" type="curve" smooth="yes"/>
      <point x="230" y="540"/>
      <point x="105" y="376"/>
      <point x="105" y="206" type="curve" smooth="yes"/>
      <point x="105" y="86"/>
      <point x="165" y="-14"/>
    </contour>
    <contour>
      <point x="256" y="289" type="curve"/>
      <point x="272" y="369"/>
      <point x="328" y="422"/>
      <point x="396" y="422" type="curve" smooth="yes"/>
      <point x="431" y="422"/>
      <point x="450" y="405"/>
      <point x="450" y="374" type="curve" smooth="yes"/>
      <point x="450" y="338"/>
      <point x="421" y="294"/>
    </contour>
  </outline>
</glyph>
<glyph name="f" format="2">
  <advance width="448"/>
  <unicode hex="0066"/>
  <outline>
    <contour>
      <point x="102" y="-189" type="line"/>
      <point x="166" y="-141"/>
      <point x="219" y="-42"/>
      <point x="264" y="149" type="curve" smooth="yes"/>
      <point x="325" y="404" type="line"/>
      <point x="500" y="404" type="line"/>
      <point x="530" y="526" type="line"/>
      <point x="354" y="526" type="line"/>
      <point x="360" y="552" type="line" smooth="yes"/>
      <point x="373" y="608"/>
      <point x="405" y="650"/>
      <point x="478" y="650" type="curve" smooth="yes"/>
      <point x="505" y="650"/>
      <point x="539" y="644"/>
      <point x="563" y="632" type="curve"/>
      <point x="613" y="749" type="line"/>
      <point x="590" y="760"/>
      <point x="543" y="776"/>
      <point x="484" y="776" type="curve" smooth="yes"/>
      <point x="327" y="776"/>
      <point x="244" y="694"/>
      <point x="211" y="554" type="curve" smooth="yes"/>
      <point x="107" y="118" type="line"/>
      <point x="86" y="24"/>
      <point x="39" y="-106"/>
      <point x="-31" y="-170" type="curve"/>
    </contour>
  </outline>
</glyph>
<glyph name="g" format="2">
  <advance width="594"/>
  <unicode hex="0067"/>
  <anchor x="181" y="-185" name="bottom"/>
  <anchor x="353" y="526" name="top"/>
  <outline>
    <contour>
      <point x="162" y="-188" type="curve" smooth="yes"/>
      <point x="344" y="-188"/>
      <point x="429" y="-106"/>
      <point x="469" y="66" type="curve"/>
      <point x="572" y="499" type="line"/>
      <point x="512" y="527"/>
      <point x="449" y="540"/>
      <point x="385" y="540" type="curve" smooth="yes"/>
      <point x="210" y="540"/>
      <point x="49" y="433"/>
      <point x="49" y="229" type="curve" smooth="yes"/>
      <point x="49" y="117"/>
      <point x="103" y="35"/>
      <point x="228" y="35" type="curve" smooth="yes"/>
      <point x="261" y="35"/>
      <point x="291" y="44"/>
      <point x="318" y="57" type="curve"/>
      <point x="314" y="38" type="line" smooth="yes"/>
      <point x="301" y="-22"/>
      <point x="260" y="-64"/>
      <point x="175" y="-64" type="curve" smooth="yes"/>
      <point x="110" y="-64"/>
      <point x="69" y="-49"/>
      <point x="28" y="-30" type="curve"/>
      <point x="-22" y="-148" type="line"/>
      <point x="25" y="-171"/>
      <point x="78" y="-188"/>
    </contour>
    <contour>
      <point x="268" y="154" type="curve" smooth="yes"/>
      <point x="211" y="154"/>
      <point x="197" y="193"/>
      <point x="197" y="240" type="curve" smooth="yes"/>
      <point x="197" y="340"/>
      <point x="261" y="415"/>
      <point x="361" y="415" type="curve" smooth="yes"/>
      <point x="376" y="415"/>
      <point x="390" y="414"/>
      <point x="403" y="411" type="curve"/>
      <point x="348" y="182" type="line"/>
      <point x="323" y="158"/>
      <point x="287" y="154"/>
    </contour>
  </outline>
</glyph>
<glyph name="h" format="2">
  <advance width="575"/>
  <unicode hex="0068"/>
  <outline>
    <contour>
      <point x="75" y="0" type="line"/>
      <point x="224" y="0" type="line"/>
      <point x="321" y="406" type="line"/>
      <point x="340" y="410"/>
      <point x="359" y="413"/>
      <point x="380" y="413" type="curve" smooth="yes"/>
      <point x="431" y="413"/>
      <point x="445" y="385"/>
      <point x="445" y="350" type="curve" smooth="yes"/>
      <point x="445" y="327"/>
      <point x="439" y="301"/>
      <point x="434" y="278" type="curve" smooth="yes"/>
      <point x="368" y="0" type="line"/>
      <point x="517" y="0" type="line"/>
      <point x="585" y="284" type="line" smooth="yes"/>
      <point x="592" y="313"/>
      <point x="595" y="340"/>
      <point x="595" y="367" type="curve" smooth="yes"/>
      <point x="595" y="464"/>
      <point x="544" y="535"/>
      <point x="430" y="535" type="curve" smooth="yes"/>
      <point x="403" y="535"/>
      <point x="376" y="530"/>
      <point x="349" y="525" type="curve"/>
      <point x="410" y="776" type="line"/>
      <point x="255" y="752" type="line"/>
    </contour>
  </outline>
</glyph>
<glyph name="i" format="2">
  <advance width="293"/>
  <unicode hex="0069"/>
  <outline>
    <contour>
      <point x="75" y="0" type="line"/>
      <point x="223" y="0" type="line"/>
      <point x="349" y="526" type="line"/>
      <point x="200" y="526" type="line"/>
    </contour>
    <contour>
      <point x="295" y="590" type="curve" smooth="yes"/>
      <point x="350" y="590"/>
      <point x="398" y="635"/>
      <point x="398" y="691" type="curve" smooth="yes"/>
      <point x="398" y="742"/>
      <point x="358" y="766"/>
      <point x="317" y="766" type="curve" smooth="yes"/>
      <point x="262" y="766"/>
      <point x="214" y="721"/>
      <point x="214" y="665" type="curve" smooth="yes"/>
      <point x="214" y="614"/>
      <point x="254" y="590"/>
    </contour>
  </outline>
</glyph>
<glyph name="j" format="2">
  <advance width="300"/>
  <unicode hex="006A"/>
  <outline>
    <contour>
      <point x="20" y="-185" type="curve" smooth="yes"/>
      <point x="145" y="-185"/>
      <point x="208" y="-119"/>
      <point x="240" y="19" type="curve"/>
      <point x="362" y="526" type="line"/>
      <point x="213" y="526" type="line"/>
      <point x="92" y="23" type="line"/>
      <point x="81" y="-30"/>
      <point x="58" y="-59"/>
      <point x="11" y="-59" type="curve" smooth="yes"/>
      <point x="-12" y="-59"/>
      <point x="-28" y="-55"/>
      <point x="-47" y="-48" type="curve"/>
      <point x="-85" y="-166" type="line"/>
      <point x="-56" y="-177"/>
      <point x="-17" y="-185"/>
    </contour>
    <contour>
      <point x="308" y="590" type="curve" smooth="yes"/>
      <point x="363" y="590"/>
      <point x="411" y="635"/>
      <point x="411" y="691" type="curve" smooth="yes"/>
      <point x="411" y="742"/>
      <point x="371" y="766"/>
      <point x="330" y="766" type="curve" smooth="yes"/>
      <point x="275" y="766"/>
      <point x="227" y="721"/>
      <point x="227" y="665" type="curve" smooth="yes"/>
      <point x="227" y="614"/>
      <point x="267" y="590"/>
    </contour>
  </outline>
</glyph>
<glyph name="k" format="2">
  <advance width="571"/>
  <unicode hex="006B"/>
  <outline>
    <contour>
      <point x="75" y="0" type="line"/>
      <point x="223" y="0" type="line"/>
      <point x="279" y="230" type="line"/>
      <point x="327" y="169"/>
      <point x="378" y="70"/>
      <point x="402" y="0" type="curve"/>
      <point x="568" y="0" type="line"/>
      <point x="539" y="90"/>
      <point x="477" y="209"/>
      <point x="421" y="278" type="curve"/>
      <point x="525" y="367"/>
      <point x="601" y="443"/>
      <point x="676" y="526" type="curve"/>
      <point x="508" y="526" type="line"/>
      <point x="457" y="470"/>
      <point x="383" y="400"/>
      <point x="304" y="336" type="curve"/>
      <point x="410" y="776" type="line"/>
      <point x="255" y="752" type="line"/>
    </contour>
  </outline>
</glyph>
<glyph name="l" format="2">
  <advance width="325"/>
  <unicode hex="006C"/>
  <outline>
    <contour>
      <point x="293" y="-10" type="curve"/>
      <point x="323" y="113" type="line"/>
      <point x="254" y="118"/>
      <point x="250" y="152"/>
      <point x="261" y="200" type="curve" smooth="yes"/>
      <point x="400" y="776" type="line"/>
      <point x="245" y="752" type="line"/>
      <point x="118" y="221" type="line" smooth="yes"/>
      <point x="89" y="97"/>
      <point x="103" y="-10"/>
    </contour>
  </outline>
</glyph>
<glyph name="m" format="2">
  <advance width="846"/>
  <unicode hex="006D"/>
  <outline>
    <contour>
      <point x="70" y="0" type="line"/>
      <point x="219" y="0" type="line"/>
      <point x="316" y="407" type="line"/>
      <point x="336" y="411"/>
      <point x="348" y="413"/>
      <point x="369" y="413" type="curve" smooth="yes"/>
      <point x="420" y="413"/>
      <point x="433" y="381"/>
      <point x="433" y="344" type="curve" smooth="yes"/>
      <point x="433" y="321"/>
      <point x="427" y="297"/>
      <point x="423" y="278" type="curve" smooth="yes"/>
      <point x="357" y="0" type="line"/>
      <point x="506" y="0" type="line"/>
      <point x="574" y="284" type="line" smooth="yes"/>
      <point x="581" y="311"/>
      <point x="584" y="338"/>
      <point x="584" y="362" type="curve" smooth="yes"/>
      <point x="584" y="370"/>
      <point x="585" y="379"/>
      <point x="582" y="390" type="curve"/>
      <point x="602" y="401"/>
      <point x="628" y="413"/>
      <point x="656" y="413" type="curve" smooth="yes"/>
      <point x="707" y="413"/>
      <point x="720" y="381"/>
      <point x="720" y="344" type="curve" smooth="yes"/>
      <point x="720" y="321"/>
      <point x="714" y="297"/>
      <point x="710" y="278" type="curve" smooth="yes"/>
      <point x="644" y="0" type="line"/>
      <point x="793" y="0" type="line"/>
      <point x="861" y="284" type="line" smooth="yes"/>
      <point x="868" y="311"/>
      <point x="871" y="338"/>
      <point x="871" y="362" type="curve" smooth="yes"/>
      <point x="871" y="467"/>
      <point x="818" y="538"/>
      <point x="693" y="538" type="curve" smooth="yes"/>
      <point x="628" y="538"/>
      <point x="583" y="518"/>
      <point x="534" y="490" type="curve"/>
      <point x="499" y="522"/>
      <point x="460" y="538"/>
      <point x="397" y="538" type="curve" smooth="yes"/>
      <point x="291" y="538"/>
      <point x="237" y="516"/>
      <point x="191" y="502" type="curve"/>
    </contour>
  </outline>
</glyph>
<glyph name="n" format="2">
  <advance width="577"/>
  <unicode hex="006E"/>
  <anchor x="299" y="0" name="bottom"/>
  <anchor x="398" y="526" name="top"/>
  <outline>
    <contour>
      <point x="75" y="0" type="line"/>
      <point x="224" y="0" type="line"/>
      <point x="321" y="407" type="line"/>
      <point x="341" y="411"/>
      <point x="361" y="413"/>
      <point x="380" y="413" type="curve" smooth="yes"/>
      <point x="460" y="413"/>
      <point x="450" y="347"/>
      <point x="434" y="278" type="curve" smooth="yes"/>
      <point x="368" y="0" type="line"/>
      <point x="517" y="0" type="line"/>
      <point x="585" y="284" type="line"/>
      <point x="624" y="441"/>
      <point x="564" y="538"/>
      <point x="408" y="538" type="curve" smooth="yes"/>
      <point x="302" y="538"/>
      <point x="242" y="516"/>
      <point x="196" y="502" type="curve"/>
    </contour>
  </outline>
</glyph>
<glyph name="o" format="2">
  <advance width="584"/>
  <unicode hex="006F"/>
  <anchor x="289" y="0" name="bottom"/>
  <anchor x="352" y="263" name="center"/>
  <anchor x="465" y="10" name="ogonek"/>
  <anchor x="415" y="526" name="top"/>
  <anchor x="627" y="526" name="topright"/>
  <outline>
    <contour>
      <point x="313" y="-14" type="curve" smooth="yes"/>
      <point x="508" y="-14"/>
      <point x="609" y="164"/>
      <point x="609" y="323" type="curve" smooth="yes"/>
      <point x="609" y="450"/>
      <point x="541" y="540"/>
      <point x="401" y="540" type="curve" smooth="yes"/>
      <point x="212" y="540"/>
      <point x="105" y="362"/>
      <point x="105" y="203" type="curve" smooth="yes"/>
      <point x="105" y="76"/>
      <point x="173" y="-14"/>
    </contour>
    <contour>
      <point x="327" y="112" type="curve" smooth="yes"/>
      <point x="271" y="112"/>
      <point x="253" y="151"/>
      <point x="253" y="218" type="curve" smooth="yes"/>
      <point x="253" y="301"/>
      <point x="299" y="414"/>
      <point x="387" y="414" type="curve" smooth="yes"/>
      <point x="443" y="414"/>
      <point x="461" y="375"/>
      <point x="461" y="308" type="curve" smooth="yes"/>
      <point x="461" y="225"/>
      <point x="415" y="112"/>
    </contour>
  </outline>
</glyph>
<glyph name="p" format="2">
  <advance width="588"/>
  <unicode hex="0070"/>
  <outline>
    <contour>
      <point x="30" y="-185" type="line"/>
      <point x="178" y="-185" type="line"/>
      <point x="223" y="-4" type="line"/>
      <point x="246" y="-8"/>
      <point x="268" y="-10"/>
      <point x="291" y="-10" type="curve" smooth="yes"/>
      <point x="479" y="-10"/>
      <point x="613" y="127"/>
      <point x="613" y="321" type="curve" smooth="yes"/>
      <point x="613" y="441"/>
      <point x="548" y="538"/>
      <point x="399" y="538" type="curve" smooth="yes"/>
      <point x="319" y="538"/>
      <point x="249" y="523"/>
      <point x="196" y="507" type="curve"/>
    </contour>
    <contour>
      <point x="292" y="112" type="curve" smooth="yes"/>
      <point x="277" y="112"/>
      <point x="263" y="113"/>
      <point x="250" y="116" type="curve"/>
      <point x="320" y="407" type="line"/>
      <point x="339" y="411"/>
      <point x="359" y="413"/>
      <point x="380" y="413" type="curve" smooth="yes"/>
      <point x="443" y="413"/>
      <point x="465" y="367"/>
      <point x="465" y="310" type="curve" smooth="yes"/>
      <point x="465" y="193"/>
      <point x="396" y="112"/>
    </contour>
  </outline>
</glyph>
<glyph name="q" format="2">
  <advance width="602"/>
  <unicode hex="0071"/>
  <outline>
    <contour>
      <point x="267" y="-185" type="line"/>
      <point x="416" y="-185" type="line"/>
      <point x="579" y="499" type="line"/>
      <point x="514" y="525"/>
      <point x="450" y="538"/>
      <point x="388" y="538" type="curve" smooth="yes"/>
      <point x="197" y="538"/>
      <point x="46" y="412"/>
      <point x="46" y="204" type="curve" smooth="yes"/>
      <point x="46" y="70"/>
      <point x="122" y="-10"/>
      <point x="223" y="-10" type="curve" smooth="yes"/>
      <point x="253" y="-10"/>
      <point x="283" y="-4"/>
      <point x="313" y="9" type="curve"/>
    </contour>
    <contour>
      <point x="265" y="114" type="curve" smooth="yes"/>
      <point x="221" y="114"/>
      <point x="194" y="140"/>
      <point x="194" y="215" type="curve" smooth="yes"/>
      <point x="194" y="323"/>
      <point x="258" y="415"/>
      <point x="367" y="415" type="curve" smooth="yes"/>
      <point x="382" y="415"/>
      <point x="397" y="414"/>
      <point x="410" y="411" type="curve"/>
      <point x="344" y="139" type="line"/>
      <point x="313" y="120"/>
      <point x="290" y="114"/>
    </contour>
  </outline>
</glyph>
<glyph name="r" format="2">
  <advance width="436"/>
  <unicode hex="0072"/>
  <anchor x="155" y="0" name="bottom"/>
  <anchor x="369" y="526" name="top"/>
  <outline>
    <contour>
      <point x="75" y="0" type="line"/>
      <point x="224" y="0" type="line"/>
      <point x="321" y="404" type="line"/>
      <point x="336" y="408"/>
      <point x="361" y="412"/>
      <point x="380" y="412" type="curve" smooth="yes"/>
      <point x="431" y="412"/>
      <point x="450" y="405"/>
      <point x="477" y="398" type="curve"/>
      <point x="521" y="518" type="line"/>
      <point x="490" y="531"/>
      <point x="445" y="537"/>
      <point x="412" y="537" type="curve" smooth="yes"/>
      <point x="323" y="537"/>
      <point x="252" y="517"/>
      <point x="195" y="498" type="curve"/>
    </contour>
  </outline>
</glyph>
<glyph name="s" format="2">
  <advance width="493"/>
  <unicode hex="0073"/>
  <anchor x="272" y="0" name="bottom"/>
  <anchor x="370" y="526" name="top"/>
  <outline>
    <contour>
      <point x="247" y="-14" type="curve" smooth="yes"/>
      <point x="415" y="-14"/>
      <point x="485" y="73"/>
      <point x="485" y="158" type="curve" smooth="yes"/>
      <point x="485" y="242"/>
      <point x="452" y="272"/>
      <point x="349" y="322" type="curve"/>
      <point x="312" y="341"/>
      <point x="290" y="349"/>
      <point x="290" y="376" type="curve" smooth="yes"/>
      <point x="290" y="416"/>
      <point x="332" y="422"/>
      <point x="368" y="422" type="curve" smooth="yes"/>
      <point x="411" y="422"/>
      <point x="459" y="406"/>
      <point x="487" y="391" type="curve"/>
      <point x="538" y="502" type="line"/>
      <point x="503" y="521"/>
      <point x="445" y="540"/>
      <point x="374" y="540" type="curve" smooth="yes"/>
      <point x="223" y="540"/>
      <point x="141" y="473"/>
      <point x="141" y="365" type="curve" smooth="yes"/>
      <point x="141" y="283"/>
      <point x="195" y="247"/>
      <point x="262" y="218" type="curve" smooth="yes"/>
      <point x="320" y="192"/>
      <point x="335" y="181"/>
      <point x="335" y="152" type="curve" smooth="yes"/>
      <point x="335" y="129"/>
      <point x="314" y="106"/>
      <point x="246" y="106" type="curve" smooth="yes"/>
      <point x="178" y="106"/>
      <point x="129" y="133"/>
      <point x="106" y="146" type="curve"/>
      <point x="55" y="32" type="line"/>
      <point x="80" y="18"/>
      <point x="142" y="-14"/>
    </contour>
  </outline>
</glyph>
<glyph name="t" format="2">
  <advance width="426"/>
  <unicode hex="0074"/>
  <outline>
    <contour>
      <point x="281" y="-12" type="curve" smooth="yes"/>
      <point x="345" y="-12"/>
      <point x="389" y="0"/>
      <point x="429" y="15" type="curve"/>
      <point x="418" y="129" type="line"/>
      <point x="387" y="118"/>
      <point x="358" y="112"/>
      <point x="326" y="112" type="curve" smooth="yes"/>
      <point x="251" y="112"/>
      <point x="246" y="158"/>
      <point x="262" y="220" type="curve"/>
      <point x="306" y="404" type="line"/>
      <point x="471" y="404" type="line"/>
      <point x="501" y="526" type="line"/>
      <point x="335" y="526" type="line"/>
      <point x="373" y="681" type="line"/>
      <point x="218" y="657" type="line"/>
      <point x="120" y="243" type="line"/>
      <point x="88" y="107"/>
      <point x="98" y="-12"/>
    </contour>
  </outline>
</glyph>
<glyph name="u" format="2">
  <advance width="591"/>
  <unicode hex="0075"/>
  <anchor x="276" y="0" name="bottom"/>
  <anchor x="471" y="10" name="ogonek"/>
  <anchor x="402" y="526" name="top"/>
  <anchor x="634" y="526" name="topright"/>
  <outline>
    <contour>
      <point x="275" y="-12" type="curve" smooth="yes"/>
      <point x="332" y="-12"/>
      <point x="379" y="11"/>
      <point x="416" y="40" type="curve"/>
      <point x="423" y="21"/>
      <point x="429" y="7"/>
      <point x="437" y="-9" type="curve"/>
      <point x="570" y="10" type="line"/>
      <point x="547" y="69"/>
      <point x="536" y="151"/>
      <point x="555" y="227" type="curve"/>
      <point x="626" y="526" type="line"/>
      <point x="477" y="526" type="line"/>
      <point x="412" y="253" type="line" smooth="yes"/>
      <point x="405" y="222"/>
      <point x="399" y="183"/>
      <point x="396" y="150" type="curve"/>
      <point x="367" y="122"/>
      <point x="343" y="112"/>
      <point x="312" y="112" type="curve" smooth="yes"/>
      <point x="240" y="112"/>
      <point x="253" y="186"/>
      <point x="266" y="244" type="curve"/>
      <point x="333" y="526" type="line"/>
      <point x="184" y="526" type="line"/>
      <point x="116" y="242" type="line"/>
      <point x="84" y="113"/>
      <point x="119" y="-12"/>
    </contour>
  </outline>
</glyph>
<glyph name="v" format="2">
  <advance width="556"/>
  <unicode hex="0076"/>
  <outline>
    <contour>
      <point x="146" y="0" type="curve"/>
      <point x="270" y="0" type="line"/>
      <point x="374" y="114"/>
      <point x="522" y="337"/>
      <point x="591" y="526" type="curve"/>
      <point x="433" y="526" type="line"/>
      <point x="401" y="419"/>
      <point x="308" y="256"/>
      <point x="248" y="175" type="curve"/>
      <point x="235" y="271"/>
      <point x="227" y="421"/>
      <point x="224" y="526" type="curve"/>
      <point x="70" y="526" type="line"/>
      <point x="81" y="315"/>
      <point x="111" y="133"/>
    </contour>
  </outline>
</glyph>
<glyph name="w" format="2">
  <advance width="826"/>
  <unicode hex="0077"/>
  <anchor x="344" y="0" name="bottom"/>
  <anchor x="466" y="526" name="top"/>
  <outline>
    <contour>
      <point x="132" y="0" type="curve"/>
      <point x="248" y="0" type="line"/>
      <point x="296" y="75"/>
      <point x="377" y="199"/>
      <point x="427" y="308" type="curve"/>
      <point x="430" y="207"/>
      <point x="437" y="109"/>
      <point x="453" y="0" type="curve"/>
      <point x="569" y="0" type="line"/>
      <point x="716" y="184"/>
      <point x="808" y="393"/>
      <point x="861" y="526" type="curve"/>
      <point x="703" y="526" type="line"/>
      <point x="671" y="435"/>
      <point x="620" y="297"/>
      <point x="548" y="176" type="curve"/>
      <point x="535" y="309"/>
      <point x="533" y="430"/>
      <point x="533" y="526" type="curve"/>
      <point x="409" y="526" type="line"/>
      <point x="369" y="424"/>
      <point x="303" y="288"/>
      <point x="236" y="176" type="curve"/>
      <point x="223" y="299"/>
      <point x="221" y="430"/>
      <point x="221" y="526" type="curve"/>
      <point x="75" y="526" type="line"/>
      <point x="83" y="317"/>
      <point x="111" y="111"/>
    </contour>
  </outline>
</glyph>
<glyph name="x" format="2">
  <advance width="559"/>
  <unicode hex="0078"/>
  <outline>
    <contour>
      <point x="25" y="0" type="line"/>
      <point x="181" y="0" type="line"/>
      <point x="326" y="166" type="line"/>
      <point x="349" y="120"/>
      <point x="373" y="65"/>
      <point x="397" y="0" type="curve"/>
      <point x="544" y="0" type="line"/>
      <point x="515" y="87"/>
      <point x="479" y="167"/>
      <point x="426" y="267" type="curve"/>
      <point x="513" y="360"/>
      <point x="578" y="446"/>
      <point x="634" y="526" type="curve"/>
      <point x="485" y="526" type="line"/>
      <point x="448" y="471"/>
      <point x="407" y="417"/>
      <point x="362" y="362" type="curve"/>
      <point x="286" y="526" type="line"/>
      <point x="135" y="526" type="line"/>
      <point x="264" y="268" type="line"/>
    </contour>
  </outline>
</glyph>
<glyph name="y" format="2">
  <advance width="542"/>
  <unicode hex="0079"/>
  <anchor x="148" y="0" name="bottom"/>
  <anchor x="324" y="526" name="top"/>
  <outline>
    <contour>
      <point x="27" y="-185" type="curve" smooth="yes"/>
      <point x="178" y="-185"/>
      <point x="255" y="-67"/>
      <point x="327" y="38" type="curve"/>
      <point x="426" y="179"/>
      <point x="502" y="323"/>
      <point x="577" y="526" type="curve"/>
      <point x="419" y="526" type="line"/>
      <point x="376" y="385"/>
      <point x="330" y="268"/>
      <point x="266" y="172" type="curve"/>
      <point x="250" y="268"/>
      <point x="238" y="421"/>
      <point x="235" y="526" type="curve"/>
      <point x="82" y="526" type="line"/>
      <point x="93" y="319"/>
      <point x="124" y="155"/>
      <point x="159" y="22" type="curve"/>
      <point x="131" y="-29"/>
      <point x="87" y="-61"/>
      <point x="40" y="-61" type="curve" smooth="yes"/>
      <point x="9" y="-61"/>
      <point x="-8" y="-55"/>
      <point x="-35" y="-44" type="curve"/>
      <point x="-80" y="-161" type="line"/>
      <point x="-51" y="-176"/>
      <point x="-20" y="-185"/>
    </contour>
  </outline>
</glyph>
<glyph name="z" format="2">
  <advance width="536"/>
  <unicode hex="007A"/>
  <outline>
    <contour>
      <point x="65" y="0" type="line"/>
      <point x="489" y="0" type="line"/>
      <point x="519" y="122" type="line"/>
      <point x="275" y="122" type="line"/>
      <point x="379" y="234"/>
      <point x="526" y="374"/>
      <point x="587" y="427" type="curve"/>
      <point x="611" y="526" type="line"/>
      <point x="203" y="526" type="line"/>
      <point x="173" y="404" type="line"/>
      <point x="387" y="404" type="line"/>
      <point x="295" y="320"/>
      <point x="163" y="183"/>
      <point x="86" y="87" type="curve"/>
    </contour>
  </outline>
</glyph>
<glyph name="braceleft" format="2">
  <advance width="381"/>
  <unicode hex="007B"/>
  <outline>
    <contour>
      <point x="329" y="-185" type="curve"/>
      <point x="358" y="-66" type="line"/>
      <point x="266" y="-66"/>
      <point x="264" y="-36"/>
      <point x="277" y="16" type="curve" smooth="yes"/>
      <point x="308" y="149" type="line" smooth="yes"/>
      <point x="322" y="212"/>
      <point x="326" y="267"/>
      <point x="255" y="299" type="curve"/>
      <point x="343" y="331"/>
      <point x="365" y="380"/>
      <point x="381" y="449" type="curve" smooth="yes"/>
      <point x="412" y="582" type="line" smooth="yes"/>
      <point x="424" y="635"/>
      <point x="443" y="664"/>
      <point x="533" y="664" type="curve"/>
      <point x="562" y="783" type="line"/>
      <point x="373" y="783"/>
      <point x="307" y="724"/>
      <point x="277" y="603" type="curve"/>
      <point x="241" y="452" type="line" smooth="yes"/>
      <point x="228" y="397"/>
      <point x="197" y="358"/>
      <point x="114" y="358" type="curve"/>
      <point x="85" y="240" type="line"/>
      <point x="161" y="240"/>
      <point x="181" y="210"/>
      <point x="168" y="146" type="curve"/>
      <point x="139" y="22" type="line" smooth="yes"/>
      <point x="107" y="-121"/>
      <point x="144" y="-185"/>
    </contour>
  </outline>
</glyph>
<glyph name="braceright" format="2">
  <advance width="381"/>
  <unicode hex="007D"/>
  <outline>
    <contour>
      <point x="-46" y="-185" type="line"/>
      <point x="143" y="-185"/>
      <point x="209" y="-126"/>
      <point x="239" y="-5" type="curve"/>
      <point x="275" y="146" type="line" smooth="yes"/>
      <point x="288" y="201"/>
      <point x="319" y="240"/>
      <point x="402" y="240" type="curve"/>
      <point x="431" y="358" type="line"/>
      <point x="355" y="358"/>
      <point x="335" y="388"/>
      <point x="348" y="452" type="curve"/>
      <point x="377" y="576" type="line" smooth="yes"/>
      <point x="410" y="724"/>
      <point x="371" y="783"/>
      <point x="187" y="783" type="curve"/>
      <point x="158" y="664" type="line"/>
      <point x="244" y="664"/>
      <point x="255" y="646"/>
      <point x="239" y="582" type="curve" smooth="yes"/>
      <point x="208" y="449" type="line" smooth="yes"/>
      <point x="194" y="386"/>
      <point x="190" y="331"/>
      <point x="261" y="299" type="curve"/>
      <point x="173" y="267"/>
      <point x="151" y="218"/>
      <point x="135" y="149" type="curve" smooth="yes"/>
      <point x="104" y="16" type="line"/>
      <point x="90" y="-38"/>
      <point x="74" y="-66"/>
      <point x="-17" y="-66" type="curve"/>
    </contour>
  </outline>
</glyph>
<glyph name="asciitilde" format="2">
  <advance width="564"/>
  <unicode hex="007E"/>
  <outline>
    <contour>
      <point x="366" y="196" type="curve" smooth="yes"/>
      <point x="470" y="196"/>
      <point x="520" y="272"/>
      <point x="557" y="372" type="curve"/>
      <point x="462" y="400" type="line"/>
      <point x="430" y="333"/>
      <point x="416" y="327"/>
      <point x="392" y="327" type="curve" smooth="yes"/>
      <point x="334" y="327"/>
      <point x="300" y="403"/>
      <point x="211" y="403" type="curve" smooth="yes"/>
      <point x="107" y="403"/>
      <point x="50" y="319"/>
      <point x="20" y="227" type="curve"/>
      <point x="115" y="199" type="line"/>
      <point x="147" y="266"/>
      <point x="161" y="272"/>
      <point x="185" y="272" type="curve" smooth="yes"/>
      <point x="243" y="272"/>
      <point x="277" y="196"/>
    </contour>
  </outline>
</glyph>
<glyph name="exclamdown" format="2">
  <advance width="305"/>
  <unicode hex="00A1"/>
  <outline>
    <contour>
      <point x="37" y="-175" type="line"/>
      <point x="196" y="-175" type="line"/>
      <point x="239" y="4" type="line" smooth="yes"/>
      <point x="264" y="112"/>
      <point x="275" y="201"/>
      <point x="286" y="297" type="curve"/>
      <point x="172" y="297" type="line"/>
      <point x="136" y="201"/>
      <point x="107" y="112"/>
      <point x="80" y="4" type="curve"/>
    </contour>
    <contour>
      <point x="248" y="347" type="curve" smooth="yes"/>
      <point x="299" y="347"/>
      <point x="348" y="389"/>
      <point x="348" y="450" type="curve" smooth="yes"/>
      <point x="348" y="505"/>
      <point x="313" y="531"/>
      <point x="266" y="531" type="curve" smooth="yes"/>
      <point x="215" y="531"/>
      <point x="166" y="489"/>
      <point x="166" y="428" type="curve" smooth="yes"/>
      <point x="166" y="373"/>
      <point x="201" y="347"/>
    </contour>
  </outline>
</glyph>
<glyph name="cent" format="2">
  <advance width="564"/>
  <unicode hex="00A2"/>
  <outline>
    <contour>
      <point x="159" y="-109" type="line"/>
      <point x="301" y="-109" type="line"/>
      <point x="334" y="29" type="line"/>
      <point x="374" y="33"/>
      <point x="416" y="43"/>
      <point x="455" y="59" type="curve"/>
      <point x="444" y="178" type="line"/>
      <point x="409" y="165"/>
      <point x="364" y="152"/>
      <point x="325" y="152" type="curve" smooth="yes"/>
      <point x="277" y="152"/>
      <point x="238" y="172"/>
      <point x="238" y="239" type="curve" smooth="yes"/>
      <point x="238" y="363"/>
      <point x="303" y="433"/>
      <point x="394" y="433" type="curve" smooth="yes"/>
      <point x="425" y="433"/>
      <point x="459" y="426"/>
      <point x="491" y="407" type="curve"/>
      <point x="541" y="522" type="line"/>
      <point x="514" y="537"/>
      <point x="486" y="547"/>
      <point x="458" y="553" type="curve"/>
      <point x="492" y="693" type="line"/>
      <point x="350" y="693" type="line"/>
      <point x="315" y="549" type="line"/>
      <point x="187" y="517"/>
      <point x="84" y="404"/>
      <point x="84" y="234" type="curve" smooth="yes"/>
      <point x="84" y="131"/>
      <point x="129" y="73"/>
      <point x="196" y="45" type="curve"/>
    </contour>
  </outline>
</glyph>
<glyph name="sterling" format="2">
  <advance width="564"/>
  <unicode hex="00A3"/>
  <outline>
    <contour>
      <point x="42" y="0" type="curve"/>
      <point x="476" y="0" type="line"/>
      <point x="506" y="125" type="line"/>
      <point x="235" y="125" type="line"/>
      <point x="252" y="169"/>
      <point x="271" y="225"/>
      <point x="283" y="272" type="curve"/>
      <point x="459" y="272" type="line"/>
      <point x="488" y="394" type="line"/>
      <point x="312" y="394" type="line"/>
      <point x="328" y="459" type="line"/>
      <point x="352" y="560"/>
      <point x="400" y="582"/>
      <point x="457" y="582" type="curve" smooth="yes"/>
      <point x="488" y="582"/>
      <point x="519" y="574"/>
      <point x="552" y="559" type="curve"/>
      <point x="612" y="669" type="line"/>
      <point x="569" y="692"/>
      <point x="518" y="706"/>
      <point x="458" y="706" type="curve" smooth="yes"/>
      <point x="342" y="706"/>
      <point x="235" y="651"/>
      <point x="192" y="490" type="curve" smooth="yes"/>
      <point x="167" y="394" type="line"/>
      <point x="80" y="394" type="line"/>
      <point x="51" y="272" type="line"/>
      <point x="138" y="272" type="line"/>
      <point x="118" y="196"/>
      <point x="90" y="107"/>
    </contour>
  </outline>
</glyph>
<glyph name="currency" format="2">
  <advance width="578"/>
  <unicode hex="00A4"/>
  <outline>
    <contour>
      <point x="193" y="96" type="line"/>
      <point x="267" y="168" type="line"/>
      <point x="296" y="155"/>
      <point x="326" y="150"/>
      <point x="359" y="150" type="curve" smooth="yes"/>
      <point x="394" y="150"/>
      <point x="422" y="155"/>
      <point x="450" y="168" type="curve"/>
      <point x="524" y="96" type="line"/>
      <point x="618" y="188" type="line"/>
      <point x="546" y="257" type="line"/>
      <point x="560" y="283"/>
      <point x="567" y="313"/>
      <point x="567" y="347" type="curve" smooth="yes"/>
      <point x="567" y="381"/>
      <point x="560" y="411"/>
      <point x="546" y="437" type="curve"/>
      <point x="618" y="506" type="line"/>
      <point x="525" y="597" type="line"/>
      <point x="451" y="526" type="line"/>
      <point x="422" y="539"/>
      <point x="392" y="544"/>
      <point x="359" y="544" type="curve" smooth="yes"/>
      <point x="324" y="544"/>
      <point x="296" y="539"/>
      <point x="268" y="526" type="curve"/>
      <point x="194" y="598" type="line"/>
      <point x="100" y="506" type="line"/>
      <point x="172" y="437" type="line"/>
      <point x="158" y="411"/>
      <point x="151" y="381"/>
      <point x="151" y="347" type="curve" smooth="yes"/>
      <point x="151" y="313"/>
      <point x="158" y="283"/>
      <point x="172" y="257" type="curve"/>
      <point x="100" y="187" type="line"/>
    </contour>
    <contour>
      <point x="359" y="260" type="curve" smooth="yes"/>
      <point x="314" y="260"/>
      <point x="277" y="290"/>
      <point x="277" y="347" type="curve" smooth="yes"/>
      <point x="277" y="404"/>
      <point x="314" y="434"/>
      <point x="359" y="434" type="curve" smooth="yes"/>
      <point x="404" y="434"/>
      <point x="441" y="404"/>
      <point x="441" y="347" type="curve" smooth="yes"/>
      <point x="441" y="290"/>
      <point x="404" y="260"/>
    </contour>
  </outline>
</glyph>
<glyph name="yen" format="2">
  <advance width="564"/>
  <unicode hex="00A5"/>
  <outline>
    <contour>
      <point x="140" y="0" type="line"/>
      <point x="296" y="0" type="line"/>
      <point x="323" y="111" type="line"/>
      <point x="469" y="111" type="line"/>
      <point x="492" y="206" type="line"/>
      <point x="346" y="206" type="line"/>
      <point x="362" y="275" type="line"/>
      <point x="508" y="275" type="line"/>
      <point x="531" y="370" type="line"/>
      <point x="430" y="370" type="line"/>
      <point x="521" y="481"/>
      <point x="599" y="581"/>
      <point x="674" y="693" type="curve"/>
      <point x="512" y="693" type="line"/>
      <point x="448" y="593"/>
      <point x="391" y="519"/>
      <point x="323" y="431" type="curve"/>
      <point x="291" y="528"/>
      <point x="267" y="598"/>
      <point x="249" y="693" type="curve"/>
      <point x="93" y="693" type="line"/>
      <point x="114" y="602"/>
      <point x="157" y="479"/>
      <point x="199" y="370" type="curve"/>
      <point x="84" y="370" type="line"/>
      <point x="61" y="275" type="line"/>
      <point x="206" y="275" type="line"/>
      <point x="190" y="206" type="line"/>
      <point x="45" y="206" type="line"/>
      <point x="22" y="111" type="line"/>
      <point x="167" y="111" type="line"/>
    </contour>
  </outline>
</glyph>
<glyph name="brokenbar" format="2">
  <advance width="312"/>
  <unicode hex="00A6"/>
  <outline>
    <contour>
      <point x="165" y="386" type="line"/>
      <point x="307" y="386" type="line"/>
      <point x="403" y="783" type="line"/>
      <point x="261" y="783" type="line"/>
    </contour>
    <contour>
      <point x="29" y="-185" type="line"/>
      <point x="170" y="-185" type="line"/>
      <point x="266" y="212" type="line"/>
      <point x="124" y="212" type="line"/>
    </contour>
  </outline>
</glyph>
<glyph name="section" format="2">
  <advance width="525"/>
  <unicode hex="00A7"/>
  <outline>
    <contour>
      <point x="217" y="-110" type="curve" smooth="yes"/>
      <point x="386" y="-110"/>
      <point x="462" y="-17"/>
      <point x="462" y="71" type="curve" smooth="yes"/>
      <point x="462" y="100"/>
      <point x="452" y="128"/>
      <point x="432" y="155" type="curve"/>
      <point x="508" y="202"/>
      <point x="553" y="266"/>
      <point x="553" y="330" type="curve" smooth="yes"/>
      <point x="553" y="379"/>
      <point x="527" y="425"/>
      <point x="459" y="460" type="curve" smooth="yes"/>
      <point x="357" y="511"/>
      <point x="348" y="517"/>
      <point x="348" y="540" type="curve" smooth="yes"/>
      <point x="348" y="571"/>
      <point x="384" y="593"/>
      <point x="439" y="593" type="curve" smooth="yes"/>
      <point x="474" y="593"/>
      <point x="513" y="584"/>
      <point x="554" y="563" type="curve"/>
      <point x="605" y="669" type="line"/>
      <point x="560" y="696"/>
      <point x="501" y="709"/>
      <point x="441" y="709" type="curve" smooth="yes"/>
      <point x="286" y="709"/>
      <point x="207" y="626"/>
      <point x="207" y="543" type="curve" smooth="yes"/>
      <point x="207" y="512"/>
      <point x="216" y="485"/>
      <point x="235" y="462" type="curve"/>
      <point x="163" y="419"/>
      <point x="116" y="351"/>
      <point x="116" y="287" type="curve" smooth="yes"/>
      <point x="116" y="238"/>
      <point x="142" y="191"/>
      <point x="210" y="158" type="curve" smooth="yes"/>
      <point x="299" y="114"/>
      <point x="321" y="102"/>
      <point x="321" y="67" type="curve" smooth="yes"/>
      <point x="321" y="36"/>
      <point x="291" y="6"/>
      <point x="215" y="6" type="curve" smooth="yes"/>
      <point x="174" y="6"/>
      <point x="133" y="17"/>
      <point x="92" y="40" type="curve"/>
      <point x="41" y="-66" type="line"/>
      <point x="84" y="-95"/>
      <point x="153" y="-110"/>
    </contour>
    <contour>
      <point x="355" y="214" type="curve"/>
      <point x="312" y="235" type="line" smooth="yes"/>
      <point x="265" y="258"/>
      <point x="248" y="284"/>
      <point x="248" y="311" type="curve" smooth="yes"/>
      <point x="248" y="344"/>
      <point x="275" y="378"/>
      <point x="314" y="403" type="curve"/>
      <point x="349" y="387" type="line" smooth="yes"/>
      <point x="400" y="364"/>
      <point x="421" y="334"/>
      <point x="421" y="305" type="curve" smooth="yes"/>
      <point x="421" y="272"/>
      <point x="395" y="241"/>
    </contour>
  </outline>
</glyph>
<glyph name="dieresis" format="2">
  <advance width="546"/>
  <unicode hex="00A8"/>
  <outline>
    <contour>
      <point x="525" y="602" type="curve" smooth="yes"/>
      <point x="562" y="602"/>
      <point x="607" y="637"/>
      <point x="607" y="686" type="curve" smooth="yes"/>
      <point x="607" y="727"/>
      <point x="576" y="754"/>
      <point x="539" y="754" type="curve" smooth="yes"/>
      <point x="499" y="754"/>
      <point x="458" y="719"/>
      <point x="458" y="668" type="curve" smooth="yes"/>
      <point x="458" y="628"/>
      <point x="486" y="602"/>
    </contour>
    <contour>
      <point x="303" y="602" type="curve" smooth="yes"/>
      <point x="340" y="602"/>
      <point x="385" y="637"/>
      <point x="385" y="686" type="curve" smooth="yes"/>
      <point x="385" y="727"/>
      <point x="354" y="754"/>
      <point x="317" y="754" type="curve" smooth="yes"/>
      <point x="277" y="754"/>
      <point x="236" y="719"/>
      <point x="236" y="668" type="curve" smooth="yes"/>
      <point x="236" y="628"/>
      <point x="264" y="602"/>
    </contour>
  </outline>
</glyph>
<glyph name="copyright" format="2">
  <advance width="806"/>
  <unicode hex="00A9"/>
  <outline>
    <contour>
      <point x="413" y="-15" type="curve" smooth="yes"/>
      <point x="597" y="-15"/>
      <point x="761" y="119"/>
      <point x="761" y="347" type="curve" smooth="yes"/>
      <point x="761" y="575"/>
      <point x="597" y="709"/>
      <point x="413" y="709" type="curve" smooth="yes"/>
      <point x="229" y="709"/>
      <point x="65" y="575"/>
      <point x="65" y="347" type="curve" smooth="yes"/>
      <point x="65" y="119"/>
      <point x="229" y="-15"/>
    </contour>
    <contour>
      <point x="429" y="160" type="curve" smooth="yes"/>
      <point x="489" y="160"/>
      <point x="532" y="182"/>
      <point x="549" y="191" type="curve"/>
      <point x="521" y="282" type="line"/>
      <point x="500" y="274"/>
      <point x="475" y="262"/>
      <point x="435" y="262" type="curve" smooth="yes"/>
      <point x="375" y="262"/>
      <point x="362" y="307"/>
      <point x="362" y="354" type="curve" smooth="yes"/>
      <point x="362" y="407"/>
      <point x="391" y="436"/>
      <point x="435" y="436" type="curve" smooth="yes"/>
      <point x="472" y="436"/>
      <point x="493" y="428"/>
      <point x="512" y="417" type="curve"/>
      <point x="544" y="505" type="line"/>
      <point x="529" y="513"/>
      <point x="490" y="537"/>
      <point x="426" y="537" type="curve" smooth="yes"/>
      <point x="318" y="537"/>
      <point x="246" y="469"/>
      <point x="246" y="349" type="curve" smooth="yes"/>
      <point x="246" y="228"/>
      <point x="310" y="160"/>
    </contour>
    <contour>
      <point x="413" y="81" type="curve" smooth="yes"/>
      <point x="268" y="81"/>
      <point x="167" y="187"/>
      <point x="167" y="347" type="curve" smooth="yes"/>
      <point x="167" y="507"/>
      <point x="268" y="613"/>
      <point x="413" y="613" type="curve" smooth="yes"/>
      <point x="558" y="613"/>
      <point x="659" y="507"/>
      <point x="659" y="347" type="curve" smooth="yes"/>
      <point x="659" y="187"/>
      <point x="558" y="81"/>
    </contour>
  </outline>
</glyph>
<glyph name="ordfeminine" format="2">
  <advance width="482"/>
  <unicode hex="00AA"/>
  <outline>
    <contour>
      <point x="297" y="305" type="curve" smooth="yes"/>
      <point x="332" y="305"/>
      <point x="367" y="317"/>
      <point x="402" y="340" type="curve"/>
      <point x="406" y="330"/>
      <point x="411" y="319"/>
      <point x="415" y="309" type="curve"/>
      <point x="509" y="322" type="line"/>
      <point x="480" y="398"/>
      <point x="490" y="459"/>
      <point x="503" y="504" type="curve"/>
      <point x="547" y="690" type="line"/>
      <point x="500" y="703"/>
      <point x="458" y="708"/>
      <point x="419" y="708" type="curve" smooth="yes"/>
      <point x="239" y="708"/>
      <point x="155" y="579"/>
      <point x="155" y="467" type="curve" smooth="yes"/>
      <point x="155" y="381"/>
      <point x="204" y="305"/>
    </contour>
    <contour>
      <point x="324" y="405" type="curve" smooth="yes"/>
      <point x="281" y="405"/>
      <point x="261" y="438"/>
      <point x="261" y="478" type="curve" smooth="yes"/>
      <point x="261" y="558"/>
      <point x="322" y="609"/>
      <point x="394" y="609" type="curve" smooth="yes"/>
      <point x="402" y="609"/>
      <point x="411" y="608"/>
      <point x="420" y="607" type="curve"/>
      <point x="393" y="503" type="line"/>
      <point x="388" y="483"/>
      <point x="380" y="450"/>
      <point x="384" y="427" type="curve"/>
      <point x="363" y="411"/>
      <point x="343" y="405"/>
    </contour>
  </outline>
</glyph>
<glyph name="logicalnot" format="2">
  <advance width="578"/>
  <unicode hex="00AC"/>
  <outline>
    <contour>
      <point x="383" y="51" type="line"/>
      <point x="519" y="51" type="line"/>
      <point x="606" y="410" type="line"/>
      <point x="136" y="410" type="line"/>
      <point x="106" y="285" type="line"/>
      <point x="440" y="285" type="line"/>
    </contour>
  </outline>
</glyph>
<glyph name="registered" format="2">
  <advance width="796"/>
  <unicode hex="00AE"/>
  <outline>
    <contour>
      <point x="468" y="-15" type="curve" smooth="yes"/>
      <point x="652" y="-15"/>
      <point x="816" y="119"/>
      <point x="816" y="347" type="curve" smooth="yes"/>
      <point x="816" y="575"/>
      <point x="652" y="709"/>
      <point x="468" y="709" type="curve" smooth="yes"/>
      <point x="284" y="709"/>
      <point x="120" y="575"/>
      <point x="120" y="347" type="curve" smooth="yes"/>
      <point x="120" y="119"/>
      <point x="284" y="-15"/>
    </contour>
    <contour>
      <point x="468" y="81" type="curve" smooth="yes"/>
      <point x="323" y="81"/>
      <point x="222" y="187"/>
      <point x="222" y="347" type="curve" smooth="yes"/>
      <point x="222" y="507"/>
      <point x="323" y="613"/>
      <point x="468" y="613" type="curve" smooth="yes"/>
      <point x="613" y="613"/>
      <point x="714" y="507"/>
      <point x="714" y="347" type="curve" smooth="yes"/>
      <point x="714" y="187"/>
      <point x="613" y="81"/>
    </contour>
    <contour>
      <point x="336" y="177" type="line"/>
      <point x="433" y="177" type="line"/>
      <point x="433" y="295" type="line"/>
      <point x="464" y="295" type="line"/>
      <point x="467" y="295"/>
      <point x="470" y="295"/>
      <point x="473" y="295" type="curve"/>
      <point x="493" y="264"/>
      <point x="506" y="228"/>
      <point x="529" y="177" type="curve"/>
      <point x="631" y="177" type="line"/>
      <point x="601" y="244"/>
      <point x="588" y="276"/>
      <point x="558" y="322" type="curve"/>
      <point x="593" y="341"/>
      <point x="612" y="373"/>
      <point x="612" y="413" type="curve" smooth="yes"/>
      <point x="612" y="494"/>
      <point x="558" y="534"/>
      <point x="451" y="534" type="curve" smooth="yes"/>
      <point x="422" y="534"/>
      <point x="381" y="530"/>
      <point x="336" y="519" type="curve"/>
    </contour>
    <contour>
      <point x="433" y="373" type="line"/>
      <point x="433" y="448" type="line"/>
      <point x="440" y="449"/>
      <point x="451" y="450"/>
      <point x="460" y="450" type="curve" smooth="yes"/>
      <point x="496" y="450"/>
      <point x="515" y="441"/>
      <point x="515" y="414" type="curve" smooth="yes"/>
      <point x="515" y="382"/>
      <point x="494" y="373"/>
      <point x="451" y="373" type="curve" smooth="yes"/>
    </contour>
  </outline>
</glyph>
<glyph name="macron" format="2">
  <advance width="386"/>
  <unicode hex="00AF"/>
  <outline>
    <contour>
      <point x="176" y="623" type="line"/>
      <point x="498" y="623" type="line"/>
      <point x="523" y="725" type="line"/>
      <point x="201" y="725" type="line"/>
    </contour>
  </outline>
</glyph>
<glyph name="degree" format="2">
  <advance width="392"/>
  <unicode hex="00B0"/>
  <outline>
    <contour>
      <point x="326" y="471" type="curve" smooth="yes"/>
      <point x="412" y="471"/>
      <point x="487" y="530"/>
      <point x="487" y="626" type="curve" smooth="yes"/>
      <point x="487" y="722"/>
      <point x="412" y="781"/>
      <point x="326" y="781" type="curve" smooth="yes"/>
      <point x="240" y="781"/>
      <point x="165" y="722"/>
      <point x="165" y="626" type="curve" smooth="yes"/>
      <point x="165" y="530"/>
      <point x="240" y="471"/>
    </contour>
    <contour>
      <point x="326" y="569" type="curve" smooth="yes"/>
      <point x="298" y="569"/>
      <point x="271" y="591"/>
      <point x="271" y="626" type="curve" smooth="yes"/>
      <point x="271" y="661"/>
      <point x="298" y="683"/>
      <point x="326" y="683" type="curve" smooth="yes"/>
      <point x="354" y="683"/>
      <point x="381" y="661"/>
      <point x="381" y="626" type="curve" smooth="yes"/>
      <point x="381" y="591"/>
      <point x="354" y="569"/>
    </contour>
  </outline>
</glyph>
<glyph name="plusminus" format="2">
  <advance width="578"/>
  <unicode hex="00B1"/>
  <outline>
    <contour>
      <point x="254" y="160" type="line"/>
      <point x="390" y="160" type="line"/>
      <point x="431" y="330" type="line"/>
      <point x="598" y="330" type="line"/>
      <point x="628" y="455" type="line"/>
      <point x="461" y="455" type="line"/>
      <point x="502" y="625" type="line"/>
      <point x="366" y="625" type="line"/>
      <point x="325" y="455" type="line"/>
      <point x="158" y="455" type="line"/>
      <point x="128" y="330" type="line"/>
      <point x="295" y="330" type="line"/>
    </contour>
    <contour>
      <point x="49" y="0" type="line"/>
      <point x="518" y="0" type="line"/>
      <point x="548" y="125" type="line"/>
      <point x="78" y="125" type="line"/>
    </contour>
  </outline>
</glyph>
<glyph name="twosuperior" format="2">
  <advance width="373"/>
  <unicode hex="00B2"/>
  <outline>
    <contour>
      <point x="109" y="302" type="curve"/>
      <point x="396" y="302" type="line"/>
      <point x="416" y="393" type="line"/>
      <point x="249" y="393" type="line"/>
      <point x="257" y="408"/>
      <point x="301" y="433"/>
      <point x="337" y="456" type="curve" smooth="yes"/>
      <point x="409" y="501"/>
      <point x="439" y="544"/>
      <point x="439" y="605" type="curve" smooth="yes"/>
      <point x="439" y="678"/>
      <point x="382" y="709"/>
      <point x="315" y="709" type="curve" smooth="yes"/>
      <point x="256" y="709"/>
      <point x="200" y="687"/>
      <point x="156" y="647" type="curve"/>
      <point x="193" y="568" type="line"/>
      <point x="236" y="603"/>
      <point x="270" y="616"/>
      <point x="295" y="616" type="curve" smooth="yes"/>
      <point x="318" y="616"/>
      <point x="332" y="604"/>
      <point x="332" y="587" type="curve" smooth="yes"/>
      <point x="332" y="560"/>
      <point x="323" y="545"/>
      <point x="246" y="502" type="curve" smooth="yes"/>
      <point x="135" y="441"/>
      <point x="109" y="384"/>
    </contour>
  </outline>
</glyph>
<glyph name="acute" format="2">
  <advance width="296"/>
  <unicode hex="00B4"/>
  <outline>
    <contour>
      <point x="242" y="576" type="line"/>
      <point x="419" y="712" type="line"/>
      <point x="342" y="799" type="line"/>
      <point x="182" y="638" type="line"/>
    </contour>
  </outline>
</glyph>
<glyph name="mu" format="2">
  <advance width="642"/>
  <unicode hex="00B5"/>
  <outline>
    <contour>
      <point x="40" y="-166" type="line"/>
      <point x="188" y="-166" type="line"/>
      <point x="207" y="-89" type="line" smooth="yes"/>
      <point x="219" y="-40"/>
      <point x="222" y="-16"/>
      <point x="222" y="15" type="curve"/>
      <point x="246" y="-4"/>
      <point x="275" y="-12"/>
      <point x="304" y="-12" type="curve" smooth="yes"/>
      <point x="351" y="-12"/>
      <point x="401" y="8"/>
      <point x="445" y="40" type="curve"/>
      <point x="464" y="12"/>
      <point x="502" y="-10"/>
      <point x="586" y="-11" type="curve"/>
      <point x="635" y="113" type="line"/>
      <point x="556" y="118"/>
      <point x="569" y="162"/>
      <point x="586" y="227" type="curve" smooth="yes"/>
      <point x="657" y="526" type="line"/>
      <point x="508" y="526" type="line"/>
      <point x="443" y="253" type="line" smooth="yes"/>
      <point x="436" y="224"/>
      <point x="430" y="184"/>
      <point x="427" y="151" type="curve"/>
      <point x="388" y="116"/>
      <point x="360" y="112"/>
      <point x="343" y="112" type="curve" smooth="yes"/>
      <point x="259" y="112"/>
      <point x="270" y="168"/>
      <point x="287" y="244" type="curve" smooth="yes"/>
      <point x="354" y="526" type="line"/>
      <point x="205" y="526" type="line"/>
    </contour>
  </outline>
</glyph>
<glyph name="paragraph" format="2">
  <advance width="720"/>
  <unicode hex="00B6"/>
  <outline>
    <contour>
      <point x="207" y="-185" type="line"/>
      <point x="349" y="-185" type="line"/>
      <point x="534" y="586" type="line"/>
      <point x="563" y="586"/>
      <point x="591" y="585"/>
      <point x="610" y="582" type="curve"/>
      <point x="426" y="-185" type="line"/>
      <point x="568" y="-185" type="line"/>
      <point x="776" y="683" type="line"/>
      <point x="705" y="695"/>
      <point x="641" y="700"/>
      <point x="580" y="700" type="curve" smooth="yes"/>
      <point x="325" y="700"/>
      <point x="160" y="609"/>
      <point x="160" y="437" type="curve" smooth="yes"/>
      <point x="160" y="334"/>
      <point x="218" y="273"/>
      <point x="314" y="258" type="curve"/>
    </contour>
  </outline>
</glyph>
<glyph name="cedilla" format="2">
  <advance width="336"/>
  <unicode hex="00B8"/>
  <outline>
    <contour>
      <point x="105" y="-221" type="curve" smooth="yes"/>
      <point x="175" y="-221"/>
      <point x="243" y="-189"/>
      <point x="243" y="-111" type="curve" smooth="yes"/>
      <point x="243" y="-84"/>
      <point x="228" y="-59"/>
      <point x="199" y="-44" type="curve"/>
      <point x="210" y="-28"/>
      <point x="233" y="6"/>
      <point x="244" y="20" type="curve"/>
      <point x="150" y="20" type="line"/>
      <point x="142" y="7"/>
      <point x="107" y="-39"/>
      <point x="91" y="-65" type="curve"/>
      <point x="132" y="-81"/>
      <point x="141" y="-91"/>
      <point x="141" y="-106" type="curve" smooth="yes"/>
      <point x="141" y="-122"/>
      <point x="128" y="-130"/>
      <point x="101" y="-130" type="curve" smooth="yes"/>
      <point x="81" y="-130"/>
      <point x="57" y="-124"/>
      <point x="40" y="-116" type="curve"/>
      <point x="4" y="-198" type="line"/>
      <point x="32" y="-213"/>
      <point x="69" y="-221"/>
    </contour>
  </outline>
</glyph>
<glyph name="onesuperior" format="2">
  <advance width="373"/>
  <unicode hex="00B9"/>
  <outline>
    <contour>
      <point x="209" y="302" type="line"/>
      <point x="323" y="302" type="line"/>
      <point x="418" y="701" type="line"/>
      <point x="331" y="701" type="line"/>
      <point x="284" y="670"/>
      <point x="224" y="641"/>
      <point x="161" y="618" type="curve"/>
      <point x="172" y="531" type="line"/>
      <point x="215" y="546"/>
      <point x="244" y="557"/>
      <point x="273" y="572" type="curve"/>
    </contour>
  </outline>
</glyph>
<glyph name="ordmasculine" format="2">
  <advance width="449"/>
  <unicode hex="00BA"/>
  <outline>
    <contour>
      <point x="296" y="306" type="curve" smooth="yes"/>
      <point x="446" y="306"/>
      <point x="524" y="434"/>
      <point x="524" y="567" type="curve" smooth="yes"/>
      <point x="524" y="654"/>
      <point x="477" y="709"/>
      <point x="373" y="709" type="curve" smooth="yes"/>
      <point x="223" y="709"/>
      <point x="145" y="581"/>
      <point x="145" y="448" type="curve" smooth="yes"/>
      <point x="145" y="361"/>
      <point x="192" y="306"/>
    </contour>
    <contour>
      <point x="307" y="396" type="curve" smooth="yes"/>
      <point x="278" y="396"/>
      <point x="249" y="406"/>
      <point x="249" y="456" type="curve" smooth="yes"/>
      <point x="249" y="548"/>
      <point x="303" y="619"/>
      <point x="362" y="619" type="curve" smooth="yes"/>
      <point x="391" y="619"/>
      <point x="420" y="608"/>
      <point x="420" y="559" type="curve" smooth="yes"/>
      <point x="420" y="467"/>
      <point x="366" y="396"/>
    </contour>
  </outline>
</glyph>
<glyph name="Aring" format="2">
  <advance width="724"/>
  <unicode hex="00C5"/>
  <outline>
    <contour>
      <point x="20" y="0" type="curve"/>
      <point x="183" y="0" type="line"/>
      <point x="210" y="52"/>
      <point x="240" y="102"/>
      <point x="267" y="151" type="curve"/>
      <point x="527" y="151" type="line"/>
      <point x="531" y="102"/>
      <point x="534" y="52"/>
      <point x="537" y="0" type="curve"/>
      <point x="694" y="0" type="line"/>
      <point x="673" y="205"/>
      <point x="639" y="476"/>
      <point x="599" y="668" type="curve"/>
      <point x="631" y="687"/>
      <point x="654" y="720"/>
      <point x="654" y="767" type="curve" smooth="yes"/>
      <point x="654" y="842"/>
      <point x="599" y="882"/>
      <point x="535" y="882" type="curve" smooth="yes"/>
      <point x="474" y="882"/>
      <point x="418" y="842"/>
      <point x="418" y="767" type="curve" smooth="yes"/>
      <point x="418" y="732"/>
      <point x="430" y="705"/>
      <point x="449" y="685" type="curve"/>
      <point x="313" y="496"/>
      <point x="191" y="293"/>
    </contour>
    <contour>
      <point x="330" y="273" type="line"/>
      <point x="381" y="364"/>
      <point x="435" y="452"/>
      <point x="491" y="541" type="curve"/>
      <point x="504" y="449"/>
      <point x="510" y="354"/>
      <point x="517" y="273" type="curve"/>
    </contour>
    <contour>
      <point x="535" y="720" type="curve" smooth="yes"/>
      <point x="512" y="720"/>
      <point x="490" y="736"/>
      <point x="490" y="767" type="curve" smooth="yes"/>
      <point x="490" y="798"/>
      <point x="512" y="814"/>
      <point x="535" y="814" type="curve" smooth="yes"/>
      <point x="559" y="814"/>
      <point x="581" y="798"/>
      <point x="581" y="767" type="curve" smooth="yes"/>
      <point x="581" y="736"/>
      <point x="559" y="720"/>
    </contour>
  </outline>
</glyph>
<glyph name="AE" format="2">
  <advance width="987"/>
  <unicode hex="00C6"/>
  <outline>
    <contour>
      <point x="5" y="0" type="curve"/>
      <point x="165" y="0" type="line"/>
      <point x="201" y="51"/>
      <point x="248" y="113"/>
      <point x="289" y="164" type="curve"/>
      <point x="513" y="164" type="line"/>
      <point x="473" y="0" type="line"/>
      <point x="938" y="0" type="line"/>
      <point x="970" y="131" type="line"/>
      <point x="651" y="131" type="line"/>
      <point x="691" y="298" type="line"/>
      <point x="952" y="298" type="line"/>
      <point x="983" y="426" type="line"/>
      <point x="722" y="426" type="line"/>
      <point x="754" y="562" type="line"/>
      <point x="1050" y="562" type="line"/>
      <point x="1082" y="693" type="line"/>
      <point x="587" y="693" type="line"/>
      <point x="381" y="479"/>
      <point x="228" y="289"/>
    </contour>
    <contour>
      <point x="381" y="288" type="line"/>
      <point x="445" y="363"/>
      <point x="548" y="485"/>
      <point x="604" y="546" type="curve"/>
      <point x="542" y="288" type="line"/>
    </contour>
  </outline>
</glyph>
<glyph name="Ccedilla" format="2">
  <advance width="648"/>
  <unicode hex="00C7"/>
  <outline>
    <contour>
      <point x="296" y="-221" type="curve" smooth="yes"/>
      <point x="366" y="-221"/>
      <point x="434" y="-189"/>
      <point x="434" y="-111" type="curve" smooth="yes"/>
      <point x="434" y="-84"/>
      <point x="419" y="-59"/>
      <point x="390" y="-44" type="curve"/>
      <point x="395" y="-36"/>
      <point x="402" y="-25"/>
      <point x="410" y="-14" type="curve"/>
      <point x="505" y="-13"/>
      <point x="564" y="3"/>
      <point x="619" y="30" type="curve"/>
      <point x="602" y="157" type="line"/>
      <point x="555" y="136"/>
      <point x="502" y="121"/>
      <point x="438" y="121" type="curve" smooth="yes"/>
      <point x="342" y="121"/>
      <point x="289" y="173"/>
      <point x="289" y="289" type="curve" smooth="yes"/>
      <point x="289" y="444"/>
      <point x="384" y="576"/>
      <point x="536" y="576" type="curve" smooth="yes"/>
      <point x="587" y="576"/>
      <point x="626" y="567"/>
      <point x="682" y="538" type="curve"/>
      <point x="738" y="659" type="line"/>
      <point x="671" y="696"/>
      <point x="610" y="709"/>
      <point x="546" y="709" type="curve" smooth="yes"/>
      <point x="278" y="709"/>
      <point x="128" y="488"/>
      <point x="128" y="280" type="curve" smooth="yes"/>
      <point x="128" y="131"/>
      <point x="203" y="27"/>
      <point x="323" y="-4" type="curve"/>
      <point x="309" y="-24"/>
      <point x="296" y="-45"/>
      <point x="282" y="-65" type="curve"/>
      <point x="323" y="-80"/>
      <point x="332" y="-91"/>
      <point x="332" y="-106" type="curve" smooth="yes"/>
      <point x="332" y="-122"/>
      <point x="319" y="-130"/>
      <point x="292" y="-130" type="curve" smooth="yes"/>
      <point x="272" y="-130"/>
      <point x="248" y="-124"/>
      <point x="231" y="-116" type="curve"/>
      <point x="195" y="-198" type="line"/>
      <point x="223" y="-213"/>
      <point x="260" y="-221"/>
    </contour>
  </outline>
</glyph>
<glyph name="Eth" format="2">
  <advance width="728"/>
  <unicode hex="00D0"/>
  <outline>
    <contour>
      <point x="283" y="-9" type="curve" smooth="yes"/>
      <point x="578" y="-9"/>
      <point x="759" y="155"/>
      <point x="759" y="423" type="curve" smooth="yes"/>
      <point x="759" y="588"/>
      <point x="643" y="701"/>
      <point x="445" y="701" type="curve" smooth="yes"/>
      <point x="389" y="701"/>
      <point x="317" y="696"/>
      <point x="241" y="681" type="curve"/>
      <point x="177" y="417" type="line"/>
      <point x="96" y="417" type="line"/>
      <point x="70" y="302" type="line"/>
      <point x="150" y="302" type="line"/>
      <point x="80" y="12" type="line"/>
      <point x="148" y="-3"/>
      <point x="227" y="-9"/>
    </contour>
    <contour>
      <point x="316" y="123" type="curve" smooth="yes"/>
      <point x="289" y="123"/>
      <point x="277" y="124"/>
      <point x="262" y="125" type="curve"/>
      <point x="304" y="302" type="line"/>
      <point x="432" y="302" type="line"/>
      <point x="459" y="417" type="line"/>
      <point x="332" y="417" type="line"/>
      <point x="368" y="567" type="line"/>
      <point x="389" y="569"/>
      <point x="409" y="570"/>
      <point x="429" y="570" type="curve" smooth="yes"/>
      <point x="553" y="570"/>
      <point x="599" y="508"/>
      <point x="599" y="415" type="curve" smooth="yes"/>
      <point x="599" y="233"/>
      <point x="489" y="123"/>
    </contour>
  </outline>
</glyph>
<glyph name="multiply" format="2">
  <advance width="578"/>
  <unicode hex="00D7"/>
  <outline>
    <contour>
      <point x="164" y="74" type="line"/>
      <point x="336" y="213" type="line"/>
      <point x="437" y="78" type="line"/>
      <point x="539" y="160" type="line"/>
      <point x="437" y="295" type="line"/>
      <point x="608" y="433" type="line"/>
      <point x="538" y="525" type="line"/>
      <point x="366" y="386" type="line"/>
      <point x="265" y="521" type="line"/>
      <point x="163" y="439" type="line"/>
      <point x="265" y="304" type="line"/>
      <point x="94" y="166" type="line"/>
    </contour>
  </outline>
</glyph>
<glyph name="Oslash" format="2">
  <advance width="767"/>
  <unicode hex="00D8"/>
  <anchor x="444" y="687" name="top"/>
  <outline>
    <contour>
      <point x="124" y="-45" type="line"/>
      <point x="188" y="28" type="line"/>
      <point x="232" y="0"/>
      <point x="285" y="-14"/>
      <point x="346" y="-14" type="curve" smooth="yes"/>
      <point x="594" y="-14"/>
      <point x="739" y="209"/>
      <point x="739" y="418" type="curve" smooth="yes"/>
      <point x="739" y="490"/>
      <point x="721" y="550"/>
      <point x="689" y="597" type="curve"/>
      <point x="757" y="675" type="line"/>
      <point x="679" y="738" type="line"/>
      <point x="617" y="667" type="line"/>
      <point x="573" y="695"/>
      <point x="521" y="709"/>
      <point x="461" y="709" type="curve" smooth="yes"/>
      <point x="216" y="709"/>
      <point x="68" y="484"/>
      <point x="68" y="277" type="curve" smooth="yes"/>
      <point x="68" y="205"/>
      <point x="84" y="146"/>
      <point x="117" y="99" type="curve"/>
      <point x="46" y="18" type="line"/>
    </contour>
    <contour>
      <point x="356" y="115" type="curve" smooth="yes"/>
      <point x="325" y="115"/>
      <point x="300" y="122"/>
      <point x="281" y="135" type="curve"/>
      <point x="578" y="471" type="line"/>
      <point x="582" y="453"/>
      <point x="584" y="433"/>
      <point x="584" y="412" type="curve" smooth="yes"/>
      <point x="584" y="264"/>
      <point x="479" y="115"/>
    </contour>
    <contour>
      <point x="228" y="225" type="line"/>
      <point x="224" y="242"/>
      <point x="223" y="261"/>
      <point x="223" y="282" type="curve" smooth="yes"/>
      <point x="223" y="429"/>
      <point x="326" y="580"/>
      <point x="450" y="580" type="curve" smooth="yes"/>
      <point x="479" y="580"/>
      <point x="504" y="573"/>
      <point x="523" y="560" type="curve"/>
    </contour>
  </outline>
</glyph>
<glyph name="Thorn" format="2">
  <advance width="653"/>
  <unicode hex="00DE"/>
  <outline>
    <contour>
      <point x="79" y="0" type="line"/>
      <point x="234" y="0" type="line"/>
      <point x="265" y="128" type="line"/>
      <point x="334" y="128" type="line" smooth="yes"/>
      <point x="599" y="128"/>
      <point x="698" y="279"/>
      <point x="698" y="402" type="curve" smooth="yes"/>
      <point x="698" y="503"/>
      <point x="625" y="596"/>
      <point x="458" y="596" type="curve" smooth="yes"/>
      <point x="443" y="596"/>
      <point x="396" y="596"/>
      <point x="377" y="593" type="curve"/>
      <point x="401" y="693" type="line"/>
      <point x="245" y="693" type="line"/>
    </contour>
    <contour>
      <point x="297" y="261" type="line"/>
      <point x="345" y="461" type="line"/>
      <point x="361" y="462"/>
      <point x="385" y="464"/>
      <point x="408" y="464" type="curve" smooth="yes"/>
      <point x="487" y="464"/>
      <point x="537" y="447"/>
      <point x="537" y="392" type="curve" smooth="yes"/>
      <point x="537" y="292"/>
      <point x="458" y="261"/>
      <point x="346" y="261" type="curve" smooth="yes"/>
    </contour>
  </outline>
</glyph>
<glyph name="germandbls" format="2">
  <advance width="647"/>
  <unicode hex="00DF"/>
  <outline>
    <contour>
      <point x="38" y="-189" type="line"/>
      <point x="102" y="-141"/>
      <point x="155" y="-42"/>
      <point x="200" y="149" type="curve" smooth="yes"/>
      <point x="295" y="548" type="line"/>
      <point x="314" y="623"/>
      <point x="359" y="650"/>
      <point x="407" y="650" type="curve" smooth="yes"/>
      <point x="446" y="650"/>
      <point x="480" y="636"/>
      <point x="480" y="605" type="curve" smooth="yes"/>
      <point x="480" y="523"/>
      <point x="323" y="488"/>
      <point x="323" y="366" type="curve" smooth="yes"/>
      <point x="323" y="327"/>
      <point x="334" y="293"/>
      <point x="386" y="254" type="curve" smooth="yes"/>
      <point x="454" y="204"/>
      <point x="464" y="194"/>
      <point x="464" y="168" type="curve" smooth="yes"/>
      <point x="464" y="135"/>
      <point x="432" y="110"/>
      <point x="383" y="110" type="curve" smooth="yes"/>
      <point x="354" y="110"/>
      <point x="319" y="118"/>
      <point x="280" y="141" type="curve"/>
      <point x="227" y="24" type="line"/>
      <point x="271" y="0"/>
      <point x="324" y="-12"/>
      <point x="377" y="-12" type="curve" smooth="yes"/>
      <point x="497" y="-12"/>
      <point x="613" y="51"/>
      <point x="613" y="184" type="curve" smooth="yes"/>
      <point x="613" y="231"/>
      <point x="594" y="274"/>
      <point x="558" y="301" type="curve" smooth="yes"/>
      <point x="506" y="340"/>
      <point x="476" y="358"/>
      <point x="476" y="386" type="curve" smooth="yes"/>
      <point x="476" y="467"/>
      <point x="622" y="488"/>
      <point x="622" y="628" type="curve" smooth="yes"/>
      <point x="622" y="719"/>
      <point x="524" y="776"/>
      <point x="416" y="776" type="curve" smooth="yes"/>
      <point x="301" y="776"/>
      <point x="189" y="720"/>
      <point x="154" y="568" type="curve"/>
      <point x="47" y="118" type="line"/>
      <point x="26" y="24"/>
      <point x="-21" y="-106"/>
      <point x="-91" y="-170" type="curve"/>
    </contour>
  </outline>
</glyph>
<glyph name="ae" format="2">
  <advance width="827"/>
  <unicode hex="00E6"/>
  <anchor x="337" y="0" name="bottom"/>
  <anchor x="463" y="526" name="top"/>
  <outline>
    <contour>
      <point x="180" y="-14" type="curve" smooth="yes"/>
      <point x="252" y="-14"/>
      <point x="334" y="17"/>
      <point x="380" y="71" type="curve"/>
      <point x="423" y="7"/>
      <point x="490" y="-14"/>
      <point x="563" y="-14" type="curve" smooth="yes"/>
      <point x="619" y="-14"/>
      <point x="675" y="-2"/>
      <point x="726" y="15" type="curve"/>
      <point x="715" y="132" type="line"/>
      <point x="676" y="117"/>
      <point x="631" y="110"/>
      <point x="588" y="110" type="curve" smooth="yes"/>
      <point x="521" y="110"/>
      <point x="492" y="132"/>
      <point x="483" y="187" type="curve"/>
      <point x="483" y="187"/>
      <point x="483" y="187"/>
      <point x="483" y="187" type="curve" smooth="yes"/>
      <point x="674" y="187"/>
      <point x="812" y="243"/>
      <point x="812" y="392" type="curve" smooth="yes"/>
      <point x="812" y="492"/>
      <point x="735" y="540"/>
      <point x="647" y="540" type="curve" smooth="yes"/>
      <point x="578" y="540"/>
      <point x="498" y="510"/>
      <point x="447" y="453" type="curve"/>
      <point x="407" y="518"/>
      <point x="337" y="540"/>
      <point x="262" y="540" type="curve" smooth="yes"/>
      <point x="206" y="540"/>
      <point x="148" y="527"/>
      <point x="101" y="511" type="curve"/>
      <point x="112" y="394" type="line"/>
      <point x="151" y="409"/>
      <point x="196" y="416"/>
      <point x="239" y="416" type="curve" smooth="yes"/>
      <point x="306" y="416"/>
      <point x="335" y="394"/>
      <point x="344" y="339" type="curve" smooth="yes"/>
      <point x="344" y="339"/>
      <point x="344" y="339"/>
      <point x="344" y="339" type="curve"/>
      <point x="153" y="339"/>
      <point x="15" y="283"/>
      <point x="15" y="134" type="curve" smooth="yes"/>
      <point x="15" y="30"/>
      <point x="93" y="-14"/>
    </contour>
    <contour>
      <point x="204" y="104" type="curve" smooth="yes"/>
      <point x="169" y="104"/>
      <point x="150" y="121"/>
      <point x="150" y="152" type="curve" smooth="yes"/>
      <point x="150" y="188"/>
      <point x="175" y="232"/>
      <point x="340" y="237" type="curve"/>
      <point x="324" y="157"/>
      <point x="272" y="104"/>
    </contour>
    <contour>
      <point x="487" y="289" type="curve"/>
      <point x="503" y="369"/>
      <point x="555" y="422"/>
      <point x="623" y="422" type="curve" smooth="yes"/>
      <point x="658" y="422"/>
      <point x="677" y="405"/>
      <point x="677" y="374" type="curve" smooth="yes"/>
      <point x="677" y="338"/>
      <point x="652" y="294"/>
    </contour>
  </outline>
</glyph>
<glyph name="ccedilla" format="2">
  <advance width="492"/>
  <unicode hex="00E7"/>
  <outline>
    <contour>
      <point x="175" y="-221" type="curve" smooth="yes"/>
      <point x="245" y="-221"/>
      <point x="313" y="-189"/>
      <point x="313" y="-111" type="curve" smooth="yes"/>
      <point x="313" y="-84"/>
      <point x="298" y="-59"/>
      <point x="269" y="-44" type="curve"/>
      <point x="274" y="-36"/>
      <point x="281" y="-25"/>
      <point x="289" y="-14" type="curve"/>
      <point x="345" y="-11"/>
      <point x="384" y="1"/>
      <point x="419" y="14" type="curve"/>
      <point x="408" y="133" type="line"/>
      <point x="380" y="121"/>
      <point x="343" y="112"/>
      <point x="304" y="112" type="curve" smooth="yes"/>
      <point x="225" y="112"/>
      <point x="201" y="158"/>
      <point x="201" y="226" type="curve" smooth="yes"/>
      <point x="201" y="341"/>
      <point x="263" y="414"/>
      <point x="362" y="414" type="curve" smooth="yes"/>
      <point x="403" y="414"/>
      <point x="429" y="404"/>
      <point x="456" y="393" type="curve"/>
      <point x="507" y="509" type="line"/>
      <point x="468" y="528"/>
      <point x="422" y="540"/>
      <point x="362" y="540" type="curve" smooth="yes"/>
      <point x="169" y="540"/>
      <point x="47" y="391"/>
      <point x="47" y="210" type="curve" smooth="yes"/>
      <point x="47" y="109"/>
      <point x="92" y="22"/>
      <point x="201" y="-5" type="curve"/>
      <point x="188" y="-25"/>
      <point x="174" y="-45"/>
      <point x="161" y="-65" type="curve"/>
      <point x="202" y="-81"/>
      <point x="211" y="-91"/>
      <point x="211" y="-106" type="curve" smooth="yes"/>
      <point x="211" y="-122"/>
      <point x="198" y="-130"/>
      <point x="171" y="-130" type="curve" smooth="yes"/>
      <point x="151" y="-130"/>
      <point x="127" y="-124"/>
      <point x="110" y="-116" type="curve"/>
      <point x="74" y="-198" type="line"/>
      <point x="102" y="-213"/>
      <point x="139" y="-221"/>
    </contour>
  </outline>
</glyph>
<glyph name="eth" format="2">
  <advance width="616"/>
  <unicode hex="00F0"/>
  <outline>
    <contour>
      <point x="250" y="-14" type="curve" smooth="yes"/>
      <point x="469" y="-14"/>
      <point x="575" y="170"/>
      <point x="575" y="397" type="curve" smooth="yes"/>
      <point x="575" y="476"/>
      <point x="563" y="548"/>
      <point x="532" y="612" type="curve"/>
      <point x="641" y="647" type="line"/>
      <point x="631" y="732" type="line"/>
      <point x="488" y="685" type="line"/>
      <point x="461" y="720"/>
      <point x="429" y="750"/>
      <point x="390" y="776" type="curve"/>
      <point x="291" y="709" type="line"/>
      <point x="321" y="688"/>
      <point x="345" y="666"/>
      <point x="363" y="645" type="curve"/>
      <point x="279" y="618" type="line"/>
      <point x="290" y="535" type="line"/>
      <point x="408" y="573" type="line"/>
      <point x="423" y="540"/>
      <point x="429" y="505"/>
      <point x="433" y="465" type="curve"/>
      <point x="433" y="465"/>
      <point x="433" y="465"/>
      <point x="433" y="465" type="curve" smooth="yes"/>
      <point x="401" y="480"/>
      <point x="362" y="489"/>
      <point x="319" y="489" type="curve" smooth="yes"/>
      <point x="192" y="489"/>
      <point x="45" y="416"/>
      <point x="45" y="201" type="curve" smooth="yes"/>
      <point x="45" y="83"/>
      <point x="119" y="-14"/>
    </contour>
    <contour>
      <point x="268" y="115" type="curve" smooth="yes"/>
      <point x="217" y="115"/>
      <point x="195" y="155"/>
      <point x="195" y="203" type="curve" smooth="yes"/>
      <point x="195" y="296"/>
      <point x="238" y="371"/>
      <point x="323" y="371" type="curve" smooth="yes"/>
      <point x="351" y="371"/>
      <point x="383" y="363"/>
      <point x="419" y="346" type="curve"/>
      <point x="411" y="236"/>
      <point x="364" y="115"/>
    </contour>
  </outline>
</glyph>
<glyph name="divide" format="2">
  <advance width="578"/>
  <unicode hex="00F7"/>
  <outline>
    <contour>
      <point x="95" y="236" type="line"/>
      <point x="565" y="236" type="line"/>
      <point x="596" y="361" type="line"/>
      <point x="126" y="361" type="line"/>
    </contour>
    <contour>
      <point x="283" y="11" type="curve" smooth="yes"/>
      <point x="331" y="11"/>
      <point x="376" y="47"/>
      <point x="376" y="107" type="curve" smooth="yes"/>
      <point x="376" y="158"/>
      <point x="344" y="181"/>
      <point x="301" y="181" type="curve" smooth="yes"/>
      <point x="253" y="181"/>
      <point x="208" y="145"/>
      <point x="208" y="85" type="curve" smooth="yes"/>
      <point x="208" y="34"/>
      <point x="240" y="11"/>
    </contour>
    <contour>
      <point x="380" y="415" type="curve" smooth="yes"/>
      <point x="428" y="415"/>
      <point x="473" y="451"/>
      <point x="473" y="511" type="curve" smooth="yes"/>
      <point x="473" y="562"/>
      <point x="441" y="585"/>
      <point x="398" y="585" type="curve" smooth="yes"/>
      <point x="350" y="585"/>
      <point x="305" y="549"/>
      <point x="305" y="489" type="curve" smooth="yes"/>
      <point x="305" y="438"/>
      <point x="337" y="415"/>
    </contour>
  </outline>
</glyph>
<glyph name="oslash" format="2">
  <advance width="584"/>
  <unicode hex="00F8"/>
  <outline>
    <contour>
      <point x="142" y="-39" type="line"/>
      <point x="191" y="17" type="line"/>
      <point x="223" y="-2"/>
      <point x="262" y="-14"/>
      <point x="313" y="-14" type="curve" smooth="yes"/>
      <point x="508" y="-14"/>
      <point x="609" y="164"/>
      <point x="609" y="323" type="curve" smooth="yes"/>
      <point x="609" y="374"/>
      <point x="598" y="420"/>
      <point x="575" y="455" type="curve"/>
      <point x="626" y="513" type="line"/>
      <point x="561" y="566" type="line"/>
      <point x="515" y="513" type="line"/>
      <point x="484" y="530"/>
      <point x="446" y="540"/>
      <point x="401" y="540" type="curve" smooth="yes"/>
      <point x="212" y="540"/>
      <point x="105" y="362"/>
      <point x="105" y="203" type="curve" smooth="yes"/>
      <point x="105" y="155"/>
      <point x="115" y="114"/>
      <point x="134" y="79" type="curve"/>
      <point x="77" y="14" type="line"/>
    </contour>
    <contour>
      <point x="323" y="109" type="curve" smooth="yes"/>
      <point x="308" y="109"/>
      <point x="293" y="111"/>
      <point x="279" y="116" type="curve"/>
      <point x="465" y="328" type="line"/>
      <point x="465" y="326"/>
      <point x="465" y="323"/>
      <point x="465" y="321" type="curve" smooth="yes"/>
      <point x="463" y="219"/>
      <point x="425" y="109"/>
    </contour>
    <contour>
      <point x="244" y="204" type="line"/>
      <point x="244" y="206"/>
      <point x="244" y="209"/>
      <point x="244" y="211" type="curve" smooth="yes"/>
      <point x="246" y="313"/>
      <point x="284" y="423"/>
      <point x="386" y="423" type="curve" smooth="yes"/>
      <point x="401" y="423"/>
      <point x="416" y="421"/>
      <point x="430" y="416" type="curve"/>
    </contour>
  </outline>
</glyph>
<glyph name="thorn" format="2">
  <advance width="588"/>
  <unicode hex="00FE"/>
  <outline>
    <contour>
      <point x="-29" y="-185" type="line"/>
      <point x="119" y="-185" type="line"/>
      <point x="162" y="-4" type="line"/>
      <point x="186" y="-8"/>
      <point x="209" y="-10"/>
      <point x="231" y="-10" type="curve" smooth="yes"/>
      <point x="420" y="-10"/>
      <point x="553" y="126"/>
      <point x="553" y="321" type="curve" smooth="yes"/>
      <point x="553" y="441"/>
      <point x="488" y="538"/>
      <point x="339" y="538" type="curve" smooth="yes"/>
      <point x="323" y="538"/>
      <point x="307" y="537"/>
      <point x="292" y="536" type="curve"/>
      <point x="350" y="776" type="line"/>
      <point x="195" y="752" type="line"/>
    </contour>
    <contour>
      <point x="232" y="112" type="curve" smooth="yes"/>
      <point x="219" y="112"/>
      <point x="206" y="112"/>
      <point x="191" y="115" type="curve"/>
      <point x="261" y="407" type="line"/>
      <point x="280" y="411"/>
      <point x="299" y="413"/>
      <point x="320" y="413" type="curve" smooth="yes"/>
      <point x="383" y="413"/>
      <point x="405" y="367"/>
      <point x="405" y="310" type="curve" smooth="yes"/>
      <point x="405" y="193"/>
      <point x="341" y="112"/>
    </contour>
  </outline>
</glyph>
<glyph name="Aogonek" format="2">
  <advance width="724"/>
  <unicode hex="0104"/>
  <outline>
    <contour>
      <point x="512" y="-221" type="curve" smooth="yes"/>
      <point x="547" y="-221"/>
      <point x="580" y="-213"/>
      <point x="607" y="-201" type="curve"/>
      <point x="617" y="-102" type="line"/>
      <point x="608" y="-105"/>
      <point x="583" y="-113"/>
      <point x="564" y="-113" type="curve" smooth="yes"/>
      <point x="547" y="-113"/>
      <point x="539" y="-108"/>
      <point x="539" y="-97" type="curve" smooth="yes"/>
      <point x="539" y="-80"/>
      <point x="559" y="-52"/>
      <point x="634" y="0" type="curve"/>
      <point x="610" y="214"/>
      <point x="577" y="500"/>
      <point x="534" y="693" type="curve"/>
      <point x="395" y="693" type="line"/>
      <point x="256" y="501"/>
      <point x="133" y="298"/>
      <point x="-40" y="0" type="curve"/>
      <point x="123" y="0" type="line"/>
      <point x="150" y="52"/>
      <point x="180" y="102"/>
      <point x="207" y="151" type="curve"/>
      <point x="467" y="151" type="line"/>
      <point x="471" y="102"/>
      <point x="474" y="52"/>
      <point x="477" y="0" type="curve"/>
      <point x="514" y="0" type="line"/>
      <point x="428" y="-48"/>
      <point x="402" y="-96"/>
      <point x="402" y="-136" type="curve" smooth="yes"/>
      <point x="402" y="-199"/>
      <point x="455" y="-221"/>
    </contour>
    <contour>
      <point x="270" y="273" type="line"/>
      <point x="321" y="364"/>
      <point x="375" y="452"/>
      <point x="431" y="541" type="curve"/>
      <point x="444" y="449"/>
      <point x="450" y="354"/>
      <point x="457" y="273" type="curve"/>
    </contour>
  </outline>
</glyph>
<glyph name="aogonek" format="2">
  <advance width="598"/>
  <unicode hex="0105"/>
  <outline>
    <contour>
      <point x="446" y="-221" type="curve" smooth="yes"/>
      <point x="481" y="-221"/>
      <point x="514" y="-213"/>
      <point x="541" y="-201" type="curve"/>
      <point x="551" y="-102" type="line"/>
      <point x="542" y="-105"/>
      <point x="517" y="-113"/>
      <point x="498" y="-113" type="curve" smooth="yes"/>
      <point x="481" y="-113"/>
      <point x="473" y="-108"/>
      <point x="473" y="-97" type="curve" smooth="yes"/>
      <point x="473" y="-80"/>
      <point x="496" y="-50"/>
      <point x="583" y="10" type="curve"/>
      <point x="568" y="48"/>
      <point x="558" y="96"/>
      <point x="558" y="145" type="curve" smooth="yes"/>
      <point x="558" y="172"/>
      <point x="561" y="200"/>
      <point x="568" y="227" type="curve"/>
      <point x="633" y="499" type="line"/>
      <point x="556" y="536"/>
      <point x="453" y="538"/>
      <point x="428" y="538" type="curve" smooth="yes"/>
      <point x="244" y="538"/>
      <point x="105" y="389"/>
      <point x="105" y="204" type="curve" smooth="yes"/>
      <point x="105" y="85"/>
      <point x="157" y="-14"/>
      <point x="291" y="-14" type="curve" smooth="yes"/>
      <point x="347" y="-14"/>
      <point x="392" y="8"/>
      <point x="429" y="39" type="curve"/>
      <point x="434" y="24"/>
      <point x="439" y="11"/>
      <point x="446" y="-1" type="curve"/>
      <point x="362" y="-48"/>
      <point x="336" y="-96"/>
      <point x="336" y="-136" type="curve" smooth="yes"/>
      <point x="336" y="-199"/>
      <point x="389" y="-221"/>
    </contour>
    <contour>
      <point x="328" y="111" type="curve" smooth="yes"/>
      <point x="271" y="111"/>
      <point x="253" y="151"/>
      <point x="253" y="215" type="curve" smooth="yes"/>
      <point x="253" y="318"/>
      <point x="324" y="415"/>
      <point x="415" y="415" type="curve" smooth="yes"/>
      <point x="435" y="415"/>
      <point x="447" y="414"/>
      <point x="464" y="411" type="curve"/>
      <point x="425" y="253" type="line"/>
      <point x="418" y="222"/>
      <point x="412" y="183"/>
      <point x="409" y="150" type="curve"/>
      <point x="381" y="122"/>
      <point x="359" y="111"/>
    </contour>
  </outline>
</glyph>
<glyph name="dcroat" format="2">
  <advance width="600"/>
  <unicode hex="0111"/>
  <outline>
    <contour>
      <point x="292" y="-14" type="curve" smooth="yes"/>
      <point x="348" y="-14"/>
      <point x="394" y="8"/>
      <point x="431" y="39" type="curve"/>
      <point x="438" y="20"/>
      <point x="444" y="7"/>
      <point x="452" y="-9" type="curve"/>
      <point x="585" y="10" type="line"/>
      <point x="562" y="69"/>
      <point x="551" y="151"/>
      <point x="570" y="227" type="curve"/>
      <point x="658" y="596" type="line"/>
      <point x="732" y="596" type="line"/>
      <point x="754" y="689" type="line"/>
      <point x="681" y="689" type="line"/>
      <point x="702" y="776" type="line"/>
      <point x="547" y="752" type="line"/>
      <point x="532" y="689" type="line"/>
      <point x="400" y="689" type="line"/>
      <point x="378" y="596" type="line"/>
      <point x="509" y="596" type="line"/>
      <point x="493" y="526" type="line"/>
      <point x="472" y="531"/>
      <point x="452" y="534"/>
      <point x="428" y="534" type="curve" smooth="yes"/>
      <point x="242" y="534"/>
      <point x="105" y="385"/>
      <point x="105" y="203" type="curve" smooth="yes"/>
      <point x="105" y="83"/>
      <point x="159" y="-14"/>
    </contour>
    <contour>
      <point x="329" y="111" type="curve" smooth="yes"/>
      <point x="272" y="111"/>
      <point x="253" y="150"/>
      <point x="253" y="214" type="curve" smooth="yes"/>
      <point x="253" y="314"/>
      <point x="321" y="411"/>
      <point x="415" y="411" type="curve" smooth="yes"/>
      <point x="445" y="411"/>
      <point x="447" y="410"/>
      <point x="464" y="407" type="curve"/>
      <point x="427" y="253" type="line"/>
      <point x="420" y="222"/>
      <point x="414" y="183"/>
      <point x="411" y="150" type="curve"/>
      <point x="383" y="122"/>
      <point x="360" y="111"/>
    </contour>
  </outline>
</glyph>
<glyph name="Eogonek" format="2">
  <advance width="604"/>
  <unicode hex="0118"/>
  <outline>
    <contour>
      <point x="433" y="-221" type="curve" smooth="yes"/>
      <point x="468" y="-221"/>
      <point x="501" y="-213"/>
      <point x="528" y="-201" type="curve"/>
      <point x="538" y="-102" type="line"/>
      <point x="529" y="-105"/>
      <point x="504" y="-113"/>
      <point x="485" y="-113" type="curve" smooth="yes"/>
      <point x="468" y="-113"/>
      <point x="460" y="-108"/>
      <point x="460" y="-97" type="curve" smooth="yes"/>
      <point x="460" y="-80"/>
      <point x="485" y="-47"/>
      <point x="555" y="0" type="curve"/>
      <point x="587" y="129" type="line"/>
      <point x="267" y="129" type="line"/>
      <point x="307" y="299" type="line"/>
      <point x="569" y="299" type="line"/>
      <point x="600" y="425" type="line"/>
      <point x="338" y="425" type="line"/>
      <point x="370" y="565" type="line"/>
      <point x="667" y="565" type="line"/>
      <point x="699" y="693" type="line"/>
      <point x="246" y="693" type="line"/>
      <point x="80" y="0" type="line"/>
      <point x="435" y="0" type="line"/>
      <point x="349" y="-46"/>
      <point x="323" y="-96"/>
      <point x="323" y="-136" type="curve" smooth="yes"/>
      <point x="323" y="-199"/>
      <point x="376" y="-221"/>
    </contour>
  </outline>
</glyph>
<glyph name="eogonek" format="2">
  <advance width="540"/>
  <unicode hex="0119"/>
  <outline>
    <contour>
      <point x="351" y="-221" type="curve" smooth="yes"/>
      <point x="386" y="-221"/>
      <point x="419" y="-213"/>
      <point x="446" y="-201" type="curve"/>
      <point x="456" y="-102" type="line"/>
      <point x="447" y="-105"/>
      <point x="422" y="-113"/>
      <point x="403" y="-113" type="curve" smooth="yes"/>
      <point x="386" y="-113"/>
      <point x="378" y="-108"/>
      <point x="378" y="-97" type="curve" smooth="yes"/>
      <point x="378" y="-80"/>
      <point x="401" y="-46"/>
      <point x="495" y="15" type="curve"/>
      <point x="484" y="132" type="line"/>
      <point x="445" y="117"/>
      <point x="400" y="110"/>
      <point x="357" y="110" type="curve" smooth="yes"/>
      <point x="290" y="110"/>
      <point x="261" y="132"/>
      <point x="252" y="187" type="curve"/>
      <point x="252" y="187"/>
      <point x="252" y="187"/>
      <point x="252" y="187" type="curve" smooth="yes"/>
      <point x="444" y="187"/>
      <point x="585" y="243"/>
      <point x="585" y="392" type="curve" smooth="yes"/>
      <point x="585" y="485"/>
      <point x="513" y="540"/>
      <point x="420" y="540" type="curve" smooth="yes"/>
      <point x="230" y="540"/>
      <point x="105" y="376"/>
      <point x="105" y="206" type="curve" smooth="yes"/>
      <point x="105" y="88"/>
      <point x="163" y="-11"/>
      <point x="321" y="-14" type="curve" smooth="yes"/>
      <point x="324" y="-14"/>
      <point x="326" y="-14"/>
      <point x="329" y="-14" type="curve"/>
      <point x="266" y="-53"/>
      <point x="241" y="-96"/>
      <point x="241" y="-136" type="curve" smooth="yes"/>
      <point x="241" y="-199"/>
      <point x="294" y="-221"/>
    </contour>
    <contour>
      <point x="256" y="289" type="curve"/>
      <point x="272" y="369"/>
      <point x="328" y="422"/>
      <point x="396" y="422" type="curve" smooth="yes"/>
      <point x="431" y="422"/>
      <point x="450" y="405"/>
      <point x="450" y="374" type="curve" smooth="yes"/>
      <point x="450" y="338"/>
      <point x="421" y="294"/>
    </contour>
  </outline>
</glyph>
<glyph name="Hbar" format="2">
  <advance width="724"/>
  <unicode hex="0126"/>
  <outline>
    <contour>
      <point x="20" y="0" type="line"/>
      <point x="175" y="0" type="line"/>
      <point x="246" y="295" type="line"/>
      <point x="492" y="295" type="line"/>
      <point x="421" y="0" type="line"/>
      <point x="577" y="0" type="line"/>
      <point x="698" y="502" type="line"/>
      <point x="776" y="502" type="line"/>
      <point x="802" y="612" type="line"/>
      <point x="724" y="612" type="line"/>
      <point x="744" y="693" type="line"/>
      <point x="588" y="693" type="line"/>
      <point x="568" y="612" type="line"/>
      <point x="322" y="612" type="line"/>
      <point x="342" y="693" type="line"/>
      <point x="186" y="693" type="line"/>
      <point x="166" y="612" type="line"/>
      <point x="86" y="612" type="line"/>
      <point x="60" y="502" type="line"/>
      <point x="140" y="502" type="line"/>
    </contour>
    <contour>
      <point x="278" y="427" type="line"/>
      <point x="296" y="502" type="line"/>
      <point x="542" y="502" type="line"/>
      <point x="524" y="427" type="line"/>
    </contour>
  </outline>
</glyph>
<glyph name="hbar" format="2">
  <advance width="575"/>
  <unicode hex="0127"/>
  <outline>
    <contour>
      <point x="75" y="0" type="line"/>
      <point x="224" y="0" type="line"/>
      <point x="319" y="394" type="line"/>
      <point x="338" y="398"/>
      <point x="357" y="401"/>
      <point x="378" y="401" type="curve" smooth="yes"/>
      <point x="429" y="401"/>
      <point x="442" y="369"/>
      <point x="442" y="332" type="curve" smooth="yes"/>
      <point x="442" y="309"/>
      <point x="436" y="285"/>
      <point x="432" y="266" type="curve" smooth="yes"/>
      <point x="368" y="0" type="line"/>
      <point x="517" y="0" type="line"/>
      <point x="583" y="272" type="line" smooth="yes"/>
      <point x="590" y="299"/>
      <point x="593" y="326"/>
      <point x="593" y="350" type="curve" smooth="yes"/>
      <point x="593" y="449"/>
      <point x="537" y="523"/>
      <point x="428" y="523" type="curve" smooth="yes"/>
      <point x="401" y="523"/>
      <point x="374" y="518"/>
      <point x="347" y="513" type="curve"/>
      <point x="367" y="596" type="line"/>
      <point x="509" y="596" type="line"/>
      <point x="532" y="689" type="line"/>
      <point x="389" y="689" type="line"/>
      <point x="410" y="776" type="line"/>
      <point x="255" y="752" type="line"/>
      <point x="240" y="689" type="line"/>
      <point x="178" y="689" type="line"/>
      <point x="155" y="596" type="line"/>
      <point x="217" y="596" type="line"/>
    </contour>
  </outline>
</glyph>
<glyph name="Iogonek" format="2">
  <advance width="322"/>
  <unicode hex="012E"/>
  <outline>
    <contour>
      <point x="42" y="-221" type="curve" smooth="yes"/>
      <point x="73" y="-221"/>
      <point x="117" y="-216"/>
      <point x="145" y="-205" type="curve"/>
      <point x="157" y="-105" type="line"/>
      <point x="133" y="-112"/>
      <point x="116" y="-113"/>
      <point x="104" y="-113" type="curve" smooth="yes"/>
      <point x="85" y="-113"/>
      <point x="79" y="-107"/>
      <point x="79" y="-96" type="curve" smooth="yes"/>
      <point x="79" y="-66"/>
      <point x="136" y="-27"/>
      <point x="175" y="0" type="curve"/>
      <point x="342" y="693" type="line"/>
      <point x="186" y="693" type="line"/>
      <point x="20" y="0" type="line"/>
      <point x="54" y="0" type="line"/>
      <point x="-1" y="-37"/>
      <point x="-58" y="-88"/>
      <point x="-58" y="-144" type="curve" smooth="yes"/>
      <point x="-58" y="-189"/>
      <point x="-21" y="-221"/>
    </contour>
  </outline>
</glyph>
<glyph name="iogonek" format="2">
  <advance width="293"/>
  <unicode hex="012F"/>
  <outline>
    <contour>
      <point x="31" y="-221" type="curve" smooth="yes"/>
      <point x="62" y="-221"/>
      <point x="106" y="-216"/>
      <point x="134" y="-205" type="curve"/>
      <point x="146" y="-105" type="line"/>
      <point x="122" y="-112"/>
      <point x="105" y="-113"/>
      <point x="93" y="-113" type="curve" smooth="yes"/>
      <point x="74" y="-113"/>
      <point x="68" y="-107"/>
      <point x="68" y="-96" type="curve" smooth="yes"/>
      <point x="68" y="-67"/>
      <point x="125" y="-27"/>
      <point x="163" y="0" type="curve"/>
      <point x="289" y="526" type="line"/>
      <point x="140" y="526" type="line"/>
      <point x="15" y="0" type="line"/>
      <point x="43" y="0" type="line"/>
      <point x="-12" y="-37"/>
      <point x="-69" y="-88"/>
      <point x="-69" y="-144" type="curve" smooth="yes"/>
      <point x="-69" y="-189"/>
      <point x="-32" y="-221"/>
    </contour>
    <contour>
      <point x="235" y="590" type="curve" smooth="yes"/>
      <point x="290" y="590"/>
      <point x="338" y="635"/>
      <point x="338" y="691" type="curve" smooth="yes"/>
      <point x="338" y="742"/>
      <point x="298" y="766"/>
      <point x="257" y="766" type="curve" smooth="yes"/>
      <point x="202" y="766"/>
      <point x="154" y="721"/>
      <point x="154" y="665" type="curve" smooth="yes"/>
      <point x="154" y="614"/>
      <point x="194" y="590"/>
    </contour>
  </outline>
</glyph>
<glyph name="dotlessi" format="2">
  <advance width="293"/>
  <unicode hex="0131"/>
  <outline>
    <contour>
      <point x="75" y="0" type="line"/>
      <point x="223" y="0" type="line"/>
      <point x="349" y="526" type="line"/>
      <point x="200" y="526" type="line"/>
    </contour>
  </outline>
</glyph>
<glyph name="Lslash" format="2">
  <advance width="574"/>
  <unicode hex="0141"/>
  <outline>
    <contour>
      <point x="80" y="0" type="line"/>
      <point x="542" y="0" type="line"/>
      <point x="574" y="132" type="line"/>
      <point x="267" y="132" type="line"/>
      <point x="316" y="335" type="line"/>
      <point x="503" y="419" type="line"/>
      <point x="478" y="520" type="line"/>
      <point x="346" y="460" type="line"/>
      <point x="402" y="693" type="line"/>
      <point x="246" y="693" type="line"/>
      <point x="171" y="382" type="line"/>
      <point x="43" y="324" type="line"/>
      <point x="67" y="223" type="line"/>
      <point x="141" y="256" type="line"/>
    </contour>
  </outline>
</glyph>
<glyph name="lslash" format="2">
  <advance width="325"/>
  <unicode hex="0142"/>
  <outline>
    <contour>
      <point x="273" y="-10" type="curve"/>
      <point x="303" y="113" type="line"/>
      <point x="234" y="118"/>
      <point x="230" y="152"/>
      <point x="241" y="200" type="curve" smooth="yes"/>
      <point x="288" y="396" type="line"/>
      <point x="440" y="464" type="line"/>
      <point x="418" y="556" type="line"/>
      <point x="316" y="510" type="line"/>
      <point x="380" y="776" type="line"/>
      <point x="225" y="752" type="line"/>
      <point x="149" y="436" type="line"/>
      <point x="53" y="393" type="line"/>
      <point x="75" y="301" type="line"/>
      <point x="122" y="322" type="line"/>
      <point x="98" y="221" type="line" smooth="yes"/>
      <point x="69" y="97"/>
      <point x="83" y="-10"/>
    </contour>
  </outline>
</glyph>
<glyph name="Eng" format="2">
  <advance width="752"/>
  <unicode hex="014A"/>
  <outline>
    <contour>
      <point x="398" y="-187" type="curve" smooth="yes"/>
      <point x="514" y="-187"/>
      <point x="579" y="-110"/>
      <point x="610" y="17" type="curve" smooth="yes"/>
      <point x="772" y="693" type="line"/>
      <point x="617" y="693" type="line"/>
      <point x="518" y="276" type="line"/>
      <point x="462" y="408"/>
      <point x="380" y="568"/>
      <point x="305" y="693" type="curve"/>
      <point x="186" y="693" type="line"/>
      <point x="20" y="0" type="line"/>
      <point x="173" y="0" type="line"/>
      <point x="283" y="459" type="line"/>
      <point x="352" y="338"/>
      <point x="415" y="196"/>
      <point x="467" y="57" type="curve"/>
      <point x="463" y="41" type="line" smooth="yes"/>
      <point x="447" y="-22"/>
      <point x="428" y="-61"/>
      <point x="384" y="-61" type="curve" smooth="yes"/>
      <point x="372" y="-61"/>
      <point x="358" y="-58"/>
      <point x="342" y="-52" type="curve"/>
      <point x="295" y="-170" type="line"/>
      <point x="334" y="-182"/>
      <point x="367" y="-187"/>
    </contour>
  </outline>
</glyph>
<glyph name="eng" format="2">
  <advance width="577"/>
  <unicode hex="014B"/>
  <outline>
    <contour>
      <point x="257" y="-187" type="curve" smooth="yes"/>
      <point x="336" y="-187"/>
      <point x="421" y="-154"/>
      <point x="450" y="-30" type="curve" smooth="yes"/>
      <point x="525" y="284" type="line"/>
      <point x="564" y="441"/>
      <point x="504" y="538"/>
      <point x="348" y="538" type="curve" smooth="yes"/>
      <point x="242" y="538"/>
      <point x="182" y="516"/>
      <point x="136" y="502" type="curve"/>
      <point x="15" y="0" type="line"/>
      <point x="164" y="0" type="line"/>
      <point x="261" y="407" type="line"/>
      <point x="281" y="411"/>
      <point x="301" y="413"/>
      <point x="320" y="413" type="curve" smooth="yes"/>
      <point x="400" y="413"/>
      <point x="390" y="347"/>
      <point x="374" y="278" type="curve" smooth="yes"/>
      <point x="307" y="-4" type="line" smooth="yes"/>
      <point x="294" y="-56"/>
      <point x="271" y="-74"/>
      <point x="240" y="-74" type="curve" smooth="yes"/>
      <point x="226" y="-74"/>
      <point x="210" y="-70"/>
      <point x="192" y="-63" type="curve"/>
      <point x="154" y="-170" type="line"/>
      <point x="182" y="-179"/>
      <point x="218" y="-187"/>
    </contour>
  </outline>
</glyph>
<glyph name="OE" format="2">
  <advance width="995"/>
  <unicode hex="0152"/>
  <outline>
    <contour>
      <point x="442" y="-8" type="curve" smooth="yes"/>
      <point x="479" y="-8"/>
      <point x="516" y="-5"/>
      <point x="551" y="0" type="curve"/>
      <point x="946" y="0" type="line"/>
      <point x="978" y="131" type="line"/>
      <point x="670" y="131" type="line"/>
      <point x="710" y="298" type="line"/>
      <point x="960" y="298" type="line"/>
      <point x="991" y="426" type="line"/>
      <point x="741" y="426" type="line"/>
      <point x="773" y="562" type="line"/>
      <point x="1058" y="562" type="line"/>
      <point x="1090" y="693" type="line"/>
      <point x="707" y="693" type="line"/>
      <point x="671" y="698"/>
      <point x="626" y="700"/>
      <point x="591" y="700" type="curve" smooth="yes"/>
      <point x="323" y="700"/>
      <point x="128" y="547"/>
      <point x="128" y="274" type="curve" smooth="yes"/>
      <point x="128" y="48"/>
      <point x="286" y="-8"/>
    </contour>
    <contour>
      <point x="450" y="121" type="curve" smooth="yes"/>
      <point x="335" y="121"/>
      <point x="286" y="196"/>
      <point x="286" y="285" type="curve" smooth="yes"/>
      <point x="286" y="414"/>
      <point x="374" y="570"/>
      <point x="563" y="570" type="curve" smooth="yes"/>
      <point x="582" y="570"/>
      <point x="602" y="569"/>
      <point x="623" y="566" type="curve"/>
      <point x="518" y="127" type="line"/>
      <point x="494" y="123"/>
      <point x="471" y="121"/>
    </contour>
  </outline>
</glyph>
<glyph name="oe" format="2">
  <advance width="879"/>
  <unicode hex="0153"/>
  <outline>
    <contour>
      <point x="313" y="-14" type="curve" smooth="yes"/>
      <point x="388" y="-14"/>
      <point x="453" y="21"/>
      <point x="493" y="68" type="curve"/>
      <point x="528" y="21"/>
      <point x="584" y="-14"/>
      <point x="668" y="-14" type="curve" smooth="yes"/>
      <point x="736" y="-14"/>
      <point x="797" y="0"/>
      <point x="834" y="15" type="curve"/>
      <point x="823" y="132" type="line"/>
      <point x="784" y="117"/>
      <point x="739" y="110"/>
      <point x="696" y="110" type="curve" smooth="yes"/>
      <point x="629" y="110"/>
      <point x="600" y="131"/>
      <point x="591" y="188" type="curve"/>
      <point x="591" y="188"/>
      <point x="591" y="188"/>
      <point x="591" y="188" type="curve"/>
      <point x="783" y="188"/>
      <point x="924" y="243"/>
      <point x="924" y="392" type="curve" smooth="yes"/>
      <point x="924" y="485"/>
      <point x="852" y="540"/>
      <point x="759" y="540" type="curve" smooth="yes"/>
      <point x="682" y="540"/>
      <point x="618" y="509"/>
      <point x="565" y="454" type="curve"/>
      <point x="532" y="511"/>
      <point x="471" y="540"/>
      <point x="403" y="540" type="curve" smooth="yes"/>
      <point x="211" y="540"/>
      <point x="105" y="360"/>
      <point x="105" y="200" type="curve" smooth="yes"/>
      <point x="105" y="76"/>
      <point x="174" y="-14"/>
    </contour>
    <contour>
      <point x="327" y="112" type="curve" smooth="yes"/>
      <point x="271" y="112"/>
      <point x="253" y="151"/>
      <point x="253" y="218" type="curve" smooth="yes"/>
      <point x="253" y="301"/>
      <point x="299" y="414"/>
      <point x="387" y="414" type="curve" smooth="yes"/>
      <point x="443" y="414"/>
      <point x="461" y="375"/>
      <point x="461" y="308" type="curve" smooth="yes"/>
      <point x="461" y="225"/>
      <point x="415" y="112"/>
    </contour>
    <contour>
      <point x="595" y="289" type="curve"/>
      <point x="611" y="369"/>
      <point x="667" y="422"/>
      <point x="735" y="422" type="curve" smooth="yes"/>
      <point x="770" y="422"/>
      <point x="789" y="405"/>
      <point x="789" y="374" type="curve" smooth="yes"/>
      <point x="789" y="338"/>
      <point x="760" y="294"/>
    </contour>
  </outline>
</glyph>
<glyph name="Scedilla" format="2">
  <advance width="569"/>
  <unicode hex="015E"/>
  <outline>
    <contour>
      <point x="182" y="-221" type="curve" smooth="yes"/>
      <point x="252" y="-221"/>
      <point x="320" y="-189"/>
      <point x="320" y="-111" type="curve" smooth="yes"/>
      <point x="320" y="-84"/>
      <point x="305" y="-59"/>
      <point x="276" y="-44" type="curve"/>
      <point x="283" y="-34"/>
      <point x="289" y="-23"/>
      <point x="296" y="-13" type="curve"/>
      <point x="453" y="-8"/>
      <point x="562" y="64"/>
      <point x="562" y="210" type="curve" smooth="yes"/>
      <point x="562" y="319"/>
      <point x="487" y="367"/>
      <point x="403" y="410" type="curve" smooth="yes"/>
      <point x="356" y="434"/>
      <point x="314" y="449"/>
      <point x="314" y="502" type="curve" smooth="yes"/>
      <point x="314" y="561"/>
      <point x="369" y="581"/>
      <point x="430" y="581" type="curve" smooth="yes"/>
      <point x="485" y="581"/>
      <point x="536" y="561"/>
      <point x="569" y="536" type="curve"/>
      <point x="634" y="651" type="line"/>
      <point x="594" y="678"/>
      <point x="518" y="709"/>
      <point x="432" y="709" type="curve" smooth="yes"/>
      <point x="246" y="709"/>
      <point x="154" y="616"/>
      <point x="154" y="493" type="curve" smooth="yes"/>
      <point x="154" y="398"/>
      <point x="210" y="348"/>
      <point x="283" y="305" type="curve"/>
      <point x="338" y="274"/>
      <point x="402" y="254"/>
      <point x="402" y="200" type="curve" smooth="yes"/>
      <point x="402" y="131"/>
      <point x="335" y="116"/>
      <point x="274" y="116" type="curve" smooth="yes"/>
      <point x="206" y="116"/>
      <point x="142" y="148"/>
      <point x="111" y="169" type="curve"/>
      <point x="45" y="50" type="line"/>
      <point x="72" y="31"/>
      <point x="129" y="3"/>
      <point x="206" y="-9" type="curve"/>
      <point x="193" y="-28"/>
      <point x="177" y="-50"/>
      <point x="168" y="-65" type="curve"/>
      <point x="209" y="-81"/>
      <point x="218" y="-91"/>
      <point x="218" y="-106" type="curve" smooth="yes"/>
      <point x="218" y="-122"/>
      <point x="205" y="-130"/>
      <point x="178" y="-130" type="curve" smooth="yes"/>
      <point x="158" y="-130"/>
      <point x="134" y="-124"/>
      <point x="117" y="-116" type="curve"/>
      <point x="81" y="-198" type="line"/>
      <point x="109" y="-213"/>
      <point x="146" y="-221"/>
    </contour>
  </outline>
</glyph>
<glyph name="scedilla" format="2">
  <advance width="493"/>
  <unicode hex="015F"/>
  <outline>
    <contour>
      <point x="189" y="-221" type="curve" smooth="yes"/>
      <point x="259" y="-221"/>
      <point x="327" y="-189"/>
      <point x="327" y="-111" type="curve" smooth="yes"/>
      <point x="327" y="-84"/>
      <point x="312" y="-59"/>
      <point x="283" y="-44" type="curve"/>
      <point x="288" y="-35"/>
      <point x="297" y="-22"/>
      <point x="306" y="-10" type="curve"/>
      <point x="431" y="9"/>
      <point x="485" y="83"/>
      <point x="485" y="158" type="curve" smooth="yes"/>
      <point x="485" y="242"/>
      <point x="452" y="272"/>
      <point x="349" y="322" type="curve"/>
      <point x="312" y="341"/>
      <point x="290" y="349"/>
      <point x="290" y="376" type="curve" smooth="yes"/>
      <point x="290" y="416"/>
      <point x="332" y="422"/>
      <point x="368" y="422" type="curve" smooth="yes"/>
      <point x="411" y="422"/>
      <point x="459" y="406"/>
      <point x="487" y="391" type="curve"/>
      <point x="538" y="502" type="line"/>
      <point x="503" y="521"/>
      <point x="445" y="540"/>
      <point x="374" y="540" type="curve" smooth="yes"/>
      <point x="223" y="540"/>
      <point x="141" y="473"/>
      <point x="141" y="365" type="curve" smooth="yes"/>
      <point x="141" y="283"/>
      <point x="195" y="247"/>
      <point x="262" y="218" type="curve" smooth="yes"/>
      <point x="320" y="192"/>
      <point x="335" y="181"/>
      <point x="335" y="152" type="curve" smooth="yes"/>
      <point x="335" y="129"/>
      <point x="314" y="106"/>
      <point x="246" y="106" type="curve" smooth="yes"/>
      <point x="178" y="106"/>
      <point x="129" y="133"/>
      <point x="106" y="146" type="curve"/>
      <point x="55" y="32" type="line"/>
      <point x="78" y="19"/>
      <point x="127" y="-5"/>
      <point x="210" y="-12" type="curve"/>
      <point x="198" y="-31"/>
      <point x="184" y="-50"/>
      <point x="175" y="-65" type="curve"/>
      <point x="216" y="-80"/>
      <point x="225" y="-91"/>
      <point x="225" y="-106" type="curve" smooth="yes"/>
      <point x="225" y="-122"/>
      <point x="212" y="-130"/>
      <point x="185" y="-130" type="curve" smooth="yes"/>
      <point x="165" y="-130"/>
      <point x="141" y="-124"/>
      <point x="124" y="-116" type="curve"/>
      <point x="88" y="-198" type="line"/>
      <point x="116" y="-213"/>
      <point x="153" y="-221"/>
    </contour>
  </outline>
</glyph>
<glyph name="Tcedilla" format="2">
  <advance width="604"/>
  <unicode hex="0162"/>
  <outline>
    <contour>
      <point x="171" y="-221" type="curve" smooth="yes"/>
      <point x="241" y="-221"/>
      <point x="309" y="-189"/>
      <point x="309" y="-111" type="curve" smooth="yes"/>
      <point x="309" y="-84"/>
      <point x="294" y="-59"/>
      <point x="265" y="-44" type="curve"/>
      <point x="272" y="-33"/>
      <point x="284" y="-15"/>
      <point x="295" y="0" type="curve"/>
      <point x="314" y="0" type="line"/>
      <point x="449" y="562" type="line"/>
      <point x="652" y="562" type="line"/>
      <point x="684" y="693" type="line"/>
      <point x="122" y="693" type="line"/>
      <point x="90" y="562" type="line"/>
      <point x="293" y="562" type="line"/>
      <point x="158" y="0" type="line"/>
      <point x="201" y="0" type="line"/>
      <point x="186" y="-19"/>
      <point x="168" y="-46"/>
      <point x="157" y="-65" type="curve"/>
      <point x="198" y="-81"/>
      <point x="207" y="-91"/>
      <point x="207" y="-106" type="curve" smooth="yes"/>
      <point x="207" y="-122"/>
      <point x="194" y="-130"/>
      <point x="167" y="-130" type="curve" smooth="yes"/>
      <point x="147" y="-130"/>
      <point x="123" y="-124"/>
      <point x="106" y="-116" type="curve"/>
      <point x="70" y="-198" type="line"/>
      <point x="98" y="-213"/>
      <point x="135" y="-221"/>
    </contour>
  </outline>
</glyph>
<glyph name="tcedilla" format="2">
  <advance width="426"/>
  <unicode hex="0163"/>
  <outline>
    <contour>
      <point x="202" y="-221" type="curve" smooth="yes"/>
      <point x="272" y="-221"/>
      <point x="340" y="-189"/>
      <point x="340" y="-111" type="curve" smooth="yes"/>
      <point x="340" y="-84"/>
      <point x="325" y="-59"/>
      <point x="296" y="-44" type="curve"/>
      <point x="304" y="-33"/>
      <point x="311" y="-21"/>
      <point x="319" y="-10" type="curve"/>
      <point x="363" y="-7"/>
      <point x="397" y="3"/>
      <point x="429" y="15" type="curve"/>
      <point x="418" y="129" type="line"/>
      <point x="387" y="118"/>
      <point x="358" y="112"/>
      <point x="326" y="112" type="curve" smooth="yes"/>
      <point x="251" y="112"/>
      <point x="246" y="158"/>
      <point x="262" y="220" type="curve"/>
      <point x="306" y="404" type="line"/>
      <point x="471" y="404" type="line"/>
      <point x="501" y="526" type="line"/>
      <point x="335" y="526" type="line"/>
      <point x="373" y="681" type="line"/>
      <point x="218" y="657" type="line"/>
      <point x="120" y="243" type="line"/>
      <point x="90" y="122"/>
      <point x="97" y="14"/>
      <point x="227" y="-7" type="curve"/>
      <point x="212" y="-26"/>
      <point x="197" y="-49"/>
      <point x="188" y="-65" type="curve"/>
      <point x="229" y="-80"/>
      <point x="238" y="-91"/>
      <point x="238" y="-106" type="curve" smooth="yes"/>
      <point x="238" y="-122"/>
      <point x="225" y="-130"/>
      <point x="198" y="-130" type="curve" smooth="yes"/>
      <point x="178" y="-130"/>
      <point x="154" y="-124"/>
      <point x="137" y="-116" type="curve"/>
      <point x="101" y="-198" type="line"/>
      <point x="129" y="-213"/>
      <point x="166" y="-221"/>
    </contour>
  </outline>
</glyph>
<glyph name="Tbar" format="2">
  <advance width="604"/>
  <unicode hex="0166"/>
  <outline>
    <contour>
      <point x="218" y="0" type="line"/>
      <point x="374" y="0" type="line"/>
      <point x="438" y="267" type="line"/>
      <point x="580" y="267" type="line"/>
      <point x="607" y="377" type="line"/>
      <point x="464" y="377" type="line"/>
      <point x="509" y="562" type="line"/>
      <point x="712" y="562" type="line"/>
      <point x="744" y="693" type="line"/>
      <point x="182" y="693" type="line"/>
      <point x="150" y="562" type="line"/>
      <point x="353" y="562" type="line"/>
      <point x="308" y="377" type="line"/>
      <point x="169" y="377" type="line"/>
      <point x="142" y="267" type="line"/>
      <point x="282" y="267" type="line"/>
    </contour>
  </outline>
</glyph>
<glyph name="tbar" format="2">
  <advance width="426"/>
  <unicode hex="0167"/>
  <outline>
    <contour>
      <point x="221" y="-12" type="curve" smooth="yes"/>
      <point x="285" y="-12"/>
      <point x="329" y="0"/>
      <point x="369" y="15" type="curve"/>
      <point x="358" y="129" type="line"/>
      <point x="327" y="118"/>
      <point x="298" y="112"/>
      <point x="266" y="112" type="curve" smooth="yes"/>
      <point x="191" y="112"/>
      <point x="186" y="158"/>
      <point x="202" y="220" type="curve" smooth="yes"/>
      <point x="204" y="228" type="line"/>
      <point x="382" y="228" type="line"/>
      <point x="404" y="321" type="line"/>
      <point x="226" y="321" type="line"/>
      <point x="246" y="404" type="line"/>
      <point x="411" y="404" type="line"/>
      <point x="441" y="526" type="line"/>
      <point x="275" y="526" type="line"/>
      <point x="313" y="681" type="line"/>
      <point x="158" y="657" type="line"/>
      <point x="60" y="243" type="line"/>
      <point x="28" y="107"/>
      <point x="38" y="-12"/>
    </contour>
  </outline>
</glyph>
<glyph name="Uogonek" format="2">
  <advance width="693"/>
  <unicode hex="0172"/>
  <outline>
    <contour>
      <point x="254" y="-221" type="curve" smooth="yes"/>
      <point x="289" y="-221"/>
      <point x="322" y="-213"/>
      <point x="349" y="-201" type="curve"/>
      <point x="359" y="-102" type="line"/>
      <point x="350" y="-105"/>
      <point x="325" y="-113"/>
      <point x="306" y="-113" type="curve" smooth="yes"/>
      <point x="289" y="-113"/>
      <point x="281" y="-108"/>
      <point x="281" y="-97" type="curve" smooth="yes"/>
      <point x="281" y="-81"/>
      <point x="301" y="-53"/>
      <point x="361" y="-10" type="curve"/>
      <point x="494" y="9"/>
      <point x="574" y="87"/>
      <point x="613" y="252" type="curve" smooth="yes"/>
      <point x="718" y="693" type="line"/>
      <point x="562" y="693" type="line"/>
      <point x="460" y="265" type="line"/>
      <point x="437" y="173"/>
      <point x="401" y="121"/>
      <point x="321" y="121" type="curve" smooth="yes"/>
      <point x="243" y="121"/>
      <point x="221" y="158"/>
      <point x="221" y="210" type="curve" smooth="yes"/>
      <point x="221" y="233"/>
      <point x="224" y="258"/>
      <point x="231" y="283" type="curve"/>
      <point x="329" y="693" type="line"/>
      <point x="173" y="693" type="line"/>
      <point x="80" y="305" type="line" smooth="yes"/>
      <point x="70" y="266"/>
      <point x="65" y="229"/>
      <point x="65" y="194" type="curve" smooth="yes"/>
      <point x="65" y="88"/>
      <point x="114" y="9"/>
      <point x="239" y="-10" type="curve"/>
      <point x="168" y="-53"/>
      <point x="144" y="-96"/>
      <point x="144" y="-136" type="curve" smooth="yes"/>
      <point x="144" y="-199"/>
      <point x="197" y="-221"/>
    </contour>
  </outline>
</glyph>
<glyph name="uogonek" format="2">
  <advance width="591"/>
  <unicode hex="0173"/>
  <outline>
    <contour>
      <point x="433" y="-221" type="curve" smooth="yes"/>
      <point x="468" y="-221"/>
      <point x="501" y="-213"/>
      <point x="528" y="-201" type="curve"/>
      <point x="538" y="-102" type="line"/>
      <point x="529" y="-105"/>
      <point x="504" y="-113"/>
      <point x="485" y="-113" type="curve" smooth="yes"/>
      <point x="468" y="-113"/>
      <point x="460" y="-108"/>
      <point x="460" y="-97" type="curve" smooth="yes"/>
      <point x="460" y="-80"/>
      <point x="483" y="-45"/>
      <point x="570" y="10" type="curve"/>
      <point x="555" y="48"/>
      <point x="545" y="96"/>
      <point x="545" y="145" type="curve" smooth="yes"/>
      <point x="545" y="172"/>
      <point x="548" y="200"/>
      <point x="555" y="227" type="curve"/>
      <point x="626" y="526" type="line"/>
      <point x="477" y="526" type="line"/>
      <point x="412" y="253" type="line" smooth="yes"/>
      <point x="405" y="222"/>
      <point x="399" y="183"/>
      <point x="396" y="150" type="curve"/>
      <point x="367" y="122"/>
      <point x="343" y="112"/>
      <point x="312" y="112" type="curve" smooth="yes"/>
      <point x="240" y="112"/>
      <point x="253" y="186"/>
      <point x="266" y="244" type="curve"/>
      <point x="333" y="526" type="line"/>
      <point x="184" y="526" type="line"/>
      <point x="116" y="242" type="line"/>
      <point x="84" y="113"/>
      <point x="119" y="-12"/>
      <point x="275" y="-12" type="curve" smooth="yes"/>
      <point x="332" y="-12"/>
      <point x="379" y="11"/>
      <point x="416" y="40" type="curve"/>
      <point x="421" y="25"/>
      <point x="426" y="12"/>
      <point x="433" y="-1" type="curve"/>
      <point x="349" y="-47"/>
      <point x="323" y="-96"/>
      <point x="323" y="-136" type="curve" smooth="yes"/>
      <point x="323" y="-199"/>
      <point x="376" y="-221"/>
    </contour>
  </outline>
</glyph>
<glyph name="longs" format="2">
  <advance width="445"/>
  <unicode hex="017F"/>
  <outline>
    <contour>
      <point x="40" y="-189" type="line"/>
      <point x="104" y="-141"/>
      <point x="157" y="-42"/>
      <point x="202" y="149" type="curve" smooth="yes"/>
      <point x="298" y="552" type="line" smooth="yes"/>
      <point x="311" y="608"/>
      <point x="343" y="650"/>
      <point x="416" y="650" type="curve" smooth="yes"/>
      <point x="443" y="650"/>
      <point x="477" y="644"/>
      <point x="501" y="632" type="curve"/>
      <point x="551" y="749" type="line"/>
      <point x="528" y="760"/>
      <point x="481" y="776"/>
      <point x="422" y="776" type="curve" smooth="yes"/>
      <point x="265" y="776"/>
      <point x="182" y="694"/>
      <point x="149" y="554" type="curve" smooth="yes"/>
      <point x="45" y="118" type="line"/>
      <point x="24" y="24"/>
      <point x="-23" y="-106"/>
      <point x="-93" y="-170" type="curve"/>
    </contour>
  </outline>
</glyph>
<glyph name="bstroke" format="2">
  <advance width="585"/>
  <unicode hex="0180"/>
  <outline>
    <contour>
      <point x="281" y="-14" type="curve" smooth="yes"/>
      <point x="467" y="-14"/>
      <point x="610" y="137"/>
      <point x="610" y="322" type="curve" smooth="yes"/>
      <point x="610" y="441"/>
      <point x="552" y="537"/>
      <point x="424" y="537" type="curve" smooth="yes"/>
      <point x="393" y="537"/>
      <point x="368" y="530"/>
      <point x="341" y="518" type="curve"/>
      <point x="359" y="596" type="line"/>
      <point x="503" y="596" type="line"/>
      <point x="525" y="689" type="line"/>
      <point x="382" y="689" type="line"/>
      <point x="403" y="776" type="line"/>
      <point x="248" y="752" type="line"/>
      <point x="233" y="689" type="line"/>
      <point x="171" y="689" type="line"/>
      <point x="149" y="596" type="line"/>
      <point x="211" y="596" type="line"/>
      <point x="75" y="25" type="line"/>
      <point x="153" y="-13"/>
      <point x="256" y="-14"/>
    </contour>
    <contour>
      <point x="294" y="109" type="curve" smooth="yes"/>
      <point x="264" y="109"/>
      <point x="261" y="110"/>
      <point x="244" y="113" type="curve"/>
      <point x="310" y="387" type="line"/>
      <point x="334" y="408"/>
      <point x="368" y="413"/>
      <point x="387" y="413" type="curve" smooth="yes"/>
      <point x="444" y="413"/>
      <point x="462" y="375"/>
      <point x="462" y="311" type="curve" smooth="yes"/>
      <point x="462" y="208"/>
      <point x="388" y="109"/>
    </contour>
  </outline>
</glyph>
<glyph name="Bhook" format="2">
  <advance width="820"/>
  <unicode hex="0181"/>
  <outline>
    <contour>
      <point x="409" y="-9" type="curve" smooth="yes"/>
      <point x="665" y="-9"/>
      <point x="761" y="110"/>
      <point x="761" y="238" type="curve" smooth="yes"/>
      <point x="761" y="294"/>
      <point x="733" y="342"/>
      <point x="674" y="369" type="curve"/>
      <point x="775" y="414"/>
      <point x="795" y="486"/>
      <point x="795" y="545" type="curve" smooth="yes"/>
      <point x="795" y="675"/>
      <point x="649" y="700"/>
      <point x="525" y="701" type="curve" smooth="yes"/>
      <point x="288" y="702"/>
      <point x="61" y="685"/>
      <point x="81" y="466" type="curve"/>
      <point x="202" y="482" type="line"/>
      <point x="207" y="534"/>
      <point x="230" y="556"/>
      <point x="304" y="564" type="curve"/>
      <point x="172" y="12" type="line"/>
      <point x="240" y="-3"/>
      <point x="329" y="-9"/>
    </contour>
    <contour>
      <point x="438" y="117" type="curve" smooth="yes"/>
      <point x="410" y="117"/>
      <point x="373" y="119"/>
      <point x="352" y="123" type="curve"/>
      <point x="395" y="303" type="line"/>
      <point x="503" y="303" type="line"/>
      <point x="576" y="303"/>
      <point x="604" y="262"/>
      <point x="604" y="225" type="curve" smooth="yes"/>
      <point x="604" y="137"/>
      <point x="517" y="117"/>
    </contour>
    <contour>
      <point x="424" y="420" type="line"/>
      <point x="460" y="572" type="line"/>
      <point x="476" y="575"/>
      <point x="513" y="577"/>
      <point x="541" y="577" type="curve" smooth="yes"/>
      <point x="592" y="577"/>
      <point x="641" y="560"/>
      <point x="641" y="508" type="curve" smooth="yes"/>
      <point x="641" y="460"/>
      <point x="602" y="420"/>
      <point x="522" y="420" type="curve" smooth="yes"/>
    </contour>
  </outline>
</glyph>
<glyph name="Btopbar" format="2">
  <advance width="651"/>
  <unicode hex="0182"/>
  <outline>
    <contour>
      <point x="230" y="-7" type="curve" smooth="yes"/>
      <point x="410" y="-7"/>
      <point x="594" y="53"/>
      <point x="594" y="253" type="curve" smooth="yes"/>
      <point x="594" y="378"/>
      <point x="525" y="447"/>
      <point x="333" y="447" type="curve" smooth="yes"/>
      <point x="284" y="447" type="line"/>
      <point x="312" y="561" type="line"/>
      <point x="603" y="561" type="line"/>
      <point x="635" y="693" type="line"/>
      <point x="187" y="693" type="line"/>
      <point x="24" y="16" type="line"/>
      <point x="83" y="1"/>
      <point x="159" y="-7"/>
    </contour>
    <contour>
      <point x="269" y="124" type="curve" smooth="yes"/>
      <point x="246" y="124"/>
      <point x="225" y="125"/>
      <point x="208" y="128" type="curve"/>
      <point x="253" y="318" type="line"/>
      <point x="308" y="318" type="line" smooth="yes"/>
      <point x="405" y="318"/>
      <point x="433" y="284"/>
      <point x="433" y="238" type="curve" smooth="yes"/>
      <point x="433" y="183"/>
      <point x="402" y="124"/>
    </contour>
  </outline>
</glyph>
<glyph name="uni0182" format="2">
  <advance width="647"/>
  <unicode hex="0182"/>
  <outline>
    <contour>
      <point x="286" y="-7" type="curve" smooth="yes"/>
      <point x="466" y="-7"/>
      <point x="650" y="53"/>
      <point x="650" y="253" type="curve" smooth="yes"/>
      <point x="650" y="378"/>
      <point x="581" y="447"/>
      <point x="389" y="447" type="curve" smooth="yes"/>
      <point x="340" y="447" type="line"/>
      <point x="368" y="561" type="line"/>
      <point x="659" y="561" type="line"/>
      <point x="691" y="693" type="line"/>
      <point x="243" y="693" type="line"/>
      <point x="80" y="16" type="line"/>
      <point x="139" y="1"/>
      <point x="215" y="-7"/>
    </contour>
    <contour>
      <point x="325" y="124" type="curve" smooth="yes"/>
      <point x="302" y="124"/>
      <point x="281" y="125"/>
      <point x="264" y="128" type="curve"/>
      <point x="309" y="318" type="line"/>
      <point x="364" y="318" type="line" smooth="yes"/>
      <point x="461" y="318"/>
      <point x="489" y="284"/>
      <point x="489" y="238" type="curve" smooth="yes"/>
      <point x="489" y="183"/>
      <point x="458" y="124"/>
    </contour>
  </outline>
</glyph>
<glyph name="uni0183" format="2">
  <advance width="585"/>
  <unicode hex="0183"/>
  <outline>
    <contour>
      <point x="281" y="-14" type="curve" smooth="yes"/>
      <point x="467" y="-14"/>
      <point x="610" y="137"/>
      <point x="610" y="322" type="curve" smooth="yes"/>
      <point x="610" y="441"/>
      <point x="552" y="537"/>
      <point x="424" y="537" type="curve" smooth="yes"/>
      <point x="393" y="537"/>
      <point x="368" y="530"/>
      <point x="341" y="518" type="curve"/>
      <point x="372" y="646" type="line"/>
      <point x="659" y="646" type="line"/>
      <point x="688" y="769" type="line"/>
      <point x="252" y="769" type="line"/>
      <point x="75" y="25" type="line"/>
      <point x="153" y="-13"/>
      <point x="256" y="-14"/>
    </contour>
    <contour>
      <point x="294" y="109" type="curve" smooth="yes"/>
      <point x="264" y="109"/>
      <point x="261" y="110"/>
      <point x="244" y="113" type="curve"/>
      <point x="310" y="387" type="line"/>
      <point x="334" y="408"/>
      <point x="368" y="413"/>
      <point x="387" y="413" type="curve" smooth="yes"/>
      <point x="444" y="413"/>
      <point x="462" y="375"/>
      <point x="462" y="311" type="curve" smooth="yes"/>
      <point x="462" y="208"/>
      <point x="388" y="109"/>
    </contour>
  </outline>
</glyph>
<glyph name="tonesix" format="2">
  <advance width="660"/>
  <unicode hex="0185"/>
  <outline>
    <contour>
      <point x="301" y="-7" type="curve" smooth="yes"/>
      <point x="481" y="-7"/>
      <point x="665" y="53"/>
      <point x="665" y="253" type="curve" smooth="yes"/>
      <point x="665" y="381"/>
      <point x="596" y="452"/>
      <point x="404" y="452" type="curve" smooth="yes"/>
      <point x="388" y="452"/>
      <point x="371" y="450"/>
      <point x="355" y="447" type="curve"/>
      <point x="417" y="703" type="line"/>
      <point x="325" y="680"/>
      <point x="227" y="640"/>
      <point x="151" y="603" type="curve"/>
      <point x="215" y="514" type="line"/>
      <point x="95" y="16" type="line"/>
      <point x="154" y="1"/>
      <point x="230" y="-7"/>
    </contour>
    <contour>
      <point x="340" y="124" type="curve" smooth="yes"/>
      <point x="317" y="124"/>
      <point x="296" y="125"/>
      <point x="279" y="128" type="curve"/>
      <point x="324" y="318" type="line"/>
      <point x="342" y="321"/>
      <point x="361" y="323"/>
      <point x="379" y="323" type="curve" smooth="yes"/>
      <point x="476" y="323"/>
      <point x="504" y="287"/>
      <point x="504" y="238" type="curve" smooth="yes"/>
      <point x="504" y="183"/>
      <point x="473" y="124"/>
    </contour>
  </outline>
</glyph>
<glyph name="uni0185" format="2">
  <advance width="650"/>
  <unicode hex="0185"/>
  <outline>
    <contour>
      <point x="296" y="-7" type="curve" smooth="yes"/>
      <point x="476" y="-7"/>
      <point x="660" y="53"/>
      <point x="660" y="253" type="curve" smooth="yes"/>
      <point x="660" y="381"/>
      <point x="591" y="452"/>
      <point x="399" y="452" type="curve" smooth="yes"/>
      <point x="383" y="452"/>
      <point x="366" y="450"/>
      <point x="350" y="447" type="curve"/>
      <point x="412" y="703" type="line"/>
      <point x="320" y="680"/>
      <point x="222" y="640"/>
      <point x="146" y="603" type="curve"/>
      <point x="210" y="514" type="line"/>
      <point x="90" y="16" type="line"/>
      <point x="149" y="1"/>
      <point x="225" y="-7"/>
    </contour>
    <contour>
      <point x="335" y="124" type="curve" smooth="yes"/>
      <point x="312" y="124"/>
      <point x="291" y="125"/>
      <point x="274" y="128" type="curve"/>
      <point x="319" y="318" type="line"/>
      <point x="337" y="321"/>
      <point x="356" y="323"/>
      <point x="374" y="323" type="curve" smooth="yes"/>
      <point x="471" y="323"/>
      <point x="499" y="287"/>
      <point x="499" y="238" type="curve" smooth="yes"/>
      <point x="499" y="183"/>
      <point x="468" y="124"/>
    </contour>
  </outline>
</glyph>
<glyph name="Oopen" format="2">
  <advance width="638"/>
  <unicode hex="0186"/>
  <outline>
    <contour>
      <point x="198" y="-14" type="curve" smooth="yes"/>
      <point x="418" y="-14"/>
      <point x="614" y="137"/>
      <point x="614" y="458" type="curve" smooth="yes"/>
      <point x="614" y="642"/>
      <point x="482" y="709"/>
      <point x="339" y="709" type="curve" smooth="yes"/>
      <point x="267" y="709"/>
      <point x="194" y="692"/>
      <point x="130" y="665" type="curve"/>
      <point x="140" y="538" type="line"/>
      <point x="187" y="558"/>
      <point x="248" y="574"/>
      <point x="304" y="574" type="curve" smooth="yes"/>
      <point x="384" y="574"/>
      <point x="453" y="540"/>
      <point x="453" y="435" type="curve" smooth="yes"/>
      <point x="453" y="255"/>
      <point x="358" y="119"/>
      <point x="206" y="119" type="curve" smooth="yes"/>
      <point x="155" y="119"/>
      <point x="111" y="128"/>
      <point x="55" y="157" type="curve"/>
      <point x="-11" y="36" type="line"/>
      <point x="52" y="3"/>
      <point x="123" y="-14"/>
    </contour>
  </outline>
</glyph>
<glyph name="uni0186" format="2">
  <advance width="644"/>
  <unicode hex="0186"/>
  <outline>
    <contour>
      <point x="264" y="-14" type="curve" smooth="yes"/>
      <point x="484" y="-14"/>
      <point x="680" y="137"/>
      <point x="680" y="458" type="curve" smooth="yes"/>
      <point x="680" y="642"/>
      <point x="548" y="709"/>
      <point x="405" y="709" type="curve" smooth="yes"/>
      <point x="333" y="709"/>
      <point x="260" y="692"/>
      <point x="196" y="665" type="curve"/>
      <point x="206" y="538" type="line"/>
      <point x="253" y="558"/>
      <point x="314" y="574"/>
      <point x="370" y="574" type="curve" smooth="yes"/>
      <point x="450" y="574"/>
      <point x="519" y="540"/>
      <point x="519" y="435" type="curve" smooth="yes"/>
      <point x="519" y="255"/>
      <point x="424" y="119"/>
      <point x="272" y="119" type="curve" smooth="yes"/>
      <point x="221" y="119"/>
      <point x="177" y="128"/>
      <point x="121" y="157" type="curve"/>
      <point x="55" y="36" type="line"/>
      <point x="118" y="3"/>
      <point x="189" y="-14"/>
    </contour>
  </outline>
</glyph>
<glyph name="Chook" format="2">
  <advance width="708"/>
  <unicode hex="0187"/>
  <outline>
    <contour>
      <point x="406" y="-14" type="curve" smooth="yes"/>
      <point x="502" y="-14"/>
      <point x="564" y="3"/>
      <point x="619" y="30" type="curve"/>
      <point x="602" y="157" type="line"/>
      <point x="555" y="136"/>
      <point x="502" y="121"/>
      <point x="438" y="121" type="curve" smooth="yes"/>
      <point x="342" y="121"/>
      <point x="289" y="173"/>
      <point x="289" y="289" type="curve" smooth="yes"/>
      <point x="289" y="444"/>
      <point x="384" y="576"/>
      <point x="536" y="576" type="curve" smooth="yes"/>
      <point x="587" y="576"/>
      <point x="626" y="567"/>
      <point x="682" y="538" type="curve"/>
      <point x="713" y="605" type="line" smooth="yes"/>
      <point x="730" y="641"/>
      <point x="756" y="659"/>
      <point x="790" y="659" type="curve" smooth="yes"/>
      <point x="807" y="659"/>
      <point x="825" y="654"/>
      <point x="846" y="645" type="curve"/>
      <point x="903" y="764" type="line"/>
      <point x="870" y="779"/>
      <point x="835" y="786"/>
      <point x="799" y="786" type="curve" smooth="yes"/>
      <point x="735" y="786"/>
      <point x="674" y="762"/>
      <point x="639" y="698" type="curve"/>
      <point x="608" y="706"/>
      <point x="577" y="709"/>
      <point x="546" y="709" type="curve" smooth="yes"/>
      <point x="278" y="709"/>
      <point x="128" y="488"/>
      <point x="128" y="280" type="curve" smooth="yes"/>
      <point x="128" y="99"/>
      <point x="240" y="-14"/>
    </contour>
  </outline>
</glyph>
<glyph name="uni0187" format="2">
  <advance width="698"/>
  <unicode hex="0187"/>
  <outline>
    <contour>
      <point x="401" y="-14" type="curve" smooth="yes"/>
      <point x="497" y="-14"/>
      <point x="559" y="3"/>
      <point x="614" y="30" type="curve"/>
      <point x="597" y="157" type="line"/>
      <point x="550" y="136"/>
      <point x="497" y="121"/>
      <point x="433" y="121" type="curve" smooth="yes"/>
      <point x="337" y="121"/>
      <point x="284" y="173"/>
      <point x="284" y="289" type="curve" smooth="yes"/>
      <point x="284" y="444"/>
      <point x="379" y="576"/>
      <point x="531" y="576" type="curve" smooth="yes"/>
      <point x="582" y="576"/>
      <point x="621" y="567"/>
      <point x="677" y="538" type="curve"/>
      <point x="708" y="605" type="line" smooth="yes"/>
      <point x="725" y="641"/>
      <point x="751" y="659"/>
      <point x="785" y="659" type="curve" smooth="yes"/>
      <point x="802" y="659"/>
      <point x="820" y="654"/>
      <point x="841" y="645" type="curve"/>
      <point x="898" y="764" type="line"/>
      <point x="865" y="779"/>
      <point x="830" y="786"/>
      <point x="794" y="786" type="curve" smooth="yes"/>
      <point x="730" y="786"/>
      <point x="669" y="762"/>
      <point x="634" y="698" type="curve"/>
      <point x="603" y="706"/>
      <point x="572" y="709"/>
      <point x="541" y="709" type="curve" smooth="yes"/>
      <point x="273" y="709"/>
      <point x="123" y="488"/>
      <point x="123" y="280" type="curve" smooth="yes"/>
      <point x="123" y="99"/>
      <point x="235" y="-14"/>
    </contour>
  </outline>
</glyph>
<glyph name="chook" format="2">
  <advance width="561"/>
  <unicode hex="0188"/>
  <outline>
    <contour>
      <point x="276" y="-14" type="curve" smooth="yes"/>
      <point x="339" y="-14"/>
      <point x="382" y="-1"/>
      <point x="419" y="14" type="curve"/>
      <point x="408" y="133" type="line"/>
      <point x="380" y="121"/>
      <point x="343" y="112"/>
      <point x="304" y="112" type="curve" smooth="yes"/>
      <point x="225" y="112"/>
      <point x="201" y="158"/>
      <point x="201" y="226" type="curve" smooth="yes"/>
      <point x="201" y="341"/>
      <point x="263" y="414"/>
      <point x="362" y="414" type="curve" smooth="yes"/>
      <point x="403" y="414"/>
      <point x="429" y="404"/>
      <point x="456" y="393" type="curve"/>
      <point x="488" y="466" type="line"/>
      <point x="502" y="495"/>
      <point x="523" y="509"/>
      <point x="552" y="509" type="curve" smooth="yes"/>
      <point x="565" y="509"/>
      <point x="580" y="506"/>
      <point x="595" y="500" type="curve"/>
      <point x="646" y="611" type="line"/>
      <point x="617" y="623"/>
      <point x="587" y="629"/>
      <point x="558" y="629" type="curve" smooth="yes"/>
      <point x="501" y="629"/>
      <point x="449" y="606"/>
      <point x="417" y="549" type="curve"/>
      <point x="410" y="536" type="line"/>
      <point x="395" y="539"/>
      <point x="379" y="540"/>
      <point x="362" y="540" type="curve" smooth="yes"/>
      <point x="169" y="540"/>
      <point x="47" y="391"/>
      <point x="47" y="210" type="curve" smooth="yes"/>
      <point x="47" y="89"/>
      <point x="112" y="-14"/>
    </contour>
  </outline>
</glyph>
